Grandstander-Thin.ufo
<glyph name="exclam" format="2">
  <advance width="708"/>
  <unicode hex="0021"/>
  <outline>
    <contour>
      <point x="300" y="341" type="curve"/>
      <point x="377" y="628"/>
      <point x="559" y="1255"/>
      <point x="644" y="1467" type="curve"/>
      <point x="566" y="1472" type="line"/>
      <point x="502" y="1318"/>
      <point x="319" y="666"/>
      <point x="233" y="345" type="curve"/>
      <point x="239" y="343"/>
      <point x="288" y="341"/>
    </contour>
    <contour>
      <point x="195" y="-27" type="curve" smooth="yes"/>
      <point x="265" y="-27"/>
      <point x="326" y="27"/>
      <point x="326" y="100" type="curve" smooth="yes"/>
      <point x="326" y="153"/>
      <point x="288" y="186"/>
      <point x="232" y="186" type="curve" smooth="yes"/>
      <point x="161" y="186"/>
      <point x="93" y="142"/>
      <point x="93" y="64" type="curve" smooth="yes"/>
      <point x="93" y="13"/>
      <point x="127" y="-27"/>
    </contour>
  </outline>
</glyph>
<glyph name="dollar" format="2">
  <advance width="1027"/>
  <unicode hex="0024"/>
  <anchor x="410" y="101" name="bottom"/>
  <anchor x="727" y="1259" name="top"/>
  <outline>
    <contour>
      <point x="362" y="-82" type="line"/>
      <point x="378" y="-33"/>
      <point x="419" y="83"/>
      <point x="437" y="127" type="curve"/>
      <point x="357" y="132" type="line"/>
      <point x="342" y="98"/>
      <point x="292" y="-43"/>
      <point x="285" y="-72" type="curve"/>
    </contour>
    <contour>
      <point x="675" y="1222" type="curve"/>
      <point x="750" y="1222" type="line"/>
      <point x="761" y="1257"/>
      <point x="790" y="1360"/>
      <point x="804" y="1410" type="curve"/>
      <point x="729" y="1408" type="line"/>
      <point x="720" y="1374"/>
      <point x="684" y="1251"/>
    </contour>
    <component base="s" xOffset="70" yOffset="161"/>
  </outline>
</glyph>
<glyph name="ampersand" format="2">
  <advance width="1395"/>
  <unicode hex="0026"/>
  <outline>
    <contour>
      <point x="448" y="-110" type="curve" smooth="yes"/>
      <point x="744" y="-110"/>
      <point x="956" y="89"/>
      <point x="994" y="131" type="curve"/>
      <point x="1016" y="93"/>
      <point x="1080" y="-16"/>
      <point x="1109" y="-63" type="curve"/>
      <point x="1122" y="-57"/>
      <point x="1177" y="-10"/>
      <point x="1192" y="3" type="curve"/>
      <point x="1158" y="58"/>
      <point x="1094" y="159"/>
      <point x="1058" y="214" type="curve"/>
      <point x="1152" y="314"/>
      <point x="1285" y="472"/>
      <point x="1304" y="501" type="curve"/>
      <point x="1288" y="521"/>
      <point x="1249" y="544"/>
      <point x="1229" y="555" type="curve"/>
      <point x="1209" y="529"/>
      <point x="1059" y="343"/>
      <point x="1002" y="284" type="curve"/>
      <point x="927" y="403"/>
      <point x="754" y="677"/>
      <point x="682" y="790" type="curve"/>
      <point x="857" y="902"/>
      <point x="1037" y="1033"/>
      <point x="1037" y="1229" type="curve" smooth="yes"/>
      <point x="1037" y="1321"/>
      <point x="983" y="1407"/>
      <point x="831" y="1407" type="curve" smooth="yes"/>
      <point x="636" y="1407"/>
      <point x="484" y="1265"/>
      <point x="484" y="1075" type="curve" smooth="yes"/>
      <point x="484" y="967"/>
      <point x="543" y="869"/>
      <point x="573" y="830" type="curve"/>
      <point x="326" y="694"/>
      <point x="61" y="514"/>
      <point x="61" y="215" type="curve" smooth="yes"/>
      <point x="61" y="17"/>
      <point x="193" y="-110"/>
    </contour>
    <contour>
      <point x="463" y="-31" type="curve" smooth="yes"/>
      <point x="269" y="-31"/>
      <point x="144" y="66"/>
      <point x="144" y="227" type="curve" smooth="yes"/>
      <point x="144" y="502"/>
      <point x="399" y="645"/>
      <point x="612" y="762" type="curve"/>
      <point x="673" y="656"/>
      <point x="860" y="335"/>
      <point x="950" y="205" type="curve"/>
      <point x="911" y="163"/>
      <point x="722" y="-31"/>
    </contour>
    <contour>
      <point x="647" y="855" type="curve"/>
      <point x="603" y="919"/>
      <point x="567" y="998"/>
      <point x="567" y="1082" type="curve" smooth="yes"/>
      <point x="567" y="1223"/>
      <point x="679" y="1331"/>
      <point x="816" y="1331" type="curve" smooth="yes"/>
      <point x="919" y="1331"/>
      <point x="954" y="1283"/>
      <point x="954" y="1223" type="curve" smooth="yes"/>
      <point x="954" y="1076"/>
      <point x="800" y="943"/>
    </contour>
  </outline>
</glyph>
<glyph name="quotesingle" format="2">
  <advance width="462"/>
  <unicode hex="0027"/>
  <outline>
    <contour>
      <point x="467" y="1275"/>
      <point x="496" y="1385" type="curve" smooth="yes"/>
      <point x="503" y="1412"/>
      <point x="510" y="1440"/>
      <point x="515" y="1460" type="curve"/>
      <point x="506" y="1461"/>
      <point x="495" y="1462"/>
      <point x="483" y="1462" type="curve" smooth="yes"/>
      <point x="464" y="1462"/>
      <point x="443" y="1460"/>
      <point x="427" y="1458" type="curve"/>
      <point x="409" y="1385"/>
      <point x="365" y="1182"/>
      <point x="338" y="1042" type="curve"/>
      <point x="343" y="1041"/>
      <point x="355" y="1039"/>
      <point x="368" y="1039" type="curve" smooth="yes"/>
      <point x="375" y="1039"/>
      <point x="382" y="1039"/>
      <point x="387" y="1040" type="curve"/>
      <point x="424" y="1142"/>
    </contour>
  </outline>
</glyph>
<glyph name="parenleft" format="2">
  <advance width="677"/>
  <unicode hex="0028"/>
  <outline>
    <contour>
      <point x="142" y="-470" type="curve"/>
      <point x="153" y="-465"/>
      <point x="193" y="-434"/>
      <point x="212" y="-419" type="curve"/>
      <point x="168" y="-344"/>
      <point x="144" y="-182"/>
      <point x="144" y="-28" type="curve" smooth="yes"/>
      <point x="144" y="450"/>
      <point x="385" y="1072"/>
      <point x="713" y="1470" type="curve"/>
      <point x="705" y="1477"/>
      <point x="661" y="1495"/>
      <point x="651" y="1499" type="curve"/>
      <point x="323" y="1099"/>
      <point x="70" y="487"/>
      <point x="70" y="-49" type="curve" smooth="yes"/>
      <point x="70" y="-205"/>
      <point x="94" y="-377"/>
    </contour>
  </outline>
</glyph>
<glyph name="parenright" format="2">
  <advance width="651"/>
  <unicode hex="0029"/>
  <outline>
    <contour>
      <point x="485" y="1189"/>
      <point x="485" y="994" type="curve" smooth="yes"/>
      <point x="485" y="511"/>
      <point x="247" y="-4"/>
      <point x="-86" y="-387" type="curve"/>
      <point x="-72" y="-394"/>
      <point x="-28" y="-405"/>
      <point x="-12" y="-408" type="curve"/>
      <point x="298" y="-62"/>
      <point x="561" y="518"/>
      <point x="561" y="978" type="curve" smooth="yes"/>
      <point x="561" y="1150"/>
      <point x="533" y="1363"/>
      <point x="473" y="1503" type="curve"/>
      <point x="445" y="1496"/>
      <point x="415" y="1483"/>
      <point x="399" y="1474" type="curve"/>
      <point x="449" y="1392"/>
    </contour>
  </outline>
</glyph>
<glyph name="plus" format="2">
  <advance width="1050"/>
  <unicode hex="002B"/>
  <outline>
    <contour>
      <point x="941" y="725" type="curve"/>
      <point x="946" y="739"/>
      <point x="953" y="766"/>
      <point x="953" y="783" type="curve"/>
      <point x="825" y="763"/>
      <point x="569" y="746"/>
      <point x="312" y="746" type="curve" smooth="yes"/>
      <point x="227" y="746"/>
      <point x="159" y="748"/>
      <point x="121" y="752" type="curve"/>
      <point x="116" y="736"/>
      <point x="111" y="708"/>
      <point x="111" y="687" type="curve"/>
      <point x="172" y="681"/>
      <point x="260" y="679"/>
      <point x="356" y="679" type="curve" smooth="yes"/>
      <point x="624" y="679"/>
      <point x="828" y="699"/>
    </contour>
    <contour>
      <point x="630" y="1178" type="curve"/>
      <point x="621" y="1179"/>
      <point x="583" y="1181"/>
      <point x="571" y="1181" type="curve"/>
      <point x="551" y="1021"/>
      <point x="511" y="832"/>
      <point x="464" y="657" type="curve" smooth="yes"/>
      <point x="425" y="511"/>
      <point x="381" y="373"/>
      <point x="339" y="265" type="curve"/>
      <point x="363" y="265"/>
      <point x="393" y="265"/>
      <point x="405" y="268" type="curve"/>
      <point x="456" y="403"/>
      <point x="502" y="542"/>
      <point x="538" y="677" type="curve" smooth="yes"/>
      <point x="585" y="853"/>
      <point x="618" y="1024"/>
    </contour>
  </outline>
</glyph>
<glyph name="comma" format="2">
  <advance width="667"/>
  <unicode hex="002C"/>
  <outline>
    <contour>
      <point x="127" y="-198" type="curve"/>
      <point x="229" y="-118"/>
      <point x="352" y="44"/>
      <point x="352" y="155" type="curve" smooth="yes"/>
      <point x="352" y="216"/>
      <point x="301" y="253"/>
      <point x="218" y="253" type="curve" smooth="yes"/>
      <point x="129" y="253"/>
      <point x="70" y="189"/>
      <point x="70" y="124" type="curve" smooth="yes"/>
      <point x="70" y="71"/>
      <point x="98" y="38"/>
      <point x="166" y="38" type="curve" smooth="yes"/>
      <point x="237" y="38"/>
      <point x="275" y="84"/>
      <point x="285" y="127" type="curve"/>
      <point x="286" y="125"/>
      <point x="286" y="121"/>
      <point x="286" y="117" type="curve" smooth="yes"/>
      <point x="286" y="44"/>
      <point x="161" y="-113"/>
      <point x="90" y="-173" type="curve"/>
      <point x="98" y="-179"/>
      <point x="116" y="-192"/>
    </contour>
  </outline>
</glyph>
<glyph name="period" format="2">
  <advance width="632"/>
  <unicode hex="002E"/>
  <outline>
    <contour>
      <point x="175" y="186" type="curve" smooth="yes"/>
      <point x="101" y="186"/>
      <point x="31" y="131"/>
      <point x="31" y="60" type="curve" smooth="yes"/>
      <point x="31" y="9"/>
      <point x="79" y="-38"/>
      <point x="131" y="-38" type="curve" smooth="yes"/>
      <point x="209" y="-38"/>
      <point x="270" y="24"/>
      <point x="270" y="99" type="curve" smooth="yes"/>
      <point x="270" y="149"/>
      <point x="227" y="186"/>
    </contour>
  </outline>
</glyph>
<glyph name="two" format="2">
  <advance width="995"/>
  <unicode hex="0032"/>
  <outline>
    <contour>
      <point x="804" y="106" type="curve"/>
      <point x="661" y="101"/>
      <point x="202" y="70"/>
      <point x="110" y="60" type="curve"/>
      <point x="156" y="101"/>
      <point x="479" y="400"/>
      <point x="644" y="569" type="curve" smooth="yes"/>
      <point x="808" y="737"/>
      <point x="1032" y="972"/>
      <point x="1032" y="1164" type="curve" smooth="yes"/>
      <point x="1032" y="1280"/>
      <point x="929" y="1364"/>
      <point x="785" y="1364" type="curve" smooth="yes"/>
      <point x="555" y="1364"/>
      <point x="348" y="1224"/>
      <point x="219" y="1014" type="curve"/>
      <point x="233" y="997"/>
      <point x="263" y="971"/>
      <point x="273" y="966" type="curve"/>
      <point x="400" y="1162"/>
      <point x="554" y="1296"/>
      <point x="770" y="1296" type="curve" smooth="yes"/>
      <point x="872" y="1296"/>
      <point x="956" y="1254"/>
      <point x="956" y="1155" type="curve" smooth="yes"/>
      <point x="956" y="965"/>
      <point x="630" y="649"/>
      <point x="461" y="487" type="curve" smooth="yes"/>
      <point x="295" y="327"/>
      <point x="84" y="124"/>
      <point x="-8" y="44" type="curve"/>
      <point x="-12" y="17"/>
      <point x="-13" y="5"/>
      <point x="-14" y="-17" type="curve"/>
      <point x="774" y="27" type="line"/>
      <point x="785" y="46"/>
      <point x="799" y="87"/>
    </contour>
  </outline>
</glyph>
<glyph name="three" format="2">
  <advance width="1032"/>
  <unicode hex="0033"/>
  <outline>
    <contour>
      <point x="390" y="-3" type="curve" smooth="yes"/>
      <point x="677" y="-3"/>
      <point x="932" y="174"/>
      <point x="932" y="457" type="curve" smooth="yes"/>
      <point x="932" y="626"/>
      <point x="810" y="708"/>
      <point x="637" y="715" type="curve"/>
      <point x="834" y="747"/>
      <point x="1029" y="883"/>
      <point x="1029" y="1096" type="curve" smooth="yes"/>
      <point x="1029" y="1242"/>
      <point x="945" y="1335"/>
      <point x="765" y="1335" type="curve" smooth="yes"/>
      <point x="541" y="1335"/>
      <point x="331" y="1211"/>
      <point x="230" y="1120" type="curve"/>
      <point x="243" y="1097"/>
      <point x="277" y="1068"/>
      <point x="290" y="1062" type="curve"/>
      <point x="406" y="1174"/>
      <point x="566" y="1256"/>
      <point x="744" y="1256" type="curve" smooth="yes"/>
      <point x="896" y="1256"/>
      <point x="942" y="1177"/>
      <point x="942" y="1082" type="curve" smooth="yes"/>
      <point x="942" y="846"/>
      <point x="617" y="742"/>
      <point x="370" y="742" type="curve"/>
      <point x="365" y="722"/>
      <point x="357" y="677"/>
      <point x="357" y="660" type="curve"/>
      <point x="692" y="660"/>
      <point x="855" y="623"/>
      <point x="855" y="450" type="curve" smooth="yes"/>
      <point x="855" y="231"/>
      <point x="634" y="74"/>
      <point x="392" y="74" type="curve" smooth="yes"/>
      <point x="218" y="74"/>
      <point x="119" y="162"/>
      <point x="119" y="300" type="curve"/>
      <point x="86" y="288"/>
      <point x="51" y="264"/>
      <point x="29" y="244" type="curve"/>
      <point x="29" y="104"/>
      <point x="188" y="-3"/>
    </contour>
  </outline>
</glyph>
<glyph name="five" format="2">
  <advance width="1137"/>
  <unicode hex="0035"/>
  <outline>
    <contour>
      <point x="64" y="160" type="curve"/>
      <point x="151" y="59"/>
      <point x="287" y="15"/>
      <point x="466" y="15" type="curve" smooth="yes"/>
      <point x="824" y="15"/>
      <point x="1071" y="285"/>
      <point x="1071" y="640" type="curve" smooth="yes"/>
      <point x="1071" y="819"/>
      <point x="991" y="957"/>
      <point x="803" y="957" type="curve" smooth="yes"/>
      <point x="602" y="957"/>
      <point x="439" y="807"/>
      <point x="402" y="719" type="curve"/>
      <point x="414" y="763"/>
      <point x="468" y="1039"/>
      <point x="485" y="1179" type="curve"/>
      <point x="529" y="1190"/>
      <point x="748" y="1217"/>
      <point x="1097" y="1244" type="curve"/>
      <point x="1102" y="1263"/>
      <point x="1106" y="1301"/>
      <point x="1106" y="1320" type="curve"/>
      <point x="983" y="1311"/>
      <point x="584" y="1267"/>
      <point x="413" y="1231" type="curve"/>
      <point x="381" y="978"/>
      <point x="344" y="770"/>
      <point x="293" y="578" type="curve"/>
      <point x="308" y="577"/>
      <point x="322" y="577"/>
      <point x="336" y="577" type="curve" smooth="yes"/>
      <point x="350" y="577"/>
      <point x="369" y="578"/>
      <point x="379" y="580" type="curve"/>
      <point x="404" y="655"/>
      <point x="562" y="873"/>
      <point x="788" y="873" type="curve" smooth="yes"/>
      <point x="929" y="873"/>
      <point x="984" y="771"/>
      <point x="984" y="632" type="curve" smooth="yes"/>
      <point x="984" y="333"/>
      <point x="774" y="97"/>
      <point x="482" y="97" type="curve" smooth="yes"/>
      <point x="246" y="97"/>
      <point x="171" y="192"/>
      <point x="137" y="238" type="curve"/>
      <point x="117" y="221"/>
      <point x="74" y="177"/>
    </contour>
  </outline>
</glyph>
<glyph name="eight" format="2">
  <advance width="1243"/>
  <unicode hex="0038"/>
  <outline>
    <contour>
      <point x="490" y="-9" type="curve" smooth="yes"/>
      <point x="799" y="-9"/>
      <point x="1048" y="182"/>
      <point x="1048" y="485" type="curve" smooth="yes"/>
      <point x="1048" y="628"/>
      <point x="953" y="700"/>
      <point x="860" y="716" type="curve"/>
      <point x="1040" y="756"/>
      <point x="1174" y="900"/>
      <point x="1174" y="1107" type="curve" smooth="yes"/>
      <point x="1174" y="1279"/>
      <point x="1051" y="1372"/>
      <point x="844" y="1372" type="curve" smooth="yes"/>
      <point x="555" y="1372"/>
      <point x="330" y="1231"/>
      <point x="330" y="942" type="curve" smooth="yes"/>
      <point x="330" y="832"/>
      <point x="393" y="760"/>
      <point x="451" y="728" type="curve"/>
      <point x="265" y="681"/>
      <point x="96" y="514"/>
      <point x="96" y="276" type="curve" smooth="yes"/>
      <point x="96" y="107"/>
      <point x="210" y="-9"/>
    </contour>
    <contour>
      <point x="494" y="59" type="curve" smooth="yes"/>
      <point x="334" y="59"/>
      <point x="177" y="102"/>
      <point x="177" y="283" type="curve" smooth="yes"/>
      <point x="177" y="558"/>
      <point x="402" y="684"/>
      <point x="660" y="684" type="curve" smooth="yes"/>
      <point x="855" y="684"/>
      <point x="968" y="628"/>
      <point x="968" y="472" type="curve" smooth="yes"/>
      <point x="968" y="218"/>
      <point x="762" y="59"/>
    </contour>
    <contour>
      <point x="676" y="744" type="curve" smooth="yes"/>
      <point x="511" y="744"/>
      <point x="411" y="803"/>
      <point x="411" y="949" type="curve" smooth="yes"/>
      <point x="411" y="1179"/>
      <point x="587" y="1301"/>
      <point x="825" y="1301" type="curve" smooth="yes"/>
      <point x="1004" y="1301"/>
      <point x="1097" y="1238"/>
      <point x="1097" y="1096" type="curve" smooth="yes"/>
      <point x="1097" y="875"/>
      <point x="898" y="744"/>
    </contour>
  </outline>
</glyph>
<glyph name="greater" format="2">
  <advance width="790"/>
  <unicode hex="003E"/>
  <outline>
    <contour>
      <point x="258" y="1034" type="curve"/>
      <point x="386" y="948"/>
      <point x="652" y="754"/>
      <point x="769" y="657" type="curve"/>
      <point x="755" y="685" type="line"/>
      <point x="458" y="548"/>
      <point x="54" y="365"/>
      <point x="-5" y="342" type="curve"/>
      <point x="-5" y="326"/>
      <point x="2" y="306"/>
      <point x="8" y="294" type="curve"/>
      <point x="50" y="304"/>
      <point x="477" y="498"/>
      <point x="797" y="648" type="curve"/>
      <point x="811" y="695" type="line"/>
      <point x="623" y="851"/>
      <point x="353" y="1053"/>
      <point x="304" y="1067" type="curve"/>
      <point x="291" y="1060"/>
      <point x="269" y="1044"/>
    </contour>
  </outline>
</glyph>
<glyph name="question" format="2">
  <advance width="1036"/>
  <unicode hex="003F"/>
  <outline>
    <contour>
      <point x="527" y="377" type="curve"/>
      <point x="593" y="624"/>
      <point x="697" y="725"/>
      <point x="815" y="799" type="curve" smooth="yes"/>
      <point x="976" y="900"/>
      <point x="1085" y="1044"/>
      <point x="1085" y="1236" type="curve" smooth="yes"/>
      <point x="1085" y="1392"/>
      <point x="986" y="1472"/>
      <point x="783" y="1472" type="curve" smooth="yes"/>
      <point x="565" y="1472"/>
      <point x="361" y="1369"/>
      <point x="257" y="1144" type="curve"/>
      <point x="329" y="1120" type="line"/>
      <point x="367" y="1212"/>
      <point x="480" y="1403"/>
      <point x="777" y="1403" type="curve" smooth="yes"/>
      <point x="942" y="1403"/>
      <point x="1005" y="1343"/>
      <point x="1005" y="1222" type="curve" smooth="yes"/>
      <point x="1005" y="1058"/>
      <point x="917" y="943"/>
      <point x="760" y="848" type="curve" smooth="yes"/>
      <point x="574" y="735"/>
      <point x="497" y="553"/>
      <point x="452" y="387" type="curve"/>
      <point x="472" y="382"/>
      <point x="506" y="377"/>
    </contour>
    <contour>
      <point x="402" y="-10" type="curve" smooth="yes"/>
      <point x="466" y="-10"/>
      <point x="526" y="54"/>
      <point x="526" y="126" type="curve" smooth="yes"/>
      <point x="526" y="170"/>
      <point x="498" y="197"/>
      <point x="444" y="197" type="curve" smooth="yes"/>
      <point x="393" y="197"/>
      <point x="323" y="156"/>
      <point x="323" y="73" type="curve" smooth="yes"/>
      <point x="323" y="23"/>
      <point x="353" y="-10"/>
    </contour>
  </outline>
</glyph>
<glyph name="at" format="2">
  <advance width="1920"/>
  <unicode hex="0040"/>
  <outline>
    <contour>
      <point x="768" y="-41" type="curve" smooth="yes"/>
      <point x="1084" y="-41"/>
      <point x="1278" y="70"/>
      <point x="1371" y="178" type="curve"/>
      <point x="1320" y="238" type="line"/>
      <point x="1229" y="130"/>
      <point x="1079" y="34"/>
      <point x="783" y="34" type="curve" smooth="yes"/>
      <point x="400" y="34"/>
      <point x="234" y="218"/>
      <point x="234" y="491" type="curve" smooth="yes"/>
      <point x="234" y="1000"/>
      <point x="699" y="1419"/>
      <point x="1225" y="1419" type="curve" smooth="yes"/>
      <point x="1593" y="1419"/>
      <point x="1807" y="1253"/>
      <point x="1807" y="940" type="curve" smooth="yes"/>
      <point x="1807" y="703"/>
      <point x="1683" y="438"/>
      <point x="1489" y="438" type="curve" smooth="yes"/>
      <point x="1388" y="438"/>
      <point x="1360" y="482"/>
      <point x="1360" y="581" type="curve" smooth="yes"/>
      <point x="1360" y="624"/>
      <point x="1375" y="930"/>
      <point x="1394" y="1123" type="curve"/>
      <point x="1375" y="1122"/>
      <point x="1338" y="1119"/>
      <point x="1313" y="1116" type="curve"/>
      <point x="1308" y="1092"/>
      <point x="1302" y="1055"/>
      <point x="1299" y="1026" type="curve"/>
      <point x="1272" y="1053"/>
      <point x="1203" y="1090"/>
      <point x="1092" y="1090" type="curve" smooth="yes"/>
      <point x="841" y="1090"/>
      <point x="633" y="855"/>
      <point x="633" y="603" type="curve" smooth="yes"/>
      <point x="633" y="452"/>
      <point x="724" y="356"/>
      <point x="899" y="356" type="curve" smooth="yes"/>
      <point x="1064" y="356"/>
      <point x="1221" y="440"/>
      <point x="1278" y="561" type="curve"/>
      <point x="1267" y="431"/>
      <point x="1353" y="369"/>
      <point x="1474" y="369" type="curve" smooth="yes"/>
      <point x="1725" y="369"/>
      <point x="1881" y="651"/>
      <point x="1881" y="943" type="curve" smooth="yes"/>
      <point x="1881" y="1291"/>
      <point x="1640" y="1497"/>
      <point x="1252" y="1497" type="curve" smooth="yes"/>
      <point x="663" y="1497"/>
      <point x="147" y="1043"/>
      <point x="147" y="472" type="curve" smooth="yes"/>
      <point x="147" y="141"/>
      <point x="385" y="-41"/>
    </contour>
    <contour>
      <point x="899" y="434" type="curve" smooth="yes"/>
      <point x="791" y="434"/>
      <point x="721" y="498"/>
      <point x="721" y="617" type="curve" smooth="yes"/>
      <point x="721" y="828"/>
      <point x="882" y="1018"/>
      <point x="1099" y="1018" type="curve" smooth="yes"/>
      <point x="1176" y="1018"/>
      <point x="1253" y="988"/>
      <point x="1290" y="942" type="curve"/>
      <point x="1275" y="649" type="line"/>
      <point x="1199" y="519"/>
      <point x="1072" y="434"/>
    </contour>
  </outline>
</glyph>
<glyph name="A" format="2">
  <advance width="991"/>
  <unicode hex="0041"/>
  <anchor x="465" y="0" name="bottom"/>
  <anchor x="749" y="0" name="ogonek"/>
  <anchor x="801" y="1323" name="top"/>
  <outline>
    <contour>
      <point x="43" y="-15" type="curve"/>
      <point x="87" y="91"/>
      <point x="190" y="318"/>
      <point x="289" y="525" type="curve"/>
      <point x="329" y="533"/>
      <point x="679" y="562"/>
      <point x="786" y="562" type="curve"/>
      <point x="766" y="467"/>
      <point x="687" y="80"/>
      <point x="669" y="-15" type="curve"/>
      <point x="698" y="-15"/>
      <point x="727" y="-12"/>
      <point x="756" y="-5" type="curve"/>
      <point x="882" y="621"/>
      <point x="962" y="1089"/>
      <point x="973" y="1323" type="curve"/>
      <point x="943" y="1327"/>
      <point x="901" y="1329"/>
      <point x="866" y="1329" type="curve" smooth="yes"/>
      <point x="750" y="1329"/>
      <point x="618" y="1311"/>
      <point x="588" y="1304" type="curve"/>
      <point x="426" y="996"/>
      <point x="29" y="165"/>
      <point x="-47" y="-7" type="curve"/>
      <point x="-31" y="-12"/>
      <point x="6" y="-15"/>
    </contour>
    <contour>
      <point x="324" y="594" type="curve"/>
      <point x="489" y="944"/>
      <point x="607" y="1173"/>
      <point x="639" y="1231" type="curve"/>
      <point x="682" y="1237"/>
      <point x="838" y="1250"/>
      <point x="897" y="1250" type="curve"/>
      <point x="885" y="1096"/>
      <point x="822" y="744"/>
      <point x="801" y="637" type="curve"/>
      <point x="651" y="631"/>
      <point x="429" y="615"/>
    </contour>
  </outline>
</glyph>
<glyph name="B" format="2">
  <advance width="1174"/>
  <unicode hex="0042"/>
  <anchor x="444.585" y="0" name="bottom"/>
  <anchor x="790.507" y="1291" name="top"/>
  <outline>
    <contour>
      <point x="66" y="12" type="curve"/>
      <point x="110" y="6"/>
      <point x="172" y="4"/>
      <point x="226" y="4" type="curve" smooth="yes"/>
      <point x="605" y="4"/>
      <point x="1008" y="72"/>
      <point x="1008" y="424" type="curve" smooth="yes"/>
      <point x="1008" y="555"/>
      <point x="888" y="665"/>
      <point x="745" y="665" type="curve" smooth="yes"/>
      <point x="737" y="665"/>
      <point x="736" y="665"/>
      <point x="732" y="665" type="curve"/>
      <point x="881" y="701"/>
      <point x="1050" y="863"/>
      <point x="1050" y="1059" type="curve" smooth="yes"/>
      <point x="1050" y="1243"/>
      <point x="932" y="1306"/>
      <point x="764" y="1306" type="curve" smooth="yes"/>
      <point x="604" y="1306"/>
      <point x="492" y="1294"/>
      <point x="416" y="1285" type="curve"/>
      <point x="404" y="1243"/>
      <point x="114" y="193"/>
    </contour>
    <contour>
      <point x="173" y="80" type="curve"/>
      <point x="322" y="610" type="line"/>
      <point x="367" y="615"/>
      <point x="531" y="617"/>
      <point x="565" y="617" type="curve" smooth="yes"/>
      <point x="799" y="617"/>
      <point x="929" y="569"/>
      <point x="929" y="411" type="curve" smooth="yes"/>
      <point x="929" y="105"/>
      <point x="547" y="80"/>
      <point x="217" y="80" type="curve" smooth="yes"/>
      <point x="196" y="80"/>
      <point x="180" y="80"/>
    </contour>
    <contour>
      <point x="339" y="680" type="curve"/>
      <point x="483" y="1221" type="line"/>
      <point x="530" y="1228"/>
      <point x="632" y="1241"/>
      <point x="729" y="1241" type="curve" smooth="yes"/>
      <point x="876" y="1241"/>
      <point x="966" y="1203"/>
      <point x="966" y="1048" type="curve" smooth="yes"/>
      <point x="966" y="894"/>
      <point x="869" y="797"/>
      <point x="753" y="737" type="curve" smooth="yes"/>
      <point x="667" y="692"/>
      <point x="562" y="682"/>
    </contour>
  </outline>
</glyph>
<glyph name="D" format="2">
  <advance width="1198"/>
  <unicode hex="0044"/>
  <anchor x="456.585" y="0" name="bottom"/>
  <anchor x="415" y="646" name="center"/>
  <anchor x="716" y="1291" name="top"/>
  <outline>
    <contour>
      <point x="147" y="-27" type="curve"/>
      <point x="824" y="-4"/>
      <point x="1069" y="339"/>
      <point x="1069" y="791" type="curve" smooth="yes"/>
      <point x="1069" y="1085"/>
      <point x="954" y="1325"/>
      <point x="644" y="1325" type="curve" smooth="yes"/>
      <point x="570" y="1325"/>
      <point x="420" y="1308"/>
      <point x="381" y="1299" type="curve"/>
      <point x="374" y="1268"/>
      <point x="186" y="219"/>
    </contour>
    <contour>
      <point x="239" y="53" type="curve"/>
      <point x="299" y="427"/>
      <point x="382" y="865"/>
      <point x="459" y="1249" type="curve"/>
      <point x="504" y="1252"/>
      <point x="586" y="1256"/>
      <point x="625" y="1256" type="curve" smooth="yes"/>
      <point x="906" y="1256"/>
      <point x="989" y="1063"/>
      <point x="989" y="783" type="curve" smooth="yes"/>
      <point x="989" y="429"/>
      <point x="804" y="93"/>
    </contour>
  </outline>
</glyph>
<glyph name="H" format="2">
  <advance width="1094"/>
  <unicode hex="0048"/>
  <anchor x="465" y="0" name="bottom"/>
  <anchor x="721" y="1063" name="center"/>
  <anchor x="721" y="1291" name="top"/>
  <anchor x="223.507" y="1291" name="topleft"/>
  <outline>
    <contour>
      <point x="85" y="-2" type="curve"/>
      <point x="122" y="-2"/>
      <point x="171" y="2"/>
      <point x="184" y="4" type="curve"/>
      <point x="187" y="25"/>
      <point x="264" y="395"/>
      <point x="318" y="641" type="curve"/>
      <point x="391" y="641"/>
      <point x="770" y="651"/>
      <point x="840" y="653" type="curve"/>
      <point x="794" y="496"/>
      <point x="721" y="227"/>
      <point x="668" y="-2" type="curve"/>
      <point x="688" y="-2"/>
      <point x="732" y="-1"/>
      <point x="756" y="2" type="curve"/>
      <point x="766" y="53"/>
      <point x="784" y="144"/>
      <point x="811" y="242" type="curve" smooth="yes"/>
      <point x="904" y="581"/>
      <point x="1064" y="1116"/>
      <point x="1139" y="1299" type="curve"/>
      <point x="1125" y="1303"/>
      <point x="1089" y="1305"/>
      <point x="1065" y="1305" type="curve" smooth="yes"/>
      <point x="1056" y="1305"/>
      <point x="1049" y="1305"/>
      <point x="1045" y="1304" type="curve"/>
      <point x="989" y="1152"/>
      <point x="909" y="888"/>
      <point x="867" y="745" type="curve"/>
      <point x="781" y="742"/>
      <point x="411" y="726"/>
      <point x="335" y="718" type="curve"/>
      <point x="341" y="744"/>
      <point x="371" y="870"/>
      <point x="410" y="1013" type="curve" smooth="yes"/>
      <point x="436" y="1109"/>
      <point x="465" y="1211"/>
      <point x="492" y="1289" type="curve"/>
      <point x="467" y="1289"/>
      <point x="420" y="1285"/>
      <point x="395" y="1282" type="curve"/>
      <point x="379" y="1239"/>
      <point x="360" y="1171"/>
      <point x="338" y="1088" type="curve" smooth="yes"/>
      <point x="248" y="747"/>
      <point x="111" y="149"/>
    </contour>
  </outline>
</glyph>
<glyph name="J" format="2">
  <advance width="1178"/>
  <unicode hex="004A"/>
  <anchor x="446.585" y="0" name="bottom"/>
  <anchor x="1095" y="1291" name="top"/>
  <outline>
    <contour>
      <point x="82" y="176"/>
      <point x="194" y="-19"/>
      <point x="452" y="-19" type="curve" smooth="yes"/>
      <point x="749" y="-19"/>
      <point x="923" y="247"/>
      <point x="1014" y="585" type="curve" smooth="yes"/>
      <point x="1069" y="790"/>
      <point x="1133" y="1149"/>
      <point x="1161" y="1315" type="curve"/>
      <point x="1153" y="1316"/>
      <point x="1133" y="1318"/>
      <point x="1115" y="1318" type="curve" smooth="yes"/>
      <point x="1096" y="1318"/>
      <point x="1077" y="1316"/>
      <point x="1065" y="1313" type="curve"/>
      <point x="1063" y="1291"/>
      <point x="969" y="762"/>
      <point x="914" y="556" type="curve" smooth="yes"/>
      <point x="839" y="277"/>
      <point x="691" y="63"/>
      <point x="460" y="63" type="curve" smooth="yes"/>
      <point x="228" y="63"/>
      <point x="170" y="253"/>
      <point x="170" y="448" type="curve"/>
      <point x="138" y="436"/>
      <point x="98" y="419"/>
      <point x="71" y="405" type="curve"/>
    </contour>
  </outline>
</glyph>
<glyph name="L" format="2">
  <advance width="961"/>
  <unicode hex="004C"/>
  <anchor x="338.585" y="0" name="bottom"/>
  <anchor x="511.68" y="646" name="center"/>
  <anchor x="458" y="1296" name="top"/>
  <anchor x="585" y="907" name="topright"/>
  <outline>
    <contour>
      <point x="63" y="2" type="curve"/>
      <point x="175" y="2"/>
      <point x="271" y="4"/>
      <point x="378" y="9" type="curve" smooth="yes"/>
      <point x="477" y="14"/>
      <point x="585" y="20"/>
      <point x="727" y="31" type="curve"/>
      <point x="737" y="51"/>
      <point x="749" y="80"/>
      <point x="757" y="106" type="curve"/>
      <point x="569" y="106"/>
      <point x="305" y="92"/>
      <point x="183" y="85" type="curve"/>
      <point x="197" y="130"/>
      <point x="223" y="225"/>
      <point x="256" y="347" type="curve" smooth="yes"/>
      <point x="332" y="628"/>
      <point x="442" y="1049"/>
      <point x="491" y="1292" type="curve"/>
      <point x="485" y="1293"/>
      <point x="458" y="1296"/>
      <point x="438" y="1296" type="curve" smooth="yes"/>
      <point x="430" y="1296"/>
      <point x="418" y="1295"/>
      <point x="411" y="1294" type="curve"/>
      <point x="378" y="1152"/>
      <point x="308" y="884"/>
      <point x="238" y="624" type="curve" smooth="yes"/>
      <point x="168" y="364"/>
      <point x="97" y="112"/>
    </contour>
  </outline>
</glyph>
<glyph name="M" format="2">
  <advance width="1379"/>
  <unicode hex="004D"/>
  <anchor x="531" y="0" name="bottom"/>
  <anchor x="877" y="1291" name="top"/>
  <outline>
    <contour>
      <point x="20" y="-22" type="curve"/>
      <point x="51" y="-22"/>
      <point x="94" y="-19"/>
      <point x="116" y="-17" type="curve"/>
      <point x="144" y="87"/>
      <point x="339" y="807"/>
      <point x="435" y="1156" type="curve"/>
      <point x="449" y="954"/>
      <point x="485" y="42"/>
      <point x="485" y="25" type="curve"/>
      <point x="501" y="21"/>
      <point x="552" y="17"/>
      <point x="578" y="17" type="curve"/>
      <point x="648" y="98"/>
      <point x="1159" y="916"/>
      <point x="1278" y="1145" type="curve"/>
      <point x="1255" y="1049"/>
      <point x="1190" y="786"/>
      <point x="1138" y="593" type="curve" smooth="yes"/>
      <point x="1082" y="384"/>
      <point x="1021" y="174"/>
      <point x="956" y="-5" type="curve"/>
      <point x="981" y="-8"/>
      <point x="1019" y="-10"/>
      <point x="1046" y="-10" type="curve"/>
      <point x="1087" y="109"/>
      <point x="1165" y="393"/>
      <point x="1231" y="640" type="curve" smooth="yes"/>
      <point x="1297" y="887"/>
      <point x="1355" y="1129"/>
      <point x="1364" y="1260" type="curve"/>
      <point x="1347" y="1262"/>
      <point x="1283" y="1267"/>
      <point x="1255" y="1267" type="curve"/>
      <point x="1156" y="1067"/>
      <point x="675" y="293"/>
      <point x="548" y="86" type="curve"/>
      <point x="566" y="290"/>
      <point x="507" y="1245"/>
      <point x="505" y="1262" type="curve"/>
      <point x="491" y="1262"/>
      <point x="426" y="1261"/>
      <point x="388" y="1256" type="curve"/>
      <point x="347" y="1121"/>
      <point x="125" y="368"/>
    </contour>
  </outline>
</glyph>
<glyph name="N" format="2">
  <advance width="1282"/>
  <unicode hex="004E"/>
  <anchor x="498.585" y="0" name="bottom"/>
  <anchor x="844.507" y="1291" name="top"/>
  <outline>
    <contour>
      <point x="217" y="-5" type="curve"/>
      <point x="254" y="132"/>
      <point x="480" y="1029"/>
      <point x="509" y="1159" type="curve"/>
      <point x="563" y="1000"/>
      <point x="827" y="132"/>
      <point x="866" y="-2" type="curve"/>
      <point x="877" y="-3"/>
      <point x="887" y="-3"/>
      <point x="899" y="-3" type="curve" smooth="yes"/>
      <point x="911" y="-3"/>
      <point x="925" y="-3"/>
      <point x="945" y="-2" type="curve"/>
      <point x="954" y="20"/>
      <point x="973" y="86"/>
      <point x="997" y="178" type="curve" smooth="yes"/>
      <point x="1072" y="466"/>
      <point x="1208" y="1010"/>
      <point x="1263" y="1246" type="curve"/>
      <point x="1241" y="1256"/>
      <point x="1210" y="1265"/>
      <point x="1167" y="1265" type="curve"/>
      <point x="910" y="145" type="line"/>
      <point x="835" y="412"/>
      <point x="691" y="916"/>
      <point x="555" y="1265" type="curve"/>
      <point x="541" y="1269"/>
      <point x="488" y="1274"/>
      <point x="459" y="1274" type="curve"/>
      <point x="450" y="1246"/>
      <point x="432" y="1179"/>
      <point x="409" y="1091" type="curve" smooth="yes"/>
      <point x="319" y="747"/>
      <point x="143" y="74"/>
      <point x="124" y="-9" type="curve"/>
      <point x="149" y="-9"/>
      <point x="200" y="-7"/>
    </contour>
  </outline>
</glyph>
<glyph name="O" format="2">
  <advance width="1354"/>
  <unicode hex="004F"/>
  <anchor x="534.585" y="0" name="bottom"/>
  <anchor x="652" y="646" name="center"/>
  <anchor x="764" y="0" name="ogonek"/>
  <anchor x="880.507" y="1291" name="top"/>
  <anchor x="223.507" y="1291" name="topleft"/>
  <anchor x="1165" y="1173" name="topright"/>
  <outline>
    <contour>
      <point x="529" y="-51" type="curve" smooth="yes"/>
      <point x="961" y="-51"/>
      <point x="1227" y="377"/>
      <point x="1227" y="852" type="curve" smooth="yes"/>
      <point x="1227" y="1095"/>
      <point x="1141" y="1320"/>
      <point x="864" y="1320" type="curve" smooth="yes"/>
      <point x="409" y="1320"/>
      <point x="144" y="876"/>
      <point x="144" y="388" type="curve" smooth="yes"/>
      <point x="144" y="132"/>
      <point x="253" y="-51"/>
    </contour>
    <contour>
      <point x="525" y="27" type="curve" smooth="yes"/>
      <point x="315" y="27"/>
      <point x="231" y="183"/>
      <point x="231" y="394" type="curve" smooth="yes"/>
      <point x="231" y="834"/>
      <point x="452" y="1239"/>
      <point x="856" y="1239" type="curve" smooth="yes"/>
      <point x="1078" y="1239"/>
      <point x="1146" y="1048"/>
      <point x="1146" y="847" type="curve" smooth="yes"/>
      <point x="1146" y="416"/>
      <point x="916" y="27"/>
    </contour>
  </outline>
</glyph>
<glyph name="P" format="2">
  <advance width="1010"/>
  <unicode hex="0050"/>
  <anchor x="362.585" y="0" name="bottom"/>
  <anchor x="708.507" y="1291" name="top"/>
  <outline>
    <contour>
      <point x="27" y="-26" type="curve"/>
      <point x="46" y="-27"/>
      <point x="87" y="-28"/>
      <point x="115" y="-28" type="curve"/>
      <point x="198" y="246"/>
      <point x="299" y="591"/>
      <point x="321" y="670" type="curve"/>
      <point x="387" y="662"/>
      <point x="461" y="657"/>
      <point x="522" y="657" type="curve" smooth="yes"/>
      <point x="828" y="657"/>
      <point x="1050" y="762"/>
      <point x="1050" y="1049" type="curve" smooth="yes"/>
      <point x="1050" y="1203"/>
      <point x="941" y="1284"/>
      <point x="745" y="1284" type="curve" smooth="yes"/>
      <point x="598" y="1284"/>
      <point x="496" y="1265"/>
      <point x="409" y="1248" type="curve"/>
      <point x="220" y="644"/>
      <point x="139" y="370"/>
    </contour>
    <contour>
      <point x="345" y="750" type="curve"/>
      <point x="357" y="788"/>
      <point x="472" y="1169"/>
      <point x="476" y="1193" type="curve"/>
      <point x="585" y="1207"/>
      <point x="679" y="1213"/>
      <point x="745" y="1213" type="curve" smooth="yes"/>
      <point x="885" y="1213"/>
      <point x="967" y="1164"/>
      <point x="967" y="1033" type="curve" smooth="yes"/>
      <point x="967" y="823"/>
      <point x="771" y="730"/>
      <point x="540" y="730" type="curve" smooth="yes"/>
      <point x="463" y="730"/>
      <point x="402" y="739"/>
    </contour>
  </outline>
</glyph>
<glyph name="R" format="2">
  <advance width="1094"/>
  <unicode hex="0052"/>
  <anchor x="404.585" y="0" name="bottom"/>
  <anchor x="686" y="1321" name="top"/>
  <outline>
    <contour>
      <point x="83" y="-29" type="curve"/>
      <point x="115" y="-29"/>
      <point x="166" y="-27"/>
      <point x="186" y="-24" type="curve"/>
      <point x="218" y="149"/>
      <point x="308" y="586"/>
      <point x="316" y="622" type="curve"/>
      <point x="362" y="622"/>
      <point x="530" y="636"/>
      <point x="645" y="666" type="curve"/>
      <point x="695" y="522"/>
      <point x="712" y="240"/>
      <point x="712" y="-15" type="curve"/>
      <point x="732" y="-14"/>
      <point x="776" y="7"/>
      <point x="799" y="22" type="curve"/>
      <point x="799" y="185"/>
      <point x="784" y="543"/>
      <point x="721" y="693" type="curve"/>
      <point x="906" y="751"/>
      <point x="1015" y="864"/>
      <point x="1015" y="1064" type="curve" smooth="yes"/>
      <point x="1015" y="1240"/>
      <point x="918" y="1321"/>
      <point x="736" y="1321" type="curve" smooth="yes"/>
      <point x="621" y="1321"/>
      <point x="441" y="1310"/>
      <point x="364" y="1303" type="curve"/>
      <point x="272" y="842"/>
      <point x="168" y="321"/>
    </contour>
    <contour>
      <point x="336" y="700" type="curve"/>
      <point x="345" y="748"/>
      <point x="425" y="1177"/>
      <point x="435" y="1236" type="curve"/>
      <point x="464" y="1239"/>
      <point x="654" y="1253"/>
      <point x="697" y="1253" type="curve" smooth="yes"/>
      <point x="830" y="1253"/>
      <point x="932" y="1213"/>
      <point x="932" y="1061" type="curve" smooth="yes"/>
      <point x="932" y="843"/>
      <point x="814" y="784"/>
      <point x="575" y="730" type="curve" smooth="yes"/>
      <point x="482" y="709"/>
      <point x="411" y="700"/>
    </contour>
  </outline>
</glyph>
<glyph name="V" format="2">
  <advance width="1166"/>
  <unicode hex="0056"/>
  <anchor x="440.585" y="0" name="bottom"/>
  <anchor x="786.507" y="1291" name="top"/>
  <outline>
    <contour>
      <point x="445" y="-19" type="curve" smooth="yes"/>
      <point x="471" y="-19"/>
      <point x="487" y="-18"/>
      <point x="503" y="-16" type="curve"/>
      <point x="518" y="4"/>
      <point x="802" y="410"/>
      <point x="1263" y="1326" type="curve"/>
      <point x="1247" y="1344"/>
      <point x="1215" y="1354"/>
      <point x="1184" y="1359" type="curve"/>
      <point x="1175" y="1338"/>
      <point x="818" y="639"/>
      <point x="460" y="63" type="curve"/>
      <point x="436" y="346"/>
      <point x="423" y="1169"/>
      <point x="423" y="1361" type="curve"/>
      <point x="401" y="1361"/>
      <point x="350" y="1352"/>
      <point x="335" y="1347" type="curve"/>
      <point x="335" y="1191"/>
      <point x="341" y="278"/>
      <point x="377" y="-10" type="curve"/>
      <point x="391" y="-16"/>
      <point x="421" y="-19"/>
    </contour>
  </outline>
</glyph>
<glyph name="W" format="2">
  <advance width="1344"/>
  <unicode hex="0057"/>
  <anchor x="529.585" y="0" name="bottom"/>
  <anchor x="875.507" y="1291" name="top"/>
  <outline>
    <contour>
      <point x="780" y="-17" type="curve"/>
      <point x="876" y="-11" type="line"/>
      <point x="912" y="42"/>
      <point x="1200" y="713"/>
      <point x="1371" y="1352" type="curve"/>
      <point x="1276" y="1344" type="line"/>
      <point x="1183" y="998"/>
      <point x="985" y="421"/>
      <point x="842" y="103" type="curve"/>
      <point x="842" y="267"/>
      <point x="836" y="833"/>
      <point x="834" y="840" type="curve"/>
      <point x="741" y="844" type="line"/>
      <point x="720" y="820"/>
      <point x="322" y="310"/>
      <point x="217" y="127" type="curve"/>
      <point x="298" y="553"/>
      <point x="386" y="908"/>
      <point x="502" y="1340" type="curve"/>
      <point x="417" y="1344" type="line"/>
      <point x="304" y="923"/>
      <point x="227" y="598"/>
      <point x="118" y="-8" type="curve"/>
      <point x="191" y="-8" type="line"/>
      <point x="221" y="32"/>
      <point x="700" y="669"/>
      <point x="754" y="742" type="curve"/>
      <point x="755" y="648"/>
      <point x="772" y="179"/>
    </contour>
  </outline>
</glyph>
<glyph name="X" format="2">
  <advance width="1113"/>
  <unicode hex="0058"/>
  <anchor x="422" y="0" name="bottom"/>
  <anchor x="768" y="1291" name="top"/>
  <outline>
    <contour>
      <point x="580" y="666" type="curve"/>
      <point x="532" y="610"/>
      <point x="234" y="293"/>
      <point x="-32" y="39" type="curve"/>
      <point x="-12" y="19"/>
      <point x="22" y="5"/>
      <point x="55" y="1" type="curve"/>
      <point x="71" y="17"/>
      <point x="587" y="557"/>
      <point x="606" y="583" type="curve"/>
      <point x="681" y="376"/>
      <point x="749" y="121"/>
      <point x="779" y="-15" type="curve"/>
      <point x="807" y="-14"/>
      <point x="839" y="-9"/>
      <point x="873" y="10" type="curve"/>
      <point x="825" y="181"/>
      <point x="702" y="550"/>
      <point x="666" y="639" type="curve"/>
      <point x="721" y="685"/>
      <point x="1031" y="1016"/>
      <point x="1206" y="1272" type="curve"/>
      <point x="1188" y="1285"/>
      <point x="1152" y="1299"/>
      <point x="1124" y="1308" type="curve"/>
      <point x="1087" y="1251"/>
      <point x="862" y="933"/>
      <point x="642" y="714" type="curve"/>
      <point x="543" y="1046"/>
      <point x="455" y="1253"/>
      <point x="419" y="1328" type="curve"/>
      <point x="390" y="1323"/>
      <point x="360" y="1312"/>
      <point x="322" y="1297" type="curve"/>
      <point x="358" y="1231"/>
      <point x="500" y="909"/>
    </contour>
  </outline>
</glyph>
<glyph name="Z" format="2">
  <advance width="1044"/>
  <unicode hex="005A"/>
  <anchor x="379.585" y="0" name="bottom"/>
  <anchor x="552.68" y="646" name="center"/>
  <anchor x="725.507" y="1291" name="top"/>
  <outline>
    <contour>
      <point x="799" y="-14" type="curve"/>
      <point x="804" y="-3"/>
      <point x="813" y="18"/>
      <point x="820" y="37" type="curve" smooth="yes"/>
      <point x="826" y="54"/>
      <point x="832" y="71"/>
      <point x="835" y="85" type="curve"/>
      <point x="784" y="83"/>
      <point x="717" y="82"/>
      <point x="644" y="82" type="curve" smooth="yes"/>
      <point x="446" y="82"/>
      <point x="214" y="89"/>
      <point x="103" y="98" type="curve"/>
      <point x="228" y="206"/>
      <point x="862" y="869"/>
      <point x="1158" y="1261" type="curve"/>
      <point x="1162" y="1272"/>
      <point x="1166" y="1286"/>
      <point x="1171" y="1304" type="curve" smooth="yes"/>
      <point x="1173" y="1310"/>
      <point x="1176" y="1325"/>
      <point x="1177" y="1330" type="curve"/>
      <point x="1138" y="1330"/>
      <point x="1000" y="1327"/>
      <point x="979" y="1326" type="curve" smooth="yes"/>
      <point x="802" y="1320"/>
      <point x="583" y="1307"/>
      <point x="379" y="1294" type="curve"/>
      <point x="376" y="1286"/>
      <point x="371" y="1269"/>
      <point x="367" y="1251" type="curve" smooth="yes"/>
      <point x="363" y="1234"/>
      <point x="359" y="1217"/>
      <point x="357" y="1209" type="curve"/>
      <point x="600" y="1229"/>
      <point x="983" y="1255"/>
      <point x="1058" y="1256" type="curve"/>
      <point x="899" y="1058"/>
      <point x="252" y="325"/>
      <point x="-7" y="96" type="curve"/>
      <point x="-11" y="79"/>
      <point x="-20" y="39"/>
      <point x="-23" y="22" type="curve"/>
      <point x="289" y="-5"/>
      <point x="563" y="-14"/>
    </contour>
  </outline>
</glyph>
<glyph name="asciicircum" format="2">
  <advance width="1032"/>
  <unicode hex="005E"/>
  <outline>
    <contour>
      <point x="892" y="1245"/>
      <point x="827" y="1325" type="curve"/>
      <point x="820" y="1327"/>
      <point x="801" y="1331"/>
      <point x="779" y="1331" type="curve" smooth="yes"/>
      <point x="763" y="1331"/>
      <point x="744" y="1330"/>
      <point x="728" y="1326" type="curve"/>
      <point x="583" y="1217"/>
      <point x="284" y="976"/>
      <point x="114" y="812" type="curve"/>
      <point x="122" y="800"/>
      <point x="145" y="780"/>
      <point x="159" y="769" type="curve"/>
      <point x="267" y="869"/>
      <point x="647" y="1185"/>
      <point x="791" y="1295" type="curve"/>
      <point x="766" y="1289" type="line"/>
      <point x="820" y="1245"/>
      <point x="1008" y="857"/>
      <point x="1028" y="766" type="curve"/>
      <point x="1046" y="775"/>
      <point x="1069" y="788"/>
      <point x="1088" y="805" type="curve"/>
      <point x="1049" y="965"/>
    </contour>
  </outline>
</glyph>
<glyph name="a" format="2">
  <advance width="1295"/>
  <unicode hex="0061"/>
  <anchor x="476" y="0" name="bottom"/>
  <anchor x="1046" y="10" name="ogonek"/>
  <anchor x="750" y="1063" name="top"/>
  <outline>
    <contour>
      <point x="415" y="-24" type="curve" smooth="yes"/>
      <point x="606" y="-24"/>
      <point x="813" y="75"/>
      <point x="881" y="145" type="curve"/>
      <point x="881" y="46"/>
      <point x="914" y="0"/>
      <point x="1001" y="0" type="curve" smooth="yes"/>
      <point x="1086" y="0"/>
      <point x="1186" y="73"/>
      <point x="1230" y="236" type="curve"/>
      <point x="1145" y="249" type="line"/>
      <point x="1118" y="149"/>
      <point x="1069" y="92"/>
      <point x="1019" y="92" type="curve" smooth="yes"/>
      <point x="989" y="92"/>
      <point x="973" y="100"/>
      <point x="973" y="141" type="curve" smooth="yes"/>
      <point x="973" y="234"/>
      <point x="1015" y="379"/>
      <point x="1054" y="513" type="curve" smooth="yes"/>
      <point x="1076" y="590"/>
      <point x="1089" y="662"/>
      <point x="1089" y="719" type="curve" smooth="yes"/>
      <point x="1089" y="939"/>
      <point x="935" y="1055"/>
      <point x="707" y="1055" type="curve" smooth="yes"/>
      <point x="491" y="1055"/>
      <point x="306" y="956"/>
      <point x="187" y="822" type="curve"/>
      <point x="251" y="767" type="line"/>
      <point x="350" y="881"/>
      <point x="495" y="975"/>
      <point x="689" y="975" type="curve" smooth="yes"/>
      <point x="867" y="975"/>
      <point x="1009" y="904"/>
      <point x="1009" y="742" type="curve" smooth="yes"/>
      <point x="1009" y="688"/>
      <point x="1006" y="658"/>
      <point x="996" y="611" type="curve"/>
      <point x="966" y="621"/>
      <point x="797" y="665"/>
      <point x="636" y="665" type="curve" smooth="yes"/>
      <point x="336" y="665"/>
      <point x="44" y="542"/>
      <point x="44" y="259" type="curve" smooth="yes"/>
      <point x="44" y="66"/>
      <point x="183" y="-24"/>
    </contour>
    <contour>
      <point x="432" y="55" type="curve" smooth="yes"/>
      <point x="237" y="55"/>
      <point x="132" y="112"/>
      <point x="132" y="273" type="curve" smooth="yes"/>
      <point x="132" y="486"/>
      <point x="380" y="586"/>
      <point x="612" y="586" type="curve" smooth="yes"/>
      <point x="796" y="586"/>
      <point x="930" y="545"/>
      <point x="973" y="530" type="curve"/>
      <point x="948" y="448"/>
      <point x="925" y="372"/>
      <point x="892" y="250" type="curve"/>
      <point x="767" y="135"/>
      <point x="596" y="55"/>
    </contour>
  </outline>
</glyph>
<glyph name="b" format="2">
  <advance width="1200"/>
  <unicode hex="0062"/>
  <anchor x="438" y="0" name="bottom"/>
  <anchor x="831" y="1470" name="top"/>
  <outline>
    <contour>
      <point x="107" y="-22" type="curve"/>
      <point x="129" y="-22"/>
      <point x="193" y="-20"/>
      <point x="208" y="-19" type="curve"/>
      <point x="214" y="12"/>
      <point x="229" y="74"/>
      <point x="239" y="113" type="curve"/>
      <point x="273" y="76"/>
      <point x="366" y="6"/>
      <point x="532" y="6" type="curve" smooth="yes"/>
      <point x="882" y="6"/>
      <point x="1056" y="295"/>
      <point x="1056" y="558" type="curve" smooth="yes"/>
      <point x="1056" y="791"/>
      <point x="990" y="923"/>
      <point x="757" y="923" type="curve" smooth="yes"/>
      <point x="557" y="923"/>
      <point x="399" y="774"/>
      <point x="374" y="744" type="curve"/>
      <point x="427" y="991"/>
      <point x="487" y="1268"/>
      <point x="526" y="1432" type="curve"/>
      <point x="505" y="1432"/>
      <point x="461" y="1430"/>
      <point x="442" y="1427" type="curve"/>
      <point x="385" y="1215"/>
      <point x="138" y="142"/>
    </contour>
    <contour>
      <point x="265" y="219" type="curve"/>
      <point x="274" y="258"/>
      <point x="339" y="573"/>
      <point x="347" y="616" type="curve"/>
      <point x="427" y="699"/>
      <point x="588" y="844"/>
      <point x="741" y="844" type="curve" smooth="yes"/>
      <point x="923" y="844"/>
      <point x="962" y="743"/>
      <point x="962" y="546" type="curve" smooth="yes"/>
      <point x="962" y="295"/>
      <point x="804" y="88"/>
      <point x="548" y="88" type="curve" smooth="yes"/>
      <point x="373" y="88"/>
      <point x="286" y="183"/>
    </contour>
  </outline>
</glyph>
<glyph name="c" format="2">
  <advance width="1026"/>
  <unicode hex="0063"/>
  <anchor x="399" y="0" name="bottom"/>
  <anchor x="645" y="1063" name="top"/>
  <outline>
    <contour>
      <point x="844" y="203" type="curve"/>
      <point x="783" y="246" type="line"/>
      <point x="766" y="216"/>
      <point x="640" y="73"/>
      <point x="434" y="73" type="curve" smooth="yes"/>
      <point x="244" y="73"/>
      <point x="172" y="195"/>
      <point x="172" y="368" type="curve" smooth="yes"/>
      <point x="172" y="695"/>
      <point x="367" y="1023"/>
      <point x="677" y="1023" type="curve" smooth="yes"/>
      <point x="905" y="1023"/>
      <point x="932" y="861"/>
      <point x="936" y="821" type="curve"/>
      <point x="1008" y="880" type="line"/>
      <point x="991" y="980"/>
      <point x="879" y="1094"/>
      <point x="695" y="1094" type="curve" smooth="yes"/>
      <point x="325" y="1094"/>
      <point x="82" y="757"/>
      <point x="82" y="370" type="curve" smooth="yes"/>
      <point x="82" y="154"/>
      <point x="186" y="-4"/>
      <point x="415" y="-4" type="curve" smooth="yes"/>
      <point x="616" y="-4"/>
      <point x="782" y="113"/>
    </contour>
  </outline>
</glyph>
<glyph name="d" format="2">
  <advance width="1195"/>
  <unicode hex="0064"/>
  <anchor x="455.585" y="0" name="bottom"/>
  <anchor x="1086" y="1222" name="center"/>
  <anchor x="849.47" y="1470" name="top"/>
  <anchor x="1218" y="998" name="topright"/>
  <outline>
    <contour>
      <point x="791" y="3" type="curve"/>
      <point x="799" y="2"/>
      <point x="847" y="1"/>
      <point x="874" y="1" type="curve"/>
      <point x="996" y="456"/>
      <point x="1125" y="923"/>
      <point x="1291" y="1397" type="curve"/>
      <point x="1273" y="1398"/>
      <point x="1237" y="1400"/>
      <point x="1208" y="1400" type="curve"/>
      <point x="1176" y="1313"/>
      <point x="1051" y="944"/>
      <point x="1020" y="838" type="curve"/>
      <point x="984" y="872"/>
      <point x="873" y="959"/>
      <point x="662" y="959" type="curve" smooth="yes"/>
      <point x="317" y="959"/>
      <point x="76" y="732"/>
      <point x="76" y="381" type="curve" smooth="yes"/>
      <point x="76" y="141"/>
      <point x="205" y="8"/>
      <point x="414" y="8" type="curve" smooth="yes"/>
      <point x="700" y="8"/>
      <point x="833" y="184"/>
      <point x="845" y="203" type="curve"/>
      <point x="837" y="174"/>
      <point x="802" y="44"/>
    </contour>
    <contour>
      <point x="439" y="85" type="curve" smooth="yes"/>
      <point x="273" y="85"/>
      <point x="162" y="183"/>
      <point x="162" y="393" type="curve" smooth="yes"/>
      <point x="162" y="697"/>
      <point x="353" y="878"/>
      <point x="659" y="878" type="curve" smooth="yes"/>
      <point x="842" y="878"/>
      <point x="956" y="790"/>
      <point x="994" y="749" type="curve"/>
      <point x="975" y="680"/>
      <point x="896" y="413"/>
      <point x="874" y="341" type="curve"/>
      <point x="848" y="303"/>
      <point x="686" y="85"/>
    </contour>
  </outline>
</glyph>
<glyph name="e" format="2">
  <advance width="1092"/>
  <unicode hex="0065"/>
  <anchor x="424" y="10" name="bottom"/>
  <anchor x="612" y="53" name="ogonek"/>
  <anchor x="728" y="1063" name="top"/>
  <outline>
    <contour>
      <point x="956" y="266" type="curve"/>
      <point x="953" y="284"/>
      <point x="922" y="319"/>
      <point x="908" y="333" type="curve"/>
      <point x="898" y="319"/>
      <point x="728" y="101"/>
      <point x="459" y="101" type="curve" smooth="yes"/>
      <point x="278" y="101"/>
      <point x="165" y="229"/>
      <point x="165" y="381" type="curve" smooth="yes"/>
      <point x="165" y="423"/>
      <point x="169" y="468"/>
      <point x="176" y="498" type="curve"/>
      <point x="258" y="509"/>
      <point x="485" y="523"/>
      <point x="629" y="528" type="curve" smooth="yes"/>
      <point x="781" y="533"/>
      <point x="966" y="535"/>
      <point x="985" y="535" type="curve"/>
      <point x="1006" y="615"/>
      <point x="1017" y="679"/>
      <point x="1017" y="746" type="curve" smooth="yes"/>
      <point x="1017" y="942"/>
      <point x="917" y="1070"/>
      <point x="714" y="1070" type="curve" smooth="yes"/>
      <point x="363" y="1070"/>
      <point x="85" y="799"/>
      <point x="85" y="419" type="curve" smooth="yes"/>
      <point x="85" y="165"/>
      <point x="222" y="27"/>
      <point x="453" y="27" type="curve" smooth="yes"/>
      <point x="731" y="27"/>
      <point x="904" y="207"/>
    </contour>
    <contour>
      <point x="188" y="578" type="curve"/>
      <point x="237" y="849"/>
      <point x="483" y="984"/>
      <point x="702" y="984" type="curve" smooth="yes"/>
      <point x="880" y="984"/>
      <point x="934" y="869"/>
      <point x="934" y="751" type="curve" smooth="yes"/>
      <point x="934" y="704"/>
      <point x="928" y="651"/>
      <point x="918" y="615" type="curve"/>
      <point x="907" y="615"/>
      <point x="779" y="612"/>
      <point x="658" y="609" type="curve" smooth="yes"/>
      <point x="451" y="604"/>
      <point x="255" y="589"/>
    </contour>
  </outline>
</glyph>
<glyph name="g" format="2">
  <advance width="1231"/>
  <unicode hex="0067"/>
  <anchor x="331.572" y="-530" name="bottom"/>
  <anchor x="758.415" y="1063" name="top"/>
  <outline>
    <contour>
      <point x="548" y="205" type="curve" smooth="yes"/>
      <point x="861" y="205"/>
      <point x="1094" y="424"/>
      <point x="1094" y="743" type="curve" smooth="yes"/>
      <point x="1094" y="807"/>
      <point x="1080" y="863"/>
      <point x="1053" y="910" type="curve"/>
      <point x="1117" y="964"/>
      <point x="1222" y="1049"/>
      <point x="1245" y="1067" type="curve"/>
      <point x="1233" y="1078"/>
      <point x="1197" y="1115"/>
      <point x="1187" y="1132" type="curve"/>
      <point x="1140" y="1094"/>
      <point x="1067" y="1029"/>
      <point x="1009" y="965" type="curve"/>
      <point x="949" y="1023"/>
      <point x="859" y="1056"/>
      <point x="741" y="1056" type="curve" smooth="yes"/>
      <point x="439" y="1056"/>
      <point x="192" y="827"/>
      <point x="192" y="531" type="curve" smooth="yes"/>
      <point x="192" y="465"/>
      <point x="207" y="399"/>
      <point x="243" y="343" type="curve"/>
      <point x="152" y="319"/>
      <point x="76" y="254"/>
      <point x="76" y="164" type="curve" smooth="yes"/>
      <point x="76" y="123"/>
      <point x="96" y="78"/>
      <point x="135" y="47" type="curve"/>
      <point x="-8" y="1"/>
      <point x="-125" y="-103"/>
      <point x="-125" y="-251" type="curve" smooth="yes"/>
      <point x="-125" y="-420"/>
      <point x="59" y="-499"/>
      <point x="313" y="-499" type="curve" smooth="yes"/>
      <point x="626" y="-499"/>
      <point x="883" y="-404"/>
      <point x="883" y="-128" type="curve" smooth="yes"/>
      <point x="883" y="5"/>
      <point x="762" y="72"/>
      <point x="577" y="72" type="curve" smooth="yes"/>
      <point x="485" y="72"/>
      <point x="393" y="72"/>
      <point x="301" y="72" type="curve" smooth="yes"/>
      <point x="213" y="72"/>
      <point x="166" y="123"/>
      <point x="166" y="176" type="curve" smooth="yes"/>
      <point x="166" y="227"/>
      <point x="211" y="268"/>
      <point x="284" y="293" type="curve"/>
      <point x="340" y="240"/>
      <point x="425" y="205"/>
    </contour>
    <contour>
      <point x="330" y="-429" type="curve" smooth="yes"/>
      <point x="132" y="-429"/>
      <point x="-32" y="-376"/>
      <point x="-32" y="-232" type="curve" smooth="yes"/>
      <point x="-32" y="-84"/>
      <point x="137" y="2"/>
      <point x="279" y="2" type="curve" smooth="yes"/>
      <point x="572" y="2" type="line" smooth="yes"/>
      <point x="675" y="2"/>
      <point x="791" y="-25"/>
      <point x="791" y="-148" type="curve" smooth="yes"/>
      <point x="791" y="-360"/>
      <point x="563" y="-429"/>
    </contour>
    <contour>
      <point x="542" y="282" type="curve" smooth="yes"/>
      <point x="370" y="282"/>
      <point x="281" y="394"/>
      <point x="281" y="540" type="curve" smooth="yes"/>
      <point x="281" y="802"/>
      <point x="481" y="974"/>
      <point x="748" y="974" type="curve" smooth="yes"/>
      <point x="924" y="974"/>
      <point x="1011" y="868"/>
      <point x="1011" y="723" type="curve" smooth="yes"/>
      <point x="1011" y="463"/>
      <point x="816" y="282"/>
    </contour>
  </outline>
</glyph>
<glyph name="h" format="2">
  <advance width="1123"/>
  <unicode hex="0068"/>
  <anchor x="380" y="0" name="bottom"/>
  <anchor x="512" y="1265" name="center"/>
  <anchor x="451" y="1398" name="top"/>
  <outline>
    <contour>
      <point x="113" y="-29" type="curve"/>
      <point x="151" y="60"/>
      <point x="241" y="349"/>
      <point x="304" y="585" type="curve"/>
      <point x="345" y="658"/>
      <point x="529" y="827"/>
      <point x="726" y="827" type="curve" smooth="yes"/>
      <point x="837" y="827"/>
      <point x="888" y="771"/>
      <point x="888" y="670" type="curve" smooth="yes"/>
      <point x="888" y="506"/>
      <point x="765" y="189"/>
      <point x="677" y="-11" type="curve"/>
      <point x="687" y="-13"/>
      <point x="706" y="-15"/>
      <point x="725" y="-15" type="curve" smooth="yes"/>
      <point x="744" y="-15"/>
      <point x="763" y="-15"/>
      <point x="777" y="-14" type="curve"/>
      <point x="868" y="216"/>
      <point x="976" y="508"/>
      <point x="976" y="669" type="curve" smooth="yes"/>
      <point x="976" y="824"/>
      <point x="908" y="909"/>
      <point x="752" y="909" type="curve" smooth="yes"/>
      <point x="587" y="909"/>
      <point x="414" y="812"/>
      <point x="337" y="716" type="curve"/>
      <point x="410" y="988"/>
      <point x="482" y="1292"/>
      <point x="492" y="1443" type="curve"/>
      <point x="476" y="1441"/>
      <point x="436" y="1431"/>
      <point x="415" y="1424" type="curve"/>
      <point x="376" y="1234"/>
      <point x="317" y="981"/>
      <point x="251" y="733" type="curve" smooth="yes"/>
      <point x="170" y="427"/>
      <point x="78" y="134"/>
      <point x="17" y="-26" type="curve"/>
      <point x="25" y="-27"/>
      <point x="44" y="-29"/>
      <point x="62" y="-29" type="curve" smooth="yes"/>
      <point x="80" y="-29"/>
      <point x="99" y="-29"/>
    </contour>
  </outline>
</glyph>
<glyph name="j" format="2">
  <advance width="610"/>
  <unicode hex="006A"/>
  <outline>
    <contour>
      <point x="133" y="-453"/>
      <point x="231" y="-170"/>
      <point x="317" y="154" type="curve" smooth="yes"/>
      <point x="385" y="409"/>
      <point x="444" y="731"/>
      <point x="462" y="1000" type="curve"/>
      <point x="380" y="992" type="line"/>
      <point x="348" y="710"/>
      <point x="300" y="419"/>
      <point x="236" y="178" type="curve" smooth="yes"/>
      <point x="168" y="-77"/>
      <point x="62" y="-377"/>
      <point x="-129" y="-377" type="curve" smooth="yes"/>
      <point x="-281" y="-377"/>
      <point x="-342" y="-219"/>
      <point x="-355" y="-102" type="curve"/>
      <point x="-382" y="-116"/>
      <point x="-426" y="-144"/>
      <point x="-448" y="-162" type="curve"/>
      <point x="-416" y="-337"/>
      <point x="-308" y="-453"/>
      <point x="-133" y="-453" type="curve" smooth="yes"/>
    </contour>
    <contour>
      <point x="483" y="1340" type="curve" smooth="yes"/>
      <point x="425" y="1340"/>
      <point x="383" y="1298"/>
      <point x="383" y="1243" type="curve" smooth="yes"/>
      <point x="383" y="1208"/>
      <point x="413" y="1185"/>
      <point x="449" y="1185" type="curve" smooth="yes"/>
      <point x="507" y="1185"/>
      <point x="548" y="1231"/>
      <point x="548" y="1277" type="curve" smooth="yes"/>
      <point x="548" y="1309"/>
      <point x="524" y="1340"/>
    </contour>
  </outline>
</glyph>
<glyph name="l" format="2">
  <advance width="645"/>
  <unicode hex="006C"/>
  <anchor x="165.585" y="0" name="bottom"/>
  <anchor x="362.528" y="735" name="center"/>
  <anchor x="559.47" y="1470" name="top"/>
  <anchor x="480" y="1027" name="topright"/>
  <outline>
    <contour>
      <point x="457" y="82" type="curve"/>
      <point x="453" y="92"/>
      <point x="424" y="129"/>
      <point x="412" y="139" type="curve"/>
      <point x="375" y="88"/>
      <point x="330" y="51"/>
      <point x="269" y="51" type="curve" smooth="yes"/>
      <point x="203" y="51"/>
      <point x="181" y="100"/>
      <point x="181" y="171" type="curve" smooth="yes"/>
      <point x="181" y="375"/>
      <point x="455" y="1205"/>
      <point x="529" y="1426" type="curve"/>
      <point x="517" y="1429"/>
      <point x="500" y="1431"/>
      <point x="481" y="1431" type="curve" smooth="yes"/>
      <point x="470" y="1431"/>
      <point x="454" y="1430"/>
      <point x="443" y="1429" type="curve"/>
      <point x="351" y="1149"/>
      <point x="98" y="378"/>
      <point x="98" y="149" type="curve" smooth="yes"/>
      <point x="98" y="38"/>
      <point x="141" y="-32"/>
      <point x="264" y="-32" type="curve" smooth="yes"/>
      <point x="359" y="-32"/>
      <point x="420" y="33"/>
    </contour>
  </outline>
</glyph>
<glyph name="p" format="2">
  <advance width="1199"/>
  <unicode hex="0070"/>
  <anchor x="457.585" y="0" name="bottom"/>
  <anchor x="742.415" y="1063" name="top"/>
  <outline>
    <contour>
      <point x="-144" y="-429" type="curve"/>
      <point x="-127" y="-429"/>
      <point x="-76" y="-427"/>
      <point x="-43" y="-420" type="curve"/>
      <point x="13" y="-293"/>
      <point x="179" y="176"/>
      <point x="201" y="242" type="curve"/>
      <point x="237" y="193"/>
      <point x="386" y="104"/>
      <point x="556" y="104" type="curve" smooth="yes"/>
      <point x="906" y="104"/>
      <point x="1125" y="402"/>
      <point x="1125" y="764" type="curve" smooth="yes"/>
      <point x="1125" y="970"/>
      <point x="1024" y="1085"/>
      <point x="815" y="1085" type="curve" smooth="yes"/>
      <point x="639" y="1085"/>
      <point x="474" y="993"/>
      <point x="409" y="935" type="curve"/>
      <point x="424" y="983"/>
      <point x="448" y="1064"/>
      <point x="453" y="1088" type="curve"/>
      <point x="425" y="1088"/>
      <point x="383" y="1084"/>
      <point x="359" y="1079" type="curve"/>
      <point x="259" y="707"/>
      <point x="46" y="32"/>
    </contour>
    <contour>
      <point x="562" y="188" type="curve" smooth="yes"/>
      <point x="376" y="188"/>
      <point x="261" y="286"/>
      <point x="225" y="323" type="curve"/>
      <point x="243" y="379"/>
      <point x="359" y="771"/>
      <point x="374" y="823" type="curve"/>
      <point x="420" y="868"/>
      <point x="608" y="1007"/>
      <point x="801" y="1007" type="curve" smooth="yes"/>
      <point x="964" y="1007"/>
      <point x="1033" y="921"/>
      <point x="1033" y="752" type="curve" smooth="yes"/>
      <point x="1033" y="450"/>
      <point x="879" y="188"/>
    </contour>
  </outline>
</glyph>
<glyph name="r" format="2">
  <advance width="853"/>
  <unicode hex="0072"/>
  <anchor x="284.585" y="0" name="bottom"/>
  <anchor x="569.415" y="1063" name="top"/>
  <outline>
    <contour>
      <point x="292" y="877" type="curve"/>
      <point x="294" y="918"/>
      <point x="294" y="1003"/>
      <point x="294" y="1054" type="curve"/>
      <point x="276" y="1053"/>
      <point x="226" y="1040"/>
      <point x="213" y="1034" type="curve"/>
      <point x="213" y="658"/>
      <point x="152" y="343"/>
      <point x="61" y="2" type="curve"/>
      <point x="85" y="-1"/>
      <point x="137" y="-2"/>
      <point x="157" y="-2" type="curve"/>
      <point x="193" y="134"/>
      <point x="273" y="555"/>
      <point x="286" y="773" type="curve"/>
      <point x="388" y="889"/>
      <point x="575" y="987"/>
      <point x="719" y="987" type="curve" smooth="yes"/>
      <point x="805" y="987"/>
      <point x="850" y="967"/>
      <point x="880" y="952" type="curve"/>
      <point x="921" y="1036" type="line"/>
      <point x="885" y="1054"/>
      <point x="802" y="1067"/>
      <point x="728" y="1067" type="curve" smooth="yes"/>
      <point x="581" y="1067"/>
      <point x="397" y="987"/>
    </contour>
  </outline>
</glyph>
<glyph name="s" format="2">
  <advance width="995"/>
  <unicode hex="0073"/>
  <anchor x="340" y="-60" name="bottom"/>
  <anchor x="657" y="1098" name="top"/>
  <outline>
    <contour>
      <point x="364" y="-84" type="curve" smooth="yes"/>
      <point x="626" y="-84"/>
      <point x="857" y="39"/>
      <point x="857" y="293" type="curve" smooth="yes"/>
      <point x="857" y="439"/>
      <point x="769" y="536"/>
      <point x="541" y="614" type="curve" smooth="yes"/>
      <point x="403" y="661"/>
      <point x="313" y="726"/>
      <point x="313" y="822" type="curve" smooth="yes"/>
      <point x="313" y="972"/>
      <point x="514" y="1029"/>
      <point x="661" y="1029" type="curve" smooth="yes"/>
      <point x="787" y="1029"/>
      <point x="878" y="986"/>
      <point x="941" y="949" type="curve"/>
      <point x="954" y="964"/>
      <point x="978" y="998"/>
      <point x="995" y="1027" type="curve"/>
      <point x="953" y="1061"/>
      <point x="846" y="1114"/>
      <point x="675" y="1114" type="curve" smooth="yes"/>
      <point x="475" y="1114"/>
      <point x="223" y="1023"/>
      <point x="223" y="816" type="curve" smooth="yes"/>
      <point x="223" y="657"/>
      <point x="335" y="599"/>
      <point x="527" y="529" type="curve" smooth="yes"/>
      <point x="684" y="472"/>
      <point x="767" y="407"/>
      <point x="767" y="283" type="curve" smooth="yes"/>
      <point x="767" y="93"/>
      <point x="568" y="-5"/>
      <point x="370" y="-5" type="curve" smooth="yes"/>
      <point x="198" y="-5"/>
      <point x="63" y="99"/>
      <point x="16" y="210" type="curve"/>
      <point x="-1" y="195"/>
      <point x="-41" y="159"/>
      <point x="-67" y="135" type="curve"/>
      <point x="15" y="-2"/>
      <point x="208" y="-84"/>
    </contour>
  </outline>
</glyph>
<glyph name="t" format="2">
  <advance width="964"/>
  <unicode hex="0074"/>
  <anchor x="494" y="-33" name="bottom"/>
  <anchor x="442" y="532" name="center"/>
  <anchor x="624" y="1436" name="top"/>
  <anchor x="685" y="1186" name="topright"/>
  <outline>
    <contour>
      <point x="725" y="241" type="curve"/>
      <point x="714" y="244"/>
      <point x="660" y="261"/>
      <point x="649" y="265" type="curve"/>
      <point x="624" y="191"/>
      <point x="554" y="41"/>
      <point x="445" y="41" type="curve" smooth="yes"/>
      <point x="380" y="41"/>
      <point x="356" y="93"/>
      <point x="356" y="175" type="curve" smooth="yes"/>
      <point x="356" y="332"/>
      <point x="516" y="863"/>
      <point x="549" y="969" type="curve"/>
      <point x="607" y="973"/>
      <point x="685" y="976"/>
      <point x="745" y="976" type="curve" smooth="yes"/>
      <point x="828" y="976"/>
      <point x="925" y="970"/>
      <point x="938" y="969" type="curve"/>
      <point x="941" y="979"/>
      <point x="950" y="1021"/>
      <point x="950" y="1031" type="curve"/>
      <point x="935" y="1032"/>
      <point x="813" y="1037"/>
      <point x="710" y="1037" type="curve" smooth="yes"/>
      <point x="673" y="1037"/>
      <point x="603" y="1034"/>
      <point x="566" y="1032" type="curve"/>
      <point x="577" y="1066"/>
      <point x="588" y="1106"/>
      <point x="599" y="1146" type="curve" smooth="yes"/>
      <point x="634" y="1276"/>
      <point x="663" y="1413"/>
      <point x="663" y="1431" type="curve"/>
      <point x="586" y="1436" type="line"/>
      <point x="578" y="1392"/>
      <point x="564" y="1332"/>
      <point x="547" y="1268" type="curve" smooth="yes"/>
      <point x="525" y="1187"/>
      <point x="499" y="1099"/>
      <point x="473" y="1024" type="curve"/>
      <point x="375" y="1017"/>
      <point x="247" y="998"/>
      <point x="172" y="986" type="curve"/>
      <point x="167" y="968"/>
      <point x="159" y="928"/>
      <point x="159" y="914" type="curve"/>
      <point x="181" y="920"/>
      <point x="294" y="942"/>
      <point x="455" y="957" type="curve"/>
      <point x="432" y="882"/>
      <point x="273" y="355"/>
      <point x="273" y="167" type="curve" smooth="yes"/>
      <point x="273" y="45"/>
      <point x="314" y="-33"/>
      <point x="433" y="-33" type="curve" smooth="yes"/>
      <point x="598" y="-33"/>
      <point x="680" y="123"/>
    </contour>
  </outline>
</glyph>
<glyph name="w" format="2">
  <advance width="1520"/>
  <unicode hex="0077"/>
  <anchor x="617.585" y="0" name="bottom"/>
  <anchor x="902.415" y="1063" name="top"/>
  <outline>
    <contour>
      <point x="327" y="7" type="curve" smooth="yes"/>
      <point x="466" y="7"/>
      <point x="607" y="130"/>
      <point x="684" y="310" type="curve"/>
      <point x="689" y="171"/>
      <point x="723" y="14"/>
      <point x="893" y="14" type="curve" smooth="yes"/>
      <point x="1168" y="14"/>
      <point x="1350" y="510"/>
      <point x="1444" y="853" type="curve" smooth="yes"/>
      <point x="1461" y="915"/>
      <point x="1475" y="978"/>
      <point x="1488" y="1039" type="curve"/>
      <point x="1472" y="1041"/>
      <point x="1457" y="1042"/>
      <point x="1442" y="1042" type="curve" smooth="yes"/>
      <point x="1431" y="1042"/>
      <point x="1420" y="1042"/>
      <point x="1407" y="1041" type="curve"/>
      <point x="1399" y="1003"/>
      <point x="1379" y="916"/>
      <point x="1368" y="876" type="curve" smooth="yes"/>
      <point x="1264" y="489"/>
      <point x="1091" y="91"/>
      <point x="894" y="91" type="curve" smooth="yes"/>
      <point x="804" y="91"/>
      <point x="773" y="162"/>
      <point x="773" y="274" type="curve" smooth="yes"/>
      <point x="773" y="435"/>
      <point x="841" y="691"/>
      <point x="936" y="1036" type="curve"/>
      <point x="920" y="1039"/>
      <point x="872" y="1040"/>
      <point x="849" y="1040" type="curve"/>
      <point x="838" y="993"/>
      <point x="817" y="904"/>
      <point x="804" y="856" type="curve" smooth="yes"/>
      <point x="690" y="432"/>
      <point x="529" y="92"/>
      <point x="345" y="92" type="curve" smooth="yes"/>
      <point x="258" y="92"/>
      <point x="223" y="163"/>
      <point x="223" y="274" type="curve" smooth="yes"/>
      <point x="223" y="464"/>
      <point x="337" y="815"/>
      <point x="432" y="1056" type="curve"/>
      <point x="413" y="1058"/>
      <point x="363" y="1058"/>
      <point x="344" y="1058" type="curve"/>
      <point x="243" y="786"/>
      <point x="138" y="476"/>
      <point x="138" y="261" type="curve" smooth="yes"/>
      <point x="138" y="108"/>
      <point x="191" y="7"/>
    </contour>
  </outline>
</glyph>
<glyph name="x" format="2">
  <advance width="1142"/>
  <unicode hex="0078"/>
  <anchor x="428.585" y="0" name="bottom"/>
  <anchor x="713.415" y="1063" name="top"/>
  <outline>
    <contour>
      <point x="42" y="0" type="curve"/>
      <point x="136" y="72"/>
      <point x="471" y="399"/>
      <point x="630" y="560" type="curve"/>
      <point x="687" y="452"/>
      <point x="800" y="132"/>
      <point x="820" y="-15" type="curve"/>
      <point x="846" y="-5"/>
      <point x="897" y="24"/>
      <point x="907" y="34" type="curve"/>
      <point x="878" y="169"/>
      <point x="755" y="491"/>
      <point x="691" y="610" type="curve"/>
      <point x="856" y="756"/>
      <point x="1066" y="998"/>
      <point x="1162" y="1120" type="curve"/>
      <point x="1150" y="1130"/>
      <point x="1100" y="1147"/>
      <point x="1083" y="1152" type="curve"/>
      <point x="989" y="1021"/>
      <point x="816" y="835"/>
      <point x="652" y="680" type="curve"/>
      <point x="605" y="789"/>
      <point x="384" y="1056"/>
      <point x="306" y="1142" type="curve"/>
      <point x="276" y="1125"/>
      <point x="249" y="1105"/>
      <point x="228" y="1085" type="curve"/>
      <point x="322" y="986"/>
      <point x="508" y="784"/>
      <point x="595" y="619" type="curve"/>
      <point x="433" y="466"/>
      <point x="50" y="109"/>
      <point x="-13" y="58" type="curve"/>
      <point x="-10" y="49"/>
      <point x="21" y="18"/>
    </contour>
  </outline>
</glyph>
<glyph name="y" format="2">
  <advance width="1079"/>
  <unicode hex="0079"/>
  <anchor x="397.585" y="0" name="bottom"/>
  <anchor x="682.415" y="1063" name="top"/>
  <outline>
    <contour>
      <point x="153" y="-529" type="curve" smooth="yes"/>
      <point x="458" y="-529"/>
      <point x="662" y="-277"/>
      <point x="768" y="56" type="curve" smooth="yes"/>
      <point x="850" y="314"/>
      <point x="945" y="615"/>
      <point x="999" y="815" type="curve" smooth="yes"/>
      <point x="1014" y="871"/>
      <point x="1026" y="919"/>
      <point x="1034" y="956" type="curve"/>
      <point x="1027" y="959"/>
      <point x="1011" y="960"/>
      <point x="995" y="960" type="curve" smooth="yes"/>
      <point x="980" y="960"/>
      <point x="965" y="959"/>
      <point x="954" y="957" type="curve"/>
      <point x="949" y="937"/>
      <point x="857" y="627"/>
      <point x="799" y="474" type="curve" smooth="yes"/>
      <point x="706" y="228"/>
      <point x="554" y="123"/>
      <point x="392" y="123" type="curve" smooth="yes"/>
      <point x="267" y="123"/>
      <point x="226" y="213"/>
      <point x="226" y="337" type="curve" smooth="yes"/>
      <point x="226" y="506"/>
      <point x="313" y="803"/>
      <point x="380" y="991" type="curve"/>
      <point x="375" y="993"/>
      <point x="363" y="993"/>
      <point x="349" y="993" type="curve" smooth="yes"/>
      <point x="329" y="993"/>
      <point x="305" y="992"/>
      <point x="293" y="990" type="curve"/>
      <point x="215" y="748"/>
      <point x="142" y="498"/>
      <point x="142" y="314" type="curve" smooth="yes"/>
      <point x="142" y="146"/>
      <point x="204" y="43"/>
      <point x="367" y="43" type="curve" smooth="yes"/>
      <point x="589" y="43"/>
      <point x="694" y="159"/>
      <point x="737" y="234" type="curve"/>
      <point x="640" y="-128"/>
      <point x="451" y="-451"/>
      <point x="166" y="-451" type="curve" smooth="yes"/>
      <point x="27" y="-451"/>
      <point x="-95" y="-371"/>
      <point x="-125" y="-338" type="curve"/>
      <point x="-147" y="-358"/>
      <point x="-185" y="-399"/>
      <point x="-194" y="-412" type="curve"/>
      <point x="-146" y="-457"/>
      <point x="-16" y="-529"/>
    </contour>
  </outline>
</glyph>
<glyph name="z" format="2">
  <advance width="1074"/>
  <unicode hex="007A"/>
  <anchor x="355" y="0" name="bottom"/>
  <anchor x="497" y="532" name="center"/>
  <anchor x="639" y="1063" name="top"/>
  <outline>
    <contour>
      <point x="840" y="7" type="curve"/>
      <point x="850" y="22"/>
      <point x="871" y="82"/>
      <point x="876" y="104" type="curve"/>
      <point x="794" y="94"/>
      <point x="603" y="89"/>
      <point x="427" y="89" type="curve" smooth="yes"/>
      <point x="260" y="89"/>
      <point x="126" y="94"/>
      <point x="87" y="103" type="curve"/>
      <point x="215" y="229"/>
      <point x="935" y="836"/>
      <point x="1087" y="946" type="curve"/>
      <point x="1090" y="959"/>
      <point x="1105" y="1029"/>
      <point x="1105" y="1036" type="curve"/>
      <point x="975" y="1042"/>
      <point x="854" y="1044"/>
      <point x="746" y="1044" type="curve" smooth="yes"/>
      <point x="470" y="1044"/>
      <point x="282" y="1029"/>
      <point x="239" y="1024" type="curve"/>
      <point x="214" y="944" type="line"/>
      <point x="239" y="950"/>
      <point x="504" y="958"/>
      <point x="721" y="958" type="curve" smooth="yes"/>
      <point x="839" y="958"/>
      <point x="937" y="956"/>
      <point x="960" y="950" type="curve"/>
      <point x="908" y="908"/>
      <point x="125" y="266"/>
      <point x="-23" y="128" type="curve"/>
      <point x="-58" y="12" type="line"/>
      <point x="71" y="1"/>
      <point x="246" y="-3"/>
      <point x="421" y="-3" type="curve" smooth="yes"/>
      <point x="569" y="-3"/>
      <point x="722" y="2"/>
    </contour>
  </outline>
</glyph>
<glyph name="bar" format="2">
  <advance width="487"/>
  <unicode hex="007C"/>
  <outline>
    <contour>
      <point x="-21" y="-560" type="curve"/>
      <point x="2" y="-495"/>
      <point x="55" y="-305"/>
      <point x="121" y="-59" type="curve" smooth="yes"/>
      <point x="252" y="428"/>
      <point x="432" y="1136"/>
      <point x="525" y="1530" type="curve"/>
      <point x="502" y="1530"/>
      <point x="480" y="1529"/>
      <point x="466" y="1526" type="curve"/>
      <point x="355" y="1143"/>
      <point x="258" y="793"/>
      <point x="175" y="486" type="curve" smooth="yes"/>
      <point x="53" y="33"/>
      <point x="-34" y="-325"/>
      <point x="-84" y="-555" type="curve"/>
      <point x="-72" y="-557"/>
      <point x="-33" y="-560"/>
    </contour>
  </outline>
</glyph>
<glyph name="braceright" format="2">
  <advance width="614"/>
  <unicode hex="007D"/>
  <outline>
    <contour>
      <point x="-101" y="-352" type="curve"/>
      <point x="122" y="-343"/>
      <point x="254" y="-170"/>
      <point x="303" y="11" type="curve" smooth="yes"/>
      <point x="320" y="73"/>
      <point x="323" y="114"/>
      <point x="323" y="154" type="curve" smooth="yes"/>
      <point x="323" y="193"/>
      <point x="327" y="230"/>
      <point x="342" y="286" type="curve" smooth="yes"/>
      <point x="379" y="421"/>
      <point x="476" y="550"/>
      <point x="602" y="567" type="curve"/>
      <point x="607" y="574"/>
      <point x="614" y="585"/>
      <point x="618" y="601" type="curve" smooth="yes"/>
      <point x="623" y="619"/>
      <point x="623" y="635"/>
      <point x="623" y="642" type="curve"/>
      <point x="512" y="662"/>
      <point x="426" y="704"/>
      <point x="426" y="794" type="curve" smooth="yes"/>
      <point x="426" y="862"/>
      <point x="460" y="930"/>
      <point x="498" y="1006" type="curve" smooth="yes"/>
      <point x="543" y="1096"/>
      <point x="593" y="1196"/>
      <point x="593" y="1315" type="curve" smooth="yes"/>
      <point x="593" y="1440"/>
      <point x="544" y="1539"/>
      <point x="418" y="1547" type="curve"/>
      <point x="410" y="1533"/>
      <point x="399" y="1504"/>
      <point x="396" y="1491" type="curve"/>
      <point x="499" y="1481"/>
      <point x="526" y="1397"/>
      <point x="526" y="1301" type="curve" smooth="yes"/>
      <point x="526" y="1180"/>
      <point x="480" y="1095"/>
      <point x="436" y="1015" type="curve" smooth="yes"/>
      <point x="395" y="941"/>
      <point x="357" y="872"/>
      <point x="357" y="783" type="curve" smooth="yes"/>
      <point x="357" y="652"/>
      <point x="485" y="618"/>
      <point x="561" y="606" type="curve"/>
      <point x="565" y="612" type="line"/>
      <point x="451" y="607"/>
      <point x="324" y="470"/>
      <point x="277" y="295" type="curve" smooth="yes"/>
      <point x="261" y="234"/>
      <point x="258" y="192"/>
      <point x="258" y="150" type="curve" smooth="yes"/>
      <point x="258" y="111"/>
      <point x="256" y="72"/>
      <point x="241" y="17" type="curve" smooth="yes"/>
      <point x="198" y="-144"/>
      <point x="80" y="-292"/>
      <point x="-111" y="-303" type="curve"/>
      <point x="-111" y="-320"/>
      <point x="-108" y="-338"/>
    </contour>
  </outline>
</glyph>
<glyph name="asciitilde" format="2">
  <advance width="1115"/>
  <unicode hex="007E"/>
  <outline>
    <contour>
      <point x="242" y="722" type="curve"/>
      <point x="309" y="682" type="line"/>
      <point x="340" y="761"/>
      <point x="400" y="832"/>
      <point x="482" y="832" type="curve" smooth="yes"/>
      <point x="530" y="832"/>
      <point x="569" y="789"/>
      <point x="611" y="742" type="curve" smooth="yes"/>
      <point x="663" y="683"/>
      <point x="722" y="617"/>
      <point x="813" y="617" type="curve" smooth="yes"/>
      <point x="929" y="617"/>
      <point x="996" y="733"/>
      <point x="1013" y="786" type="curve"/>
      <point x="936" y="815" type="line"/>
      <point x="915" y="745"/>
      <point x="874" y="690"/>
      <point x="812" y="690" type="curve" smooth="yes"/>
      <point x="745" y="690"/>
      <point x="700" y="739"/>
      <point x="656" y="790" type="curve" smooth="yes"/>
      <point x="609" y="845"/>
      <point x="558" y="899"/>
      <point x="478" y="899" type="curve" smooth="yes"/>
      <point x="360" y="899"/>
      <point x="269" y="797"/>
    </contour>
  </outline>
</glyph>
<glyph name="exclamdown" format="2">
  <advance width="708"/>
  <unicode hex="00A1"/>
  <outline>
    <contour>
      <point x="413" y="725" type="curve"/>
      <point x="336" y="438"/>
      <point x="154" y="-189"/>
      <point x="69" y="-401" type="curve"/>
      <point x="147" y="-406" type="line"/>
      <point x="211" y="-252"/>
      <point x="394" y="400"/>
      <point x="480" y="721" type="curve"/>
      <point x="474" y="723"/>
      <point x="425" y="725"/>
    </contour>
    <contour>
      <point x="518" y="1093" type="curve" smooth="yes"/>
      <point x="448" y="1093"/>
      <point x="387" y="1039"/>
      <point x="387" y="966" type="curve" smooth="yes"/>
      <point x="387" y="913"/>
      <point x="425" y="880"/>
      <point x="481" y="880" type="curve" smooth="yes"/>
      <point x="552" y="880"/>
      <point x="620" y="924"/>
      <point x="620" y="1002" type="curve" smooth="yes"/>
      <point x="620" y="1053"/>
      <point x="586" y="1093"/>
    </contour>
  </outline>
</glyph>
<glyph name="sterling" format="2">
  <advance width="1140"/>
  <unicode hex="00A3"/>
  <outline>
    <contour>
      <point x="242" y="620" type="curve" smooth="yes"/>
      <point x="423" y="620"/>
      <point x="726" y="639"/>
      <point x="821" y="665" type="curve"/>
      <point x="830" y="697"/>
      <point x="834" y="720"/>
      <point x="834" y="745" type="curve"/>
      <point x="735" y="725"/>
      <point x="421" y="703"/>
      <point x="234" y="703" type="curve" smooth="yes"/>
      <point x="196" y="703"/>
      <point x="166" y="704"/>
      <point x="142" y="706" type="curve"/>
      <point x="121" y="626" type="line"/>
      <point x="143" y="622"/>
      <point x="185" y="620"/>
    </contour>
    <component base="sterlira"/>
  </outline>
</glyph>
<glyph name="currency" format="2">
  <advance width="974"/>
  <unicode hex="00A4"/>
  <outline>
    <contour>
      <point x="7" y="106" type="curve"/>
      <point x="106" y="185"/>
      <point x="235" y="295"/>
      <point x="288" y="345" type="curve"/>
      <point x="232" y="393" type="line"/>
      <point x="140" y="323"/>
      <point x="36" y="241"/>
      <point x="-45" y="171" type="curve"/>
      <point x="-26" y="145"/>
      <point x="-13" y="129"/>
    </contour>
    <contour>
      <point x="708" y="135" type="curve"/>
      <point x="739" y="155"/>
      <point x="754" y="168"/>
      <point x="770" y="193" type="curve"/>
      <point x="730" y="241"/>
      <point x="682" y="297"/>
      <point x="636" y="349" type="curve"/>
      <point x="572" y="309" type="line"/>
      <point x="606" y="274"/>
      <point x="656" y="207"/>
    </contour>
    <contour>
      <point x="322" y="704" type="curve"/>
      <point x="382" y="757" type="line"/>
      <point x="343" y="834"/>
      <point x="295" y="909"/>
      <point x="246" y="964" type="curve"/>
      <point x="221" y="950"/>
      <point x="185" y="926"/>
      <point x="166" y="913" type="curve"/>
      <point x="213" y="843"/>
      <point x="263" y="771"/>
    </contour>
    <contour>
      <point x="728" y="713" type="line"/>
      <point x="800" y="758"/>
      <point x="900" y="822"/>
      <point x="991" y="892" type="curve"/>
      <point x="982" y="915"/>
      <point x="964" y="939"/>
      <point x="945" y="956" type="curve"/>
      <point x="854" y="884"/>
      <point x="764" y="814"/>
      <point x="696" y="764" type="curve"/>
    </contour>
    <component base="degree" xOffset="-126" yOffset="-656"/>
  </outline>
</glyph>
<glyph name="yen" format="2">
  <advance width="1065"/>
  <unicode hex="00A5"/>
  <anchor x="397" y="0" name="bottom"/>
  <anchor x="743" y="1291" name="top"/>
  <anchor x="230" y="1291" name="topleft"/>
  <outline>
    <contour>
      <point x="121" y="476" type="curve"/>
      <point x="243" y="479"/>
      <point x="782" y="488"/>
      <point x="876" y="488" type="curve"/>
      <point x="880" y="503"/>
      <point x="882" y="522"/>
      <point x="882" y="545" type="curve"/>
      <point x="812" y="555"/>
      <point x="701" y="559"/>
      <point x="577" y="559" type="curve" smooth="yes"/>
      <point x="393" y="559"/>
      <point x="301" y="554"/>
      <point x="155" y="544" type="curve"/>
      <point x="145" y="527"/>
      <point x="127" y="493"/>
    </contour>
    <contour>
      <point x="823" y="285" type="curve"/>
      <point x="829" y="297"/>
      <point x="836" y="315"/>
      <point x="844" y="345" type="curve"/>
      <point x="779" y="347"/>
      <point x="695" y="348"/>
      <point x="603" y="348" type="curve" smooth="yes"/>
      <point x="390" y="348"/>
      <point x="256" y="346"/>
      <point x="84" y="336" type="curve"/>
      <point x="72" y="318"/>
      <point x="60" y="293"/>
      <point x="56" y="278" type="curve"/>
      <point x="151" y="280"/>
      <point x="725" y="285"/>
    </contour>
    <component base="Y" xOffset="-14"/>
  </outline>
</glyph>
<glyph name="section" format="2">
  <advance width="1000"/>
  <unicode hex="00A7"/>
  <outline>
    <contour>
      <point x="583" y="781" type="curve"/>
      <point x="517" y="847" type="line"/>
      <point x="331" y="820"/>
      <point x="152" y="714"/>
      <point x="152" y="538" type="curve" smooth="yes"/>
      <point x="152" y="401"/>
      <point x="287" y="342"/>
      <point x="463" y="280" type="curve" smooth="yes"/>
      <point x="621" y="224"/>
      <point x="692" y="170"/>
      <point x="692" y="52" type="curve" smooth="yes"/>
      <point x="692" y="-140"/>
      <point x="499" y="-266"/>
      <point x="303" y="-266" type="curve" smooth="yes"/>
      <point x="131" y="-266"/>
      <point x="-37" y="-172"/>
      <point x="-83" y="-61" type="curve"/>
      <point x="-109" y="-76"/>
      <point x="-137" y="-105"/>
      <point x="-156" y="-136" type="curve"/>
      <point x="-56" y="-283"/>
      <point x="162" y="-345"/>
      <point x="298" y="-345" type="curve" smooth="yes"/>
      <point x="555" y="-345"/>
      <point x="780" y="-187"/>
      <point x="780" y="56" type="curve" smooth="yes"/>
      <point x="780" y="179"/>
      <point x="698" y="292"/>
      <point x="466" y="363" type="curve" smooth="yes"/>
      <point x="336" y="403"/>
      <point x="243" y="469"/>
      <point x="243" y="565" type="curve" smooth="yes"/>
      <point x="243" y="709"/>
      <point x="440" y="774"/>
    </contour>
    <contour>
      <point x="602" y="269" type="curve"/>
      <point x="660" y="209" type="line"/>
      <point x="812" y="279"/>
      <point x="946" y="404"/>
      <point x="946" y="563" type="curve" smooth="yes"/>
      <point x="946" y="693"/>
      <point x="837" y="776"/>
      <point x="608" y="853" type="curve" smooth="yes"/>
      <point x="483" y="895"/>
      <point x="395" y="955"/>
      <point x="395" y="1052" type="curve" smooth="yes"/>
      <point x="395" y="1206"/>
      <point x="557" y="1268"/>
      <point x="728" y="1268" type="curve" smooth="yes"/>
      <point x="854" y="1268"/>
      <point x="945" y="1225"/>
      <point x="1008" y="1188" type="curve"/>
      <point x="1021" y="1203"/>
      <point x="1046" y="1232"/>
      <point x="1063" y="1255" type="curve"/>
      <point x="1021" y="1289"/>
      <point x="902" y="1353"/>
      <point x="731" y="1353" type="curve" smooth="yes"/>
      <point x="503" y="1353"/>
      <point x="305" y="1240"/>
      <point x="305" y="1023" type="curve" smooth="yes"/>
      <point x="305" y="885"/>
      <point x="414" y="832"/>
      <point x="584" y="770" type="curve" smooth="yes"/>
      <point x="743" y="712"/>
      <point x="857" y="657"/>
      <point x="857" y="548" type="curve" smooth="yes"/>
      <point x="857" y="422"/>
      <point x="728" y="320"/>
    </contour>
  </outline>
</glyph>
<glyph name="copyright" format="2">
  <advance width="1745"/>
  <unicode hex="00A9"/>
  <outline>
    <contour>
      <point x="762" y="-68" type="curve" smooth="yes"/>
      <point x="1291" y="-68"/>
      <point x="1677" y="291"/>
      <point x="1677" y="816" type="curve" smooth="yes"/>
      <point x="1677" y="1127"/>
      <point x="1458" y="1350"/>
      <point x="1081" y="1350" type="curve" smooth="yes"/>
      <point x="517" y="1350"/>
      <point x="135" y="1006"/>
      <point x="135" y="453" type="curve" smooth="yes"/>
      <point x="135" y="150"/>
      <point x="344" y="-68"/>
    </contour>
    <contour>
      <point x="762" y="0" type="curve" smooth="yes"/>
      <point x="456" y="0"/>
      <point x="216" y="152"/>
      <point x="216" y="475" type="curve" smooth="yes"/>
      <point x="216" y="936"/>
      <point x="584" y="1287"/>
      <point x="1055" y="1287" type="curve" smooth="yes"/>
      <point x="1395" y="1287"/>
      <point x="1587" y="1108"/>
      <point x="1587" y="806" type="curve" smooth="yes"/>
      <point x="1587" y="331"/>
      <point x="1233" y="0"/>
    </contour>
    <contour>
      <point x="818" y="280" type="curve" smooth="yes"/>
      <point x="971" y="280"/>
      <point x="1131" y="354"/>
      <point x="1235" y="491" type="curve"/>
      <point x="1229" y="504"/>
      <point x="1202" y="530"/>
      <point x="1184" y="542" type="curve"/>
      <point x="1119" y="472"/>
      <point x="1003" y="361"/>
      <point x="844" y="361" type="curve" smooth="yes"/>
      <point x="759" y="361"/>
      <point x="626" y="377"/>
      <point x="626" y="538" type="curve" smooth="yes"/>
      <point x="626" y="745"/>
      <point x="806" y="906"/>
      <point x="1009" y="906" type="curve" smooth="yes"/>
      <point x="1132" y="906"/>
      <point x="1207" y="867"/>
      <point x="1220" y="832" type="curve"/>
      <point x="1241" y="853"/>
      <point x="1264" y="877"/>
      <point x="1280" y="897" type="curve"/>
      <point x="1244" y="956"/>
      <point x="1153" y="985"/>
      <point x="1040" y="985" type="curve" smooth="yes"/>
      <point x="775" y="985"/>
      <point x="541" y="795"/>
      <point x="541" y="529" type="curve" smooth="yes"/>
      <point x="541" y="374"/>
      <point x="635" y="280"/>
    </contour>
  </outline>
</glyph>
<glyph name="softhyphen" format="2">
  <advance width="658"/>
  <unicode hex="00AD"/>
  <outline>
    <contour>
      <point x="648" y="730" type="curve"/>
      <point x="613" y="732"/>
      <point x="537" y="732"/>
      <point x="445" y="732" type="curve" smooth="yes"/>
      <point x="296" y="732"/>
      <point x="184" y="720"/>
      <point x="105" y="711" type="curve"/>
      <point x="99" y="689"/>
      <point x="95" y="667"/>
      <point x="93" y="650" type="curve"/>
      <point x="211" y="661"/>
      <point x="443" y="668"/>
      <point x="631" y="668" type="curve"/>
      <point x="636" y="683"/>
      <point x="645" y="711"/>
    </contour>
  </outline>
</glyph>
<glyph name="registered" format="2">
  <advance width="1400"/>
  <unicode hex="00AE"/>
  <outline>
    <contour>
      <point x="695" y="269" type="curve" smooth="yes"/>
      <point x="1110" y="269"/>
      <point x="1346" y="515"/>
      <point x="1346" y="918" type="curve" smooth="yes"/>
      <point x="1346" y="1167"/>
      <point x="1173" y="1321"/>
      <point x="925" y="1321" type="curve" smooth="yes"/>
      <point x="528" y="1321"/>
      <point x="239" y="1046"/>
      <point x="239" y="667" type="curve" smooth="yes"/>
      <point x="239" y="465"/>
      <point x="388" y="269"/>
    </contour>
    <contour>
      <point x="693" y="331" type="curve" smooth="yes"/>
      <point x="466" y="331"/>
      <point x="312" y="463"/>
      <point x="312" y="693" type="curve" smooth="yes"/>
      <point x="312" y="1022"/>
      <point x="585" y="1260"/>
      <point x="915" y="1260" type="curve" smooth="yes"/>
      <point x="1178" y="1260"/>
      <point x="1274" y="1076"/>
      <point x="1274" y="900" type="curve" smooth="yes"/>
      <point x="1274" y="544"/>
      <point x="1055" y="331"/>
    </contour>
    <contour>
      <point x="652" y="503" type="curve"/>
      <point x="669" y="559"/>
      <point x="727" y="766"/>
      <point x="734" y="801" type="curve"/>
      <point x="740" y="800"/>
      <point x="755" y="800"/>
      <point x="769" y="800" type="curve"/>
      <point x="799" y="689"/>
      <point x="831" y="604"/>
      <point x="872" y="503" type="curve"/>
      <point x="903" y="503"/>
      <point x="935" y="511"/>
      <point x="954" y="517" type="curve"/>
      <point x="934" y="560"/>
      <point x="864" y="739"/>
      <point x="835" y="814" type="curve"/>
      <point x="941" y="837"/>
      <point x="1029" y="892"/>
      <point x="1029" y="990" type="curve" smooth="yes"/>
      <point x="1029" y="1068"/>
      <point x="948" y="1090"/>
      <point x="868" y="1090" type="curve" smooth="yes"/>
      <point x="805" y="1090"/>
      <point x="741" y="1077"/>
      <point x="724" y="1070" type="curve"/>
      <point x="699" y="957"/>
      <point x="620" y="644"/>
      <point x="585" y="515" type="curve"/>
      <point x="604" y="506"/>
      <point x="625" y="503"/>
    </contour>
    <contour>
      <point x="746" y="854" type="curve"/>
      <point x="751" y="872"/>
      <point x="777" y="1002"/>
      <point x="780" y="1019" type="curve"/>
      <point x="800" y="1022"/>
      <point x="834" y="1025"/>
      <point x="867" y="1025" type="curve" smooth="yes"/>
      <point x="916" y="1025"/>
      <point x="963" y="1017"/>
      <point x="963" y="983" type="curve" smooth="yes"/>
      <point x="963" y="897"/>
      <point x="856" y="854"/>
    </contour>
  </outline>
</glyph>
<glyph name="threesuperior" format="2">
  <advance width="779"/>
  <unicode hex="00B3"/>
  <outline>
    <contour>
      <point x="401" y="498" type="curve" smooth="yes"/>
      <point x="590" y="498"/>
      <point x="769" y="587"/>
      <point x="769" y="764" type="curve" smooth="yes"/>
      <point x="769" y="881"/>
      <point x="676" y="914"/>
      <point x="557" y="920" type="curve"/>
      <point x="674" y="938"/>
      <point x="820" y="1019"/>
      <point x="820" y="1143" type="curve" smooth="yes"/>
      <point x="820" y="1234"/>
      <point x="731" y="1282"/>
      <point x="607" y="1282" type="curve" smooth="yes"/>
      <point x="453" y="1282"/>
      <point x="314" y="1207"/>
      <point x="240" y="1157" type="curve"/>
      <point x="250" y="1145"/>
      <point x="282" y="1120"/>
      <point x="295" y="1111" type="curve"/>
      <point x="368" y="1170"/>
      <point x="478" y="1217"/>
      <point x="597" y="1217" type="curve" smooth="yes"/>
      <point x="696" y="1217"/>
      <point x="741" y="1177"/>
      <point x="741" y="1123" type="curve" smooth="yes"/>
      <point x="741" y="998"/>
      <point x="493" y="939"/>
      <point x="356" y="939" type="curve"/>
      <point x="352" y="924"/>
      <point x="347" y="900"/>
      <point x="347" y="878" type="curve"/>
      <point x="588" y="878"/>
      <point x="695" y="878"/>
      <point x="695" y="744" type="curve" smooth="yes"/>
      <point x="695" y="623"/>
      <point x="548" y="561"/>
      <point x="407" y="561" type="curve" smooth="yes"/>
      <point x="289" y="561"/>
      <point x="210" y="603"/>
      <point x="197" y="677" type="curve"/>
      <point x="170" y="667"/>
      <point x="147" y="656"/>
      <point x="125" y="642" type="curve"/>
      <point x="141" y="558"/>
      <point x="256" y="498"/>
    </contour>
  </outline>
</glyph>
<glyph name="micro" format="2">
  <advance width="1178"/>
  <unicode hex="00B5"/>
  <anchor x="446.585" y="0.0" name="bottom"/>
  <anchor x="652" y="0" name="ogonek"/>
  <anchor x="731.415" y="1063.0" name="top"/>
  <anchor x="1054" y="940" name="topright"/>
  <outline>
    <contour>
      <point x="-46" y="-369" type="curve"/>
      <point x="-19" y="-369"/>
      <point x="14" y="-367"/>
      <point x="47" y="-360" type="curve"/>
      <point x="55" y="-319"/>
      <point x="98" y="-120"/>
      <point x="129" y="21" type="curve" smooth="yes"/>
      <point x="180" y="254"/>
      <point x="212" y="400"/>
      <point x="280" y="654" type="curve"/>
      <point x="196" y="626" type="line"/>
      <point x="84" y="210"/>
      <point x="-34" y="-311"/>
    </contour>
    <component base="u"/>
  </outline>
</glyph>
<glyph name="paragraph" format="2">
  <advance width="1210"/>
  <unicode hex="00B6"/>
  <outline>
    <contour>
      <point x="691" y="-341" type="curve"/>
      <point x="795" y="-34"/>
      <point x="1029" y="675"/>
      <point x="1129" y="1043" type="curve" smooth="yes"/>
      <point x="1151" y="1124"/>
      <point x="1167" y="1190"/>
      <point x="1174" y="1235" type="curve"/>
      <point x="1046" y="1284"/>
      <point x="849" y="1314"/>
      <point x="695" y="1314" type="curve" smooth="yes"/>
      <point x="428" y="1314"/>
      <point x="280" y="1170"/>
      <point x="280" y="909" type="curve" smooth="yes"/>
      <point x="280" y="728"/>
      <point x="427" y="659"/>
      <point x="680" y="659" type="curve" smooth="yes"/>
      <point x="705" y="659"/>
      <point x="734" y="661"/>
      <point x="760" y="664" type="curve"/>
      <point x="734" y="590"/>
      <point x="512" y="-129"/>
      <point x="455" y="-321" type="curve"/>
      <point x="476" y="-321"/>
      <point x="506" y="-320"/>
      <point x="526" y="-318" type="curve"/>
      <point x="535" y="-292"/>
      <point x="845" y="696"/>
      <point x="991" y="1209" type="curve"/>
      <point x="1022" y="1206"/>
      <point x="1056" y="1200"/>
      <point x="1083" y="1194" type="curve"/>
      <point x="1076" y="1163"/>
      <point x="1067" y="1127"/>
      <point x="1055" y="1087" type="curve" smooth="yes"/>
      <point x="963" y="777"/>
      <point x="723" y="-25"/>
      <point x="625" y="-333" type="curve"/>
      <point x="651" y="-338"/>
      <point x="671" y="-341"/>
    </contour>
  </outline>
</glyph>
<glyph name="periodcentered" format="2">
  <advance width="450"/>
  <unicode hex="00B7"/>
  <outline>
    <contour>
      <point x="301" y="756" type="curve" smooth="yes"/>
      <point x="349" y="756"/>
      <point x="405" y="794"/>
      <point x="405" y="851" type="curve" smooth="yes"/>
      <point x="405" y="888"/>
      <point x="388" y="928"/>
      <point x="337" y="928" type="curve" smooth="yes"/>
      <point x="272" y="928"/>
      <point x="226" y="883"/>
      <point x="226" y="823" type="curve" smooth="yes"/>
      <point x="226" y="788"/>
      <point x="248" y="756"/>
    </contour>
  </outline>
</glyph>
<glyph name="ordmasculine" format="2">
  <advance width="750"/>
  <unicode hex="00BA"/>
  <outline>
    <contour>
      <point x="464" y="733" type="curve" smooth="yes"/>
      <point x="713" y="733"/>
      <point x="871" y="919"/>
      <point x="871" y="1171" type="curve" smooth="yes"/>
      <point x="871" y="1322"/>
      <point x="794" y="1433"/>
      <point x="619" y="1433" type="curve" smooth="yes"/>
      <point x="359" y="1433"/>
      <point x="201" y="1253"/>
      <point x="201" y="978" type="curve" smooth="yes"/>
      <point x="201" y="825"/>
      <point x="275" y="733"/>
    </contour>
    <contour>
      <point x="458" y="798" type="curve" smooth="yes"/>
      <point x="329" y="798"/>
      <point x="278" y="878"/>
      <point x="278" y="990" type="curve" smooth="yes"/>
      <point x="278" y="1202"/>
      <point x="400" y="1370"/>
      <point x="610" y="1370" type="curve" smooth="yes"/>
      <point x="740" y="1370"/>
      <point x="795" y="1281"/>
      <point x="795" y="1167" type="curve" smooth="yes"/>
      <point x="795" y="950"/>
      <point x="662" y="798"/>
    </contour>
  </outline>
</glyph>
<glyph name="guillemetright" format="2">
  <advance width="1313"/>
  <unicode hex="00BB"/>
  <outline>
    <contour>
      <point x="439" y="1089" type="curve"/>
      <point x="505" y="1014"/>
      <point x="661" y="827"/>
      <point x="760" y="699" type="curve"/>
      <point x="482" y="520"/>
      <point x="104" y="267"/>
      <point x="85" y="253" type="curve"/>
      <point x="90" y="236"/>
      <point x="95" y="222"/>
      <point x="108" y="200" type="curve"/>
      <point x="349" y="352"/>
      <point x="594" y="513"/>
      <point x="836" y="689" type="curve"/>
      <point x="721" y="855"/>
      <point x="553" y="1087"/>
      <point x="509" y="1121" type="curve"/>
      <point x="489" y="1113"/>
      <point x="448" y="1094"/>
    </contour>
    <contour>
      <point x="866" y="1159" type="curve"/>
      <point x="936" y="1097"/>
      <point x="1113" y="866"/>
      <point x="1228" y="702" type="curve"/>
      <point x="937" y="487"/>
      <point x="543" y="198"/>
      <point x="523" y="185" type="curve"/>
      <point x="531" y="164"/>
      <point x="542" y="145"/>
      <point x="560" y="132" type="curve"/>
      <point x="811" y="315"/>
      <point x="1072" y="507"/>
      <point x="1313" y="697" type="curve"/>
      <point x="1291" y="733"/>
      <point x="1085" y="1022"/>
      <point x="929" y="1190" type="curve"/>
      <point x="911" y="1185"/>
      <point x="878" y="1168"/>
    </contour>
  </outline>
</glyph>
<glyph name="questiondown" format="2">
  <advance width="1036"/>
  <unicode hex="00BF"/>
  <outline>
    <contour>
      <point x="552" y="716" type="curve"/>
      <point x="486" y="469"/>
      <point x="382" y="368"/>
      <point x="264" y="294" type="curve" smooth="yes"/>
      <point x="103" y="193"/>
      <point x="-6" y="49"/>
      <point x="-6" y="-143" type="curve" smooth="yes"/>
      <point x="-6" y="-299"/>
      <point x="93" y="-379"/>
      <point x="296" y="-379" type="curve" smooth="yes"/>
      <point x="514" y="-379"/>
      <point x="718" y="-276"/>
      <point x="822" y="-51" type="curve"/>
      <point x="750" y="-27" type="line"/>
      <point x="712" y="-119"/>
      <point x="599" y="-310"/>
      <point x="302" y="-310" type="curve" smooth="yes"/>
      <point x="137" y="-310"/>
      <point x="74" y="-250"/>
      <point x="74" y="-129" type="curve" smooth="yes"/>
      <point x="74" y="35"/>
      <point x="162" y="150"/>
      <point x="319" y="245" type="curve" smooth="yes"/>
      <point x="505" y="358"/>
      <point x="582" y="540"/>
      <point x="627" y="706" type="curve"/>
      <point x="607" y="711"/>
      <point x="573" y="716"/>
    </contour>
    <contour>
      <point x="677" y="1103" type="curve" smooth="yes"/>
      <point x="613" y="1103"/>
      <point x="553" y="1039"/>
      <point x="553" y="967" type="curve" smooth="yes"/>
      <point x="553" y="923"/>
      <point x="581" y="896"/>
      <point x="635" y="896" type="curve" smooth="yes"/>
      <point x="686" y="896"/>
      <point x="756" y="937"/>
      <point x="756" y="1020" type="curve" smooth="yes"/>
      <point x="756" y="1070"/>
      <point x="726" y="1103"/>
    </contour>
  </outline>
</glyph>
<glyph name="AE" format="2">
  <advance width="1606"/>
  <unicode hex="00C6"/>
  <anchor x="630" y="0" name="bottom"/>
  <anchor x="1024" y="1291" name="top"/>
  <outline>
    <contour>
      <point x="1338" y="-23" type="curve"/>
      <point x="1348" y="-5"/>
      <point x="1362" y="25"/>
      <point x="1372" y="53" type="curve"/>
      <point x="1297" y="59"/>
      <point x="1113" y="66"/>
      <point x="954" y="66" type="curve" smooth="yes"/>
      <point x="901" y="66"/>
      <point x="814" y="65"/>
      <point x="773" y="63" type="curve"/>
      <point x="826" y="257"/>
      <point x="884" y="472"/>
      <point x="938" y="676" type="curve"/>
      <point x="1024" y="679"/>
      <point x="1444" y="680"/>
      <point x="1494" y="680" type="curve"/>
      <point x="1506" y="758" type="line"/>
      <point x="1414" y="758"/>
      <point x="1031" y="746"/>
      <point x="957" y="743" type="curve"/>
      <point x="980" y="828"/>
      <point x="1055" y="1095"/>
      <point x="1083" y="1183" type="curve"/>
      <point x="1687" y="1230" type="line"/>
      <point x="1697" y="1257"/>
      <point x="1704" y="1280"/>
      <point x="1711" y="1304" type="curve"/>
      <point x="1685" y="1304"/>
      <point x="705" y="1218"/>
      <point x="685" y="1214" type="curve"/>
      <point x="493" y="927"/>
      <point x="15" y="152"/>
      <point x="-78" y="-9" type="curve"/>
      <point x="-63" y="-13"/>
      <point x="-22" y="-16"/>
      <point x="14" y="-16" type="curve"/>
      <point x="69" y="83"/>
      <point x="193" y="295"/>
      <point x="312" y="488" type="curve"/>
      <point x="352" y="495"/>
      <point x="704" y="522"/>
      <point x="810" y="522" type="curve"/>
      <point x="765" y="352"/>
      <point x="719" y="167"/>
      <point x="677" y="-12" type="curve"/>
      <point x="880" y="-12"/>
      <point x="1203" y="-18"/>
    </contour>
    <contour>
      <point x="349" y="549" type="curve"/>
      <point x="548" y="875"/>
      <point x="692" y="1092"/>
      <point x="729" y="1146" type="curve"/>
      <point x="773" y="1151"/>
      <point x="926" y="1164"/>
      <point x="984" y="1164" type="curve"/>
      <point x="905" y="867"/>
      <point x="870" y="738"/>
      <point x="825" y="593" type="curve"/>
      <point x="678" y="587"/>
      <point x="455" y="569"/>
    </contour>
  </outline>
</glyph>
<glyph name="Eth" format="2">
  <advance width="1198"/>
  <unicode hex="00D0"/>
  <anchor x="456.585" y="0.0" name="bottom"/>
  <anchor x="415" y="646" name="center"/>
  <anchor x="716" y="1291" name="top"/>
  <outline>
    <contour>
      <point x="641" y="632" type="curve"/>
      <point x="650" y="663"/>
      <point x="657" y="698"/>
      <point x="658" y="707" type="curve"/>
      <point x="539" y="707"/>
      <point x="194" y="670"/>
      <point x="134" y="655" type="curve"/>
      <point x="128" y="644"/>
      <point x="116" y="610"/>
      <point x="112" y="592" type="curve"/>
      <point x="260" y="611"/>
      <point x="499" y="632"/>
    </contour>
    <component base="D"/>
  </outline>
</glyph>
<glyph name="Oslash" format="2">
  <advance width="1354"/>
  <unicode hex="00D8"/>
  <anchor x="534.585" y="0" name="bottom"/>
  <anchor x="876" y="1320" name="top"/>
  <anchor x="652" y="646" name="center"/>
  <anchor x="764" y="0" name="ogonek"/>
  <anchor x="223.507" y="1291.0" name="topleft"/>
  <anchor x="1165" y="1173" name="topright"/>
  <outline>
    <contour>
      <point x="1222" y="1330"/>
      <point x="1193" y="1337" type="curve"/>
      <point x="839" y="798"/>
      <point x="315" y="278"/>
      <point x="-28" y="-41" type="curve"/>
      <point x="-18" y="-50"/>
      <point x="21" y="-75"/>
      <point x="39" y="-81" type="curve"/>
      <point x="303" y="148"/>
      <point x="834" y="672"/>
      <point x="1268" y="1291" type="curve"/>
      <point x="1255" y="1306"/>
    </contour>
    <component base="O"/>
  </outline>
</glyph>
<glyph name="ae" format="2">
  <advance width="1762"/>
  <unicode hex="00E6"/>
  <anchor x="711" y="0" name="bottom"/>
  <anchor x="1007" y="1063" name="top"/>
  <anchor x="1358" y="53" name="ogonek"/>
  <outline>
    <contour>
      <point x="354" y="22" type="curve" smooth="yes"/>
      <point x="582" y="22"/>
      <point x="838" y="170"/>
      <point x="879" y="368" type="curve" smooth="yes"/>
      <point x="920" y="566"/>
      <point x="945" y="702"/>
      <point x="945" y="800" type="curve" smooth="yes"/>
      <point x="945" y="991"/>
      <point x="816" y="1105"/>
      <point x="626" y="1105" type="curve" smooth="yes"/>
      <point x="394" y="1105"/>
      <point x="229" y="978"/>
      <point x="139" y="865" type="curve"/>
      <point x="194" y="806" type="line"/>
      <point x="276" y="928"/>
      <point x="422" y="1027"/>
      <point x="603" y="1027" type="curve" smooth="yes"/>
      <point x="786" y="1027"/>
      <point x="854" y="924"/>
      <point x="854" y="758" type="curve" smooth="yes"/>
      <point x="854" y="724"/>
      <point x="851" y="687"/>
      <point x="846" y="648" type="curve"/>
      <point x="817" y="658"/>
      <point x="604" y="692"/>
      <point x="506" y="692" type="curve" smooth="yes"/>
      <point x="248" y="692"/>
      <point x="11" y="536"/>
      <point x="11" y="284" type="curve" smooth="yes"/>
      <point x="11" y="99"/>
      <point x="169" y="22"/>
    </contour>
    <contour>
      <point x="345" y="94" type="curve" smooth="yes"/>
      <point x="210" y="94"/>
      <point x="102" y="149"/>
      <point x="102" y="295" type="curve" smooth="yes"/>
      <point x="102" y="489"/>
      <point x="277" y="617"/>
      <point x="471" y="617" type="curve" smooth="yes"/>
      <point x="613" y="617"/>
      <point x="791" y="587"/>
      <point x="834" y="575" type="curve"/>
      <point x="826" y="518"/>
      <point x="812" y="434"/>
      <point x="799" y="383" type="curve" smooth="yes"/>
      <point x="768" y="261"/>
      <point x="573" y="94"/>
    </contour>
    <component base="e" xOffset="746"/>
  </outline>
</glyph>
<glyph name="ccedilla" format="2">
  <advance width="1026"/>
  <unicode hex="00E7"/>
  <anchor x="399" y="0" name="bottom"/>
  <anchor x="645" y="1063" name="top"/>
  <outline>
    <contour>
      <point x="343" y="-462" type="curve" smooth="yes"/>
      <point x="540" y="-462"/>
      <point x="693" y="-400"/>
      <point x="693" y="-227" type="curve" smooth="yes"/>
      <point x="693" y="-134"/>
      <point x="628" y="-87"/>
      <point x="532" y="-87" type="curve" smooth="yes"/>
      <point x="484" y="-87"/>
      <point x="419" y="-106"/>
      <point x="400" y="-119" type="curve"/>
      <point x="441" y="39" type="line"/>
      <point x="369" y="43" type="line"/>
      <point x="302" y="-212" type="line"/>
      <point x="345" y="-194"/>
      <point x="447" y="-159"/>
      <point x="505" y="-159" type="curve" smooth="yes"/>
      <point x="577" y="-159"/>
      <point x="603" y="-189"/>
      <point x="603" y="-242" type="curve" smooth="yes"/>
      <point x="603" y="-362"/>
      <point x="493" y="-392"/>
      <point x="347" y="-392" type="curve" smooth="yes"/>
      <point x="296" y="-392"/>
      <point x="222" y="-374"/>
      <point x="184" y="-364" type="curve"/>
      <point x="157" y="-437" type="line"/>
      <point x="176" y="-444"/>
      <point x="239" y="-462"/>
    </contour>
    <component base="c"/>
  </outline>
</glyph>
<glyph name="eth" format="2">
  <advance width="1200"/>
  <unicode hex="00F0"/>
  <outline>
    <contour>
      <point x="446" y="-17" type="curve" smooth="yes"/>
      <point x="786" y="-17"/>
      <point x="1032" y="326"/>
      <point x="1032" y="687" type="curve" smooth="yes"/>
      <point x="1032" y="891"/>
      <point x="920" y="1026"/>
      <point x="716" y="1118" type="curve"/>
      <point x="753" y="1169"/>
      <point x="828" y="1280"/>
      <point x="857" y="1330" type="curve"/>
      <point x="767" y="1366" type="line"/>
      <point x="743" y="1309"/>
      <point x="670" y="1195"/>
      <point x="638" y="1154" type="curve"/>
      <point x="606" y="1166"/>
      <point x="432" y="1229"/>
      <point x="378" y="1244" type="curve"/>
      <point x="323" y="1179" type="line"/>
      <point x="378" y="1162"/>
      <point x="520" y="1117"/>
      <point x="583" y="1084" type="curve"/>
      <point x="558" y="1056"/>
      <point x="449" y="938"/>
      <point x="430" y="923" type="curve"/>
      <point x="445" y="912"/>
      <point x="477" y="896"/>
      <point x="499" y="887" type="curve"/>
      <point x="550" y="923"/>
      <point x="625" y="1003"/>
      <point x="660" y="1046" type="curve"/>
      <point x="795" y="998"/>
      <point x="946" y="874"/>
      <point x="946" y="730" type="curve"/>
      <point x="926" y="790"/>
      <point x="811" y="846"/>
      <point x="671" y="846" type="curve" smooth="yes"/>
      <point x="342" y="846"/>
      <point x="94" y="601"/>
      <point x="94" y="278" type="curve" smooth="yes"/>
      <point x="94" y="88"/>
      <point x="221" y="-17"/>
    </contour>
    <contour>
      <point x="439" y="53" type="curve" smooth="yes"/>
      <point x="284" y="53"/>
      <point x="190" y="130"/>
      <point x="190" y="300" type="curve" smooth="yes"/>
      <point x="190" y="576"/>
      <point x="405" y="774"/>
      <point x="680" y="774" type="curve" smooth="yes"/>
      <point x="825" y="774"/>
      <point x="917" y="687"/>
      <point x="917" y="554" type="curve" smooth="yes"/>
      <point x="917" y="302"/>
      <point x="694" y="53"/>
    </contour>
  </outline>
</glyph>
<glyph name="oslash" format="2">
  <advance width="1180"/>
  <unicode hex="00F8"/>
  <anchor x="737.415" y="1063" name="top"/>
  <anchor x="433" y="0" name="bottom"/>
  <anchor x="575" y="532" name="center"/>
  <anchor x="678" y="0" name="ogonek"/>
  <anchor x="997" y="941" name="topright"/>
  <outline>
    <contour>
      <point x="1127" y="1070" type="curve"/>
      <point x="1112" y="1082"/>
      <point x="1076" y="1103"/>
      <point x="1046" y="1109" type="curve"/>
      <point x="777" y="680"/>
      <point x="363" y="236"/>
      <point x="62" y="-76" type="curve"/>
      <point x="76" y="-82"/>
      <point x="114" y="-105"/>
      <point x="134" y="-109" type="curve"/>
      <point x="370" y="131"/>
      <point x="790" y="578"/>
    </contour>
    <component base="o"/>
  </outline>
</glyph>
<glyph name="thorn" format="2">
  <advance width="1200"/>
  <unicode hex="00FE"/>
  <anchor x="458" y="0" name="bottom"/>
  <anchor x="419" y="1376" name="top"/>
  <outline>
    <contour>
      <point x="30" y="-395" type="line"/>
      <point x="44" y="-340"/>
      <point x="135" y="36"/>
      <point x="141" y="96" type="curve"/>
      <point x="180" y="40"/>
      <point x="353" y="1"/>
      <point x="473" y="1" type="curve" smooth="yes"/>
      <point x="788" y="1"/>
      <point x="1051" y="320"/>
      <point x="1051" y="656" type="curve" smooth="yes"/>
      <point x="1051" y="860"/>
      <point x="947" y="1018"/>
      <point x="746" y="1018" type="curve" smooth="yes"/>
      <point x="538" y="1018"/>
      <point x="345" y="857"/>
      <point x="320" y="832" type="curve"/>
      <point x="372" y="1040"/>
      <point x="447" y="1349"/>
      <point x="449" y="1376" type="curve"/>
      <point x="369" y="1369" type="line"/>
      <point x="293" y="1085"/>
      <point x="-22" y="-229"/>
      <point x="-53" y="-391" type="curve"/>
    </contour>
    <contour>
      <point x="473" y="84" type="curve" smooth="yes"/>
      <point x="288" y="84"/>
      <point x="208" y="145"/>
      <point x="168" y="205" type="curve"/>
      <point x="178" y="244"/>
      <point x="282" y="687"/>
      <point x="290" y="730" type="curve"/>
      <point x="349" y="786"/>
      <point x="547" y="921"/>
      <point x="716" y="921" type="curve" smooth="yes"/>
      <point x="881" y="921"/>
      <point x="969" y="815"/>
      <point x="969" y="653" type="curve" smooth="yes"/>
      <point x="969" y="367"/>
      <point x="754" y="84"/>
    </contour>
  </outline>
</glyph>
<glyph name="Aogonek" format="2">
  <advance width="991"/>
  <unicode hex="0104"/>
  <anchor x="465" y="0" name="bottom"/>
  <anchor x="749" y="0" name="ogonek"/>
  <anchor x="801" y="1323" name="top"/>
  <outline>
    <contour>
      <point x="870" y="-370" type="line"/>
      <point x="797" y="-403"/>
      <point x="748" y="-423"/>
      <point x="654" y="-423" type="curve" smooth="yes"/>
      <point x="564" y="-423"/>
      <point x="507" y="-392"/>
      <point x="507" y="-290" type="curve" smooth="yes"/>
      <point x="507" y="-177"/>
      <point x="637" y="-43"/>
      <point x="749" y="0" type="curve"/>
      <point x="684" y="45" type="line"/>
      <point x="545" y="-14"/>
      <point x="421" y="-154"/>
      <point x="421" y="-297" type="curve" smooth="yes"/>
      <point x="421" y="-426"/>
      <point x="501" y="-503"/>
      <point x="638" y="-503" type="curve" smooth="yes"/>
      <point x="742" y="-503"/>
      <point x="814" y="-481"/>
      <point x="870" y="-457" type="curve"/>
    </contour>
    <component base="A"/>
  </outline>
</glyph>
<glyph name="dcroat" format="2">
  <advance width="1195"/>
  <unicode hex="0111"/>
  <anchor x="455.585" y="0.0" name="bottom"/>
  <anchor x="1086" y="1222" name="center"/>
  <anchor x="849.47" y="1470.0" name="top"/>
  <anchor x="1218" y="998" name="topright"/>
  <outline>
    <contour>
      <point x="1355" y="1138" type="curve"/>
      <point x="1359" y="1152"/>
      <point x="1360" y="1169"/>
      <point x="1360" y="1188" type="curve"/>
      <point x="1296" y="1200"/>
      <point x="908" y="1229"/>
      <point x="766" y="1229" type="curve"/>
      <point x="762" y="1222"/>
      <point x="754" y="1194"/>
      <point x="748" y="1170" type="curve"/>
      <point x="916" y="1170"/>
      <point x="1189" y="1153"/>
    </contour>
    <component base="d"/>
  </outline>
</glyph>
<glyph name="eogonek" format="2">
  <advance width="1092"/>
  <unicode hex="0119"/>
  <anchor x="424" y="10" name="bottom"/>
  <anchor x="612" y="53" name="ogonek"/>
  <anchor x="728" y="1063" name="top"/>
  <outline>
    <contour>
      <point x="853" y="-277" type="line"/>
      <point x="780" y="-310"/>
      <point x="731" y="-330"/>
      <point x="637" y="-330" type="curve" smooth="yes"/>
      <point x="547" y="-330"/>
      <point x="490" y="-299"/>
      <point x="490" y="-197" type="curve" smooth="yes"/>
      <point x="490" y="-84"/>
      <point x="620" y="50"/>
      <point x="732" y="93" type="curve"/>
      <point x="667" y="138" type="line"/>
      <point x="528" y="79"/>
      <point x="404" y="-61"/>
      <point x="404" y="-204" type="curve" smooth="yes"/>
      <point x="404" y="-333"/>
      <point x="484" y="-410"/>
      <point x="621" y="-410" type="curve" smooth="yes"/>
      <point x="725" y="-410"/>
      <point x="797" y="-388"/>
      <point x="853" y="-364" type="curve"/>
    </contour>
    <component base="e"/>
  </outline>
</glyph>
<glyph name="Hbar" format="2">
  <advance width="1094"/>
  <unicode hex="0126"/>
  <anchor x="465" y="0" name="bottom"/>
  <anchor x="721" y="1063" name="center"/>
  <anchor x="721" y="1291" name="top"/>
  <anchor x="223.507" y="1291.0" name="topleft"/>
  <outline>
    <contour>
      <point x="1174" y="999" type="curve"/>
      <point x="1181" y="1013"/>
      <point x="1190" y="1051"/>
      <point x="1190" y="1058" type="curve"/>
      <point x="996" y="1058"/>
      <point x="290" y="1045"/>
      <point x="196" y="1037" type="curve"/>
      <point x="185" y="1028"/>
      <point x="173" y="1001"/>
      <point x="169" y="987" type="curve"/>
      <point x="403" y="992"/>
      <point x="944" y="999"/>
    </contour>
    <component base="H"/>
  </outline>
</glyph>
<glyph name="Iogonek" format="2">
  <advance width="487"/>
  <unicode hex="012E"/>
  <anchor x="102" y="0" name="bottom"/>
  <anchor x="138" y="0" name="ogonek"/>
  <anchor x="448" y="1291" name="top"/>
  <anchor x="224" y="1291" name="topleft"/>
  <outline>
    <contour>
      <point x="259" y="-370" type="line"/>
      <point x="186" y="-403"/>
      <point x="137" y="-423"/>
      <point x="43" y="-423" type="curve" smooth="yes"/>
      <point x="-47" y="-423"/>
      <point x="-104" y="-392"/>
      <point x="-104" y="-290" type="curve" smooth="yes"/>
      <point x="-104" y="-177"/>
      <point x="26" y="-43"/>
      <point x="138" y="0" type="curve"/>
      <point x="73" y="45" type="line"/>
      <point x="-66" y="-14"/>
      <point x="-190" y="-154"/>
      <point x="-190" y="-297" type="curve" smooth="yes"/>
      <point x="-190" y="-426"/>
      <point x="-110" y="-503"/>
      <point x="27" y="-503" type="curve" smooth="yes"/>
      <point x="131" y="-503"/>
      <point x="203" y="-481"/>
      <point x="259" y="-457" type="curve"/>
    </contour>
    <component base="I"/>
  </outline>
</glyph>
<glyph name="idotless" format="2">
  <advance width="581"/>
  <unicode hex="0131"/>
  <anchor x="129" y="0" name="bottom"/>
  <anchor x="168" y="-2" name="ogonek"/>
  <anchor x="424" y="990" name="top"/>
  <outline>
    <contour>
      <point x="168" y="-2" type="curve"/>
      <point x="216" y="121"/>
      <point x="407" y="812"/>
      <point x="442" y="942" type="curve"/>
      <point x="412" y="942"/>
      <point x="383" y="940"/>
      <point x="364" y="932" type="curve"/>
      <point x="303" y="728"/>
      <point x="99" y="85"/>
      <point x="59" y="2" type="curve"/>
      <point x="74" y="-1"/>
      <point x="150" y="-2"/>
    </contour>
  </outline>
</glyph>
<glyph name="kgreenlandic" format="2">
  <advance width="1156"/>
  <unicode hex="0138"/>
  <anchor x="435.585" y="0" name="bottom"/>
  <anchor x="725" y="1063" name="top"/>
  <outline>
    <contour>
      <point x="829" y="-34" type="curve"/>
      <point x="848" y="-27"/>
      <point x="895" y="-7"/>
      <point x="904" y="-2" type="curve"/>
      <point x="824" y="222"/>
      <point x="623" y="597"/>
      <point x="579" y="651" type="curve"/>
      <point x="703" y="732"/>
      <point x="1044" y="896"/>
      <point x="1132" y="932" type="curve"/>
      <point x="1126" y="942"/>
      <point x="1098" y="979"/>
      <point x="1084" y="995" type="curve"/>
      <point x="948" y="935"/>
      <point x="470" y="692"/>
      <point x="310" y="562" type="curve"/>
      <point x="365" y="748"/>
      <point x="417" y="939"/>
      <point x="456" y="1074" type="curve"/>
      <point x="450" y="1074"/>
      <point x="432" y="1075"/>
      <point x="416" y="1075" type="curve" smooth="yes"/>
      <point x="399" y="1075"/>
      <point x="382" y="1076"/>
      <point x="374" y="1076" type="curve"/>
      <point x="328" y="940"/>
      <point x="78" y="79"/>
      <point x="40" y="-31" type="curve"/>
      <point x="55" y="-34"/>
      <point x="71" y="-36"/>
      <point x="85" y="-36" type="curve" smooth="yes"/>
      <point x="102" y="-36"/>
      <point x="117" y="-34"/>
      <point x="126" y="-32" type="curve"/>
      <point x="145" y="24"/>
      <point x="243" y="330"/>
      <point x="277" y="446" type="curve"/>
      <point x="300" y="467"/>
      <point x="468" y="573"/>
      <point x="515" y="607" type="curve"/>
      <point x="589" y="505"/>
      <point x="775" y="116"/>
    </contour>
  </outline>
</glyph>
<glyph name="ldot" format="2">
  <advance width="741"/>
  <unicode hex="0140"/>
  <anchor x="165.585" y="0.0" name="bottom"/>
  <anchor x="362.528" y="735.0" name="center"/>
  <anchor x="559.47" y="1470.0" name="top"/>
  <anchor x="480" y="1027" name="topright"/>
  <outline>
    <contour>
      <point x="628" y="759" type="curve" smooth="yes"/>
      <point x="676" y="759"/>
      <point x="732" y="797"/>
      <point x="732" y="854" type="curve" smooth="yes"/>
      <point x="732" y="891"/>
      <point x="715" y="931"/>
      <point x="664" y="931" type="curve" smooth="yes"/>
      <point x="599" y="931"/>
      <point x="553" y="886"/>
      <point x="553" y="826" type="curve" smooth="yes"/>
      <point x="553" y="791"/>
      <point x="575" y="759"/>
    </contour>
    <component base="l"/>
  </outline>
</glyph>
<glyph name="Lslash" format="2">
  <advance width="1121"/>
  <unicode hex="0141"/>
  <anchor x="499.585" y="0.0" name="bottom"/>
  <anchor x="672.6800000000001" y="646.0" name="center"/>
  <anchor x="619" y="1296" name="top"/>
  <anchor x="746" y="907" name="topright"/>
  <outline>
    <contour>
      <point x="149" y="402" type="curve"/>
      <point x="366" y="513"/>
      <point x="554" y="644"/>
      <point x="796" y="821" type="curve"/>
      <point x="796" y="838"/>
      <point x="771" y="876"/>
      <point x="759" y="892" type="curve"/>
      <point x="576" y="742"/>
      <point x="391" y="611"/>
      <point x="113" y="465" type="curve"/>
      <point x="115" y="454"/>
      <point x="141" y="414"/>
    </contour>
    <component base="L" xOffset="161"/>
  </outline>
</glyph>
<glyph name="lslash" format="2">
  <advance width="564"/>
  <unicode hex="0142"/>
  <anchor x="165.585" y="0.0" name="bottom"/>
  <anchor x="362.528" y="735.0" name="center"/>
  <anchor x="559.47" y="1470.0" name="top"/>
  <anchor x="480" y="1027" name="topright"/>
  <outline>
    <contour>
      <point x="593" y="834"/>
      <point x="568" y="853" type="curve"/>
      <point x="398" y="699"/>
      <point x="133" y="489"/>
      <point x="-79" y="369" type="curve"/>
      <point x="-71" y="354"/>
      <point x="-51" y="330"/>
      <point x="-36" y="313" type="curve"/>
      <point x="191" y="432"/>
      <point x="432" y="612"/>
      <point x="617" y="788" type="curve"/>
      <point x="612" y="814"/>
    </contour>
    <component base="l"/>
  </outline>
</glyph>
<glyph name="eng" format="2">
  <advance width="1330"/>
  <unicode hex="014B"/>
  <anchor x="522.585" y="0.0" name="bottom"/>
  <anchor x="807.415" y="1063.0" name="top"/>
  <outline>
    <contour>
      <point x="371" y="-309"/>
      <point x="487" y="-349"/>
      <point x="597" y="-349" type="curve" smooth="yes"/>
      <point x="819" y="-349"/>
      <point x="962" y="-157"/>
      <point x="1009" y="10" type="curve"/>
      <point x="913" y="10" type="line"/>
      <point x="841" y="-136"/>
      <point x="767" y="-267"/>
      <point x="621" y="-267" type="curve" smooth="yes"/>
      <point x="493" y="-267"/>
      <point x="455" y="-220"/>
      <point x="437" y="-157" type="curve"/>
      <point x="417" y="-168"/>
      <point x="363" y="-207"/>
      <point x="345" y="-220" type="curve"/>
    </contour>
    <component base="n"/>
  </outline>
</glyph>
<glyph name="oe" format="2">
  <advance width="1954"/>
  <unicode hex="0153"/>
  <anchor x="902" y="0" name="bottom"/>
  <anchor x="1196" y="1063" name="top"/>
  <outline>
    <contour>
      <point x="471" y="-39" type="curve" smooth="yes"/>
      <point x="858" y="-39"/>
      <point x="1081" y="305"/>
      <point x="1081" y="691" type="curve" smooth="yes"/>
      <point x="1081" y="933"/>
      <point x="968" y="1077"/>
      <point x="725" y="1077" type="curve" smooth="yes"/>
      <point x="328" y="1077"/>
      <point x="83" y="732"/>
      <point x="83" y="340" type="curve" smooth="yes"/>
      <point x="83" y="119"/>
      <point x="208" y="-39"/>
    </contour>
    <contour>
      <point x="476" y="32" type="curve" smooth="yes"/>
      <point x="273" y="32"/>
      <point x="171" y="163"/>
      <point x="171" y="346" type="curve" smooth="yes"/>
      <point x="171" y="669"/>
      <point x="379" y="1002"/>
      <point x="710" y="1002" type="curve" smooth="yes"/>
      <point x="909" y="1002"/>
      <point x="999" y="878"/>
      <point x="999" y="682" type="curve" smooth="yes"/>
      <point x="999" y="356"/>
      <point x="795" y="32"/>
    </contour>
    <contour>
      <point x="1818" y="266" type="curve"/>
      <point x="1815" y="284"/>
      <point x="1784" y="319"/>
      <point x="1770" y="333" type="curve"/>
      <point x="1760" y="319"/>
      <point x="1590" y="101"/>
      <point x="1321" y="101" type="curve" smooth="yes"/>
      <point x="1140" y="101"/>
      <point x="1067" y="245"/>
      <point x="1067" y="381" type="curve" smooth="yes"/>
      <point x="1067" y="423"/>
      <point x="1068" y="464"/>
      <point x="1074" y="497" type="curve"/>
      <point x="1156" y="508"/>
      <point x="1347" y="523"/>
      <point x="1491" y="528" type="curve" smooth="yes"/>
      <point x="1643" y="533"/>
      <point x="1828" y="535"/>
      <point x="1847" y="535" type="curve"/>
      <point x="1868" y="615"/>
      <point x="1879" y="679"/>
      <point x="1879" y="746" type="curve" smooth="yes"/>
      <point x="1879" y="942"/>
      <point x="1779" y="1070"/>
      <point x="1576" y="1070" type="curve" smooth="yes"/>
      <point x="1225" y="1070"/>
      <point x="987" y="779"/>
      <point x="987" y="409" type="curve" smooth="yes"/>
      <point x="987" y="175"/>
      <point x="1084" y="27"/>
      <point x="1315" y="27" type="curve" smooth="yes"/>
      <point x="1593" y="27"/>
      <point x="1766" y="207"/>
    </contour>
    <contour>
      <point x="1090" y="578" type="curve"/>
      <point x="1139" y="849"/>
      <point x="1345" y="984"/>
      <point x="1564" y="984" type="curve" smooth="yes"/>
      <point x="1742" y="984"/>
      <point x="1796" y="869"/>
      <point x="1796" y="751" type="curve" smooth="yes"/>
      <point x="1796" y="704"/>
      <point x="1790" y="651"/>
      <point x="1780" y="615" type="curve"/>
      <point x="1769" y="615"/>
      <point x="1641" y="612"/>
      <point x="1520" y="609" type="curve" smooth="yes"/>
      <point x="1313" y="604"/>
      <point x="1157" y="589"/>
    </contour>
  </outline>
</glyph>
<glyph name="Scedilla" format="2">
  <advance width="1152"/>
  <unicode hex="015E"/>
  <anchor x="480" y="0" name="bottom"/>
  <anchor x="738" y="1317" name="top"/>
  <outline>
    <contour>
      <point x="431" y="-462" type="curve" smooth="yes"/>
      <point x="628" y="-462"/>
      <point x="781" y="-400"/>
      <point x="781" y="-227" type="curve" smooth="yes"/>
      <point x="781" y="-134"/>
      <point x="716" y="-87"/>
      <point x="620" y="-87" type="curve" smooth="yes"/>
      <point x="572" y="-87"/>
      <point x="507" y="-106"/>
      <point x="488" y="-119" type="curve"/>
      <point x="529" y="39" type="line"/>
      <point x="457" y="43" type="line"/>
      <point x="390" y="-212" type="line"/>
      <point x="433" y="-194"/>
      <point x="535" y="-159"/>
      <point x="593" y="-159" type="curve" smooth="yes"/>
      <point x="665" y="-159"/>
      <point x="691" y="-189"/>
      <point x="691" y="-242" type="curve" smooth="yes"/>
      <point x="691" y="-362"/>
      <point x="581" y="-392"/>
      <point x="435" y="-392" type="curve" smooth="yes"/>
      <point x="384" y="-392"/>
      <point x="310" y="-374"/>
      <point x="272" y="-364" type="curve"/>
      <point x="245" y="-437" type="line"/>
      <point x="264" y="-444"/>
      <point x="327" y="-462"/>
    </contour>
    <component base="S"/>
  </outline>
</glyph>
<glyph name="Tcedilla" format="2">
  <advance width="1039"/>
  <unicode hex="0162"/>
  <anchor x="407" y="0" name="bottom"/>
  <anchor x="550.68" y="646.0" name="center"/>
  <anchor x="723.507" y="1291.0" name="top"/>
  <outline>
    <contour>
      <point x="351" y="-462" type="curve" smooth="yes"/>
      <point x="548" y="-462"/>
      <point x="701" y="-400"/>
      <point x="701" y="-227" type="curve" smooth="yes"/>
      <point x="701" y="-134"/>
      <point x="636" y="-87"/>
      <point x="540" y="-87" type="curve" smooth="yes"/>
      <point x="492" y="-87"/>
      <point x="427" y="-106"/>
      <point x="408" y="-119" type="curve"/>
      <point x="450" y="-9" type="line"/>
      <point x="357" y="-14" type="line"/>
      <point x="310" y="-212" type="line"/>
      <point x="353" y="-194"/>
      <point x="455" y="-159"/>
      <point x="513" y="-159" type="curve" smooth="yes"/>
      <point x="585" y="-159"/>
      <point x="611" y="-189"/>
      <point x="611" y="-242" type="curve" smooth="yes"/>
      <point x="611" y="-362"/>
      <point x="501" y="-392"/>
      <point x="355" y="-392" type="curve" smooth="yes"/>
      <point x="304" y="-392"/>
      <point x="230" y="-374"/>
      <point x="192" y="-364" type="curve"/>
      <point x="165" y="-437" type="line"/>
      <point x="184" y="-444"/>
      <point x="247" y="-462"/>
    </contour>
    <component base="T"/>
  </outline>
</glyph>
<glyph name="Uogonek" format="2">
  <advance width="1212"/>
  <unicode hex="0172"/>
  <anchor x="463.585" y="0.0" name="bottom"/>
  <anchor x="682" y="0" name="ogonek"/>
  <anchor x="842" y="1325" name="top"/>
  <anchor x="1206" y="1174" name="topright"/>
  <outline>
    <contour>
      <point x="841" y="-355" type="line"/>
      <point x="768" y="-388"/>
      <point x="719" y="-408"/>
      <point x="625" y="-408" type="curve" smooth="yes"/>
      <point x="535" y="-408"/>
      <point x="478" y="-377"/>
      <point x="478" y="-275" type="curve" smooth="yes"/>
      <point x="478" y="-162"/>
      <point x="618" y="-38"/>
      <point x="720" y="15" type="curve"/>
      <point x="655" y="60" type="line"/>
      <point x="526" y="-9"/>
      <point x="392" y="-139"/>
      <point x="392" y="-282" type="curve" smooth="yes"/>
      <point x="392" y="-411"/>
      <point x="472" y="-488"/>
      <point x="609" y="-488" type="curve" smooth="yes"/>
      <point x="713" y="-488"/>
      <point x="785" y="-466"/>
      <point x="841" y="-442" type="curve"/>
    </contour>
    <component base="U"/>
  </outline>
</glyph>
<glyph name="ohorn" format="2">
  <advance width="1240"/>
  <unicode hex="01A1"/>
  <anchor x="428" y="0" name="bottom"/>
  <anchor x="712" y="1063" name="top"/>
  <outline>
    <contour>
      <point x="471" y="-39" type="curve" smooth="yes"/>
      <point x="858" y="-39"/>
      <point x="1081" y="305"/>
      <point x="1081" y="691" type="curve" smooth="yes"/>
      <point x="1081" y="933"/>
      <point x="968" y="1077"/>
      <point x="725" y="1077" type="curve" smooth="yes"/>
      <point x="328" y="1077"/>
      <point x="83" y="732"/>
      <point x="83" y="340" type="curve" smooth="yes"/>
      <point x="83" y="119"/>
      <point x="208" y="-39"/>
    </contour>
    <contour>
      <point x="476" y="32" type="curve" smooth="yes"/>
      <point x="273" y="32"/>
      <point x="171" y="163"/>
      <point x="171" y="346" type="curve" smooth="yes"/>
      <point x="171" y="669"/>
      <point x="379" y="1002"/>
      <point x="710" y="1002" type="curve" smooth="yes"/>
      <point x="909" y="1002"/>
      <point x="999" y="878"/>
      <point x="999" y="682" type="curve" smooth="yes"/>
      <point x="999" y="356"/>
      <point x="795" y="32"/>
    </contour>
    <contour>
      <point x="948" y="909" type="line"/>
      <point x="1100" y="909"/>
      <point x="1305" y="1003"/>
      <point x="1360" y="1205" type="curve"/>
      <point x="1345" y="1214"/>
      <point x="1301" y="1221"/>
      <point x="1270" y="1221" type="curve"/>
      <point x="1237" y="1098"/>
      <point x="1134" y="981"/>
      <point x="945" y="981" type="curve"/>
    </contour>
  </outline>
</glyph>
<glyph name="Uhorn" format="2">
  <advance width="1304"/>
  <unicode hex="01AF"/>
  <anchor x="510" y="0" name="bottom"/>
  <anchor x="852" y="1331" name="top"/>
  <outline>
    <contour>
      <point x="515" y="-43" type="curve" smooth="yes"/>
      <point x="875" y="-43"/>
      <point x="1014" y="304"/>
      <point x="1151" y="818" type="curve" smooth="yes"/>
      <point x="1192" y="971"/>
      <point x="1231" y="1152"/>
      <point x="1248" y="1277" type="curve"/>
      <point x="1391" y="1308"/>
      <point x="1479" y="1412"/>
      <point x="1526" y="1564" type="curve"/>
      <point x="1512" y="1573"/>
      <point x="1467" y="1580"/>
      <point x="1436" y="1580" type="curve"/>
      <point x="1394" y="1421"/>
      <point x="1313" y="1340"/>
      <point x="1161" y="1330" type="curve"/>
      <point x="1138" y="1144"/>
      <point x="1080" y="892"/>
      <point x="1036" y="728" type="curve" smooth="yes"/>
      <point x="915" y="275"/>
      <point x="749" y="32"/>
      <point x="530" y="32" type="curve" smooth="yes"/>
      <point x="359" y="32"/>
      <point x="306" y="129"/>
      <point x="306" y="360" type="curve" smooth="yes"/>
      <point x="306" y="464"/>
      <point x="320" y="602"/>
      <point x="360" y="757" type="curve" smooth="yes"/>
      <point x="405" y="932"/>
      <point x="485" y="1185"/>
      <point x="549" y="1362" type="curve"/>
      <point x="539" y="1365"/>
      <point x="517" y="1368"/>
      <point x="492" y="1368" type="curve" smooth="yes"/>
      <point x="477" y="1368"/>
      <point x="461" y="1366"/>
      <point x="451" y="1364" type="curve"/>
      <point x="412" y="1243"/>
      <point x="325" y="963"/>
      <point x="276" y="780" type="curve" smooth="yes"/>
      <point x="232" y="617"/>
      <point x="214" y="469"/>
      <point x="214" y="346" type="curve" smooth="yes"/>
      <point x="214" y="106"/>
      <point x="288" y="-43"/>
    </contour>
  </outline>
</glyph>
<glyph name="udieresiscaron" format="2">
  <advance width="1178"/>
  <unicode hex="01DA"/>
  <anchor x="446.585" y="0.0" name="bottom"/>
  <anchor x="652" y="0" name="ogonek"/>
  <anchor x="797" y="1397" name="top"/>
  <anchor x="1054" y="940" name="topright"/>
  <outline>
    <contour>
      <point x="1187" y="1807" type="curve"/>
      <point x="1084" y="1728"/>
      <point x="900" y="1578"/>
      <point x="827" y="1517" type="curve"/>
      <point x="839" y="1517" type="line"/>
      <point x="820" y="1536"/>
      <point x="718" y="1709"/>
      <point x="668" y="1816" type="curve"/>
      <point x="641" y="1804"/>
      <point x="617" y="1792"/>
      <point x="602" y="1778" type="curve"/>
      <point x="665" y="1666"/>
      <point x="726" y="1571"/>
      <point x="787" y="1480" type="curve"/>
      <point x="808" y="1479"/>
      <point x="842" y="1478"/>
      <point x="867" y="1478" type="curve"/>
      <point x="909" y="1507"/>
      <point x="1029" y="1592"/>
      <point x="1258" y="1762" type="curve"/>
      <point x="1245" y="1775"/>
      <point x="1217" y="1795"/>
    </contour>
    <component base="u"/>
    <component base="dieresiscomb" xOffset="104"/>
  </outline>
</glyph>
<glyph name="Oogonek" format="2">
  <advance width="1354"/>
  <unicode hex="01EA"/>
  <anchor x="534.585" y="0.0" name="bottom"/>
  <anchor x="652" y="646" name="center"/>
  <anchor x="764" y="0" name="ogonek"/>
  <anchor x="880.507" y="1291.0" name="top"/>
  <anchor x="223.507" y="1291.0" name="topleft"/>
  <anchor x="1165" y="1173" name="topright"/>
  <outline>
    <contour>
      <point x="926" y="-352" type="line"/>
      <point x="853" y="-385"/>
      <point x="804" y="-405"/>
      <point x="710" y="-405" type="curve" smooth="yes"/>
      <point x="620" y="-405"/>
      <point x="563" y="-374"/>
      <point x="563" y="-272" type="curve" smooth="yes"/>
      <point x="563" y="-159"/>
      <point x="703" y="-35"/>
      <point x="805" y="18" type="curve"/>
      <point x="740" y="63" type="line"/>
      <point x="611" y="-6"/>
      <point x="477" y="-136"/>
      <point x="477" y="-279" type="curve" smooth="yes"/>
      <point x="477" y="-408"/>
      <point x="557" y="-485"/>
      <point x="694" y="-485" type="curve" smooth="yes"/>
      <point x="798" y="-485"/>
      <point x="870" y="-463"/>
      <point x="926" y="-439" type="curve"/>
    </contour>
    <component base="O"/>
  </outline>
</glyph>
<glyph name="jdotless" format="2">
  <advance width="611"/>
  <unicode hex="0237"/>
  <anchor x="-52" y="-530" name="bottom"/>
  <anchor x="414" y="982" name="top"/>
  <outline>
    <contour>
      <point x="-155" y="-537" type="curve" smooth="yes"/>
      <point x="101" y="-537"/>
      <point x="209" y="-254"/>
      <point x="295" y="70" type="curve" smooth="yes"/>
      <point x="363" y="325"/>
      <point x="422" y="648"/>
      <point x="440" y="917" type="curve"/>
      <point x="431" y="917"/>
      <point x="413" y="916"/>
      <point x="400" y="915" type="curve" smooth="yes"/>
      <point x="386" y="914"/>
      <point x="368" y="911"/>
      <point x="358" y="908" type="curve"/>
      <point x="326" y="626"/>
      <point x="278" y="335"/>
      <point x="214" y="94" type="curve" smooth="yes"/>
      <point x="146" y="-161"/>
      <point x="40" y="-461"/>
      <point x="-151" y="-461" type="curve" smooth="yes"/>
      <point x="-303" y="-461"/>
      <point x="-364" y="-303"/>
      <point x="-377" y="-186" type="curve"/>
      <point x="-404" y="-200"/>
      <point x="-448" y="-228"/>
      <point x="-470" y="-246" type="curve"/>
      <point x="-448" y="-421"/>
      <point x="-330" y="-537"/>
    </contour>
  </outline>
</glyph>
<glyph name="acutecomb" format="2">
  <unicode hex="0301"/>
  <anchor x="449" y="1063" name="_top"/>
  <anchor x="550" y="1436" name="top"/>
  <outline>
    <contour>
      <point x="664" y="1438" type="curve"/>
      <point x="585" y="1414"/>
      <point x="348" y="1226"/>
      <point x="291" y="1156" type="curve"/>
      <point x="301" y="1150"/>
      <point x="329" y="1141"/>
      <point x="343" y="1137" type="curve"/>
      <point x="389" y="1169"/>
      <point x="690" y="1350"/>
      <point x="739" y="1371" type="curve"/>
      <point x="722" y="1397"/>
      <point x="689" y="1428"/>
    </contour>
  </outline>
</glyph>
<glyph name="circumflexcomb" format="2">
  <unicode hex="0302"/>
  <anchor x="618" y="1063" name="_top"/>
  <anchor x="721" y="1411" name="top"/>
  <outline>
    <contour>
      <point x="897" y="1221"/>
      <point x="804" y="1334"/>
      <point x="741" y="1409" type="curve"/>
      <point x="724" y="1411"/>
      <point x="705" y="1411"/>
      <point x="691" y="1411" type="curve"/>
      <point x="645" y="1384"/>
      <point x="429" y="1249"/>
      <point x="295" y="1165" type="curve"/>
      <point x="304" y="1155"/>
      <point x="352" y="1129"/>
      <point x="363" y="1124" type="curve"/>
      <point x="447" y="1173"/>
      <point x="690" y="1336"/>
      <point x="714" y="1353" type="curve"/>
      <point x="699" y="1353" type="line"/>
      <point x="715" y="1337"/>
      <point x="856" y="1166"/>
      <point x="901" y="1098" type="curve"/>
      <point x="921" y="1110"/>
      <point x="941" y="1122"/>
      <point x="958" y="1141" type="curve"/>
    </contour>
  </outline>
</glyph>
<glyph name="tildecomb" format="2">
  <unicode hex="0303"/>
  <anchor x="646" y="1063" name="_top"/>
  <anchor x="728" y="1395" name="top"/>
  <outline>
    <contour>
      <point x="308" y="1207" type="curve"/>
      <point x="375" y="1167" type="line"/>
      <point x="406" y="1246"/>
      <point x="466" y="1317"/>
      <point x="548" y="1317" type="curve" smooth="yes"/>
      <point x="596" y="1317"/>
      <point x="635" y="1274"/>
      <point x="677" y="1227" type="curve" smooth="yes"/>
      <point x="729" y="1168"/>
      <point x="788" y="1102"/>
      <point x="879" y="1102" type="curve" smooth="yes"/>
      <point x="995" y="1102"/>
      <point x="1062" y="1218"/>
      <point x="1079" y="1271" type="curve"/>
      <point x="1002" y="1300" type="line"/>
      <point x="981" y="1230"/>
      <point x="940" y="1175"/>
      <point x="878" y="1175" type="curve" smooth="yes"/>
      <point x="811" y="1175"/>
      <point x="766" y="1224"/>
      <point x="722" y="1275" type="curve" smooth="yes"/>
      <point x="675" y="1330"/>
      <point x="624" y="1384"/>
      <point x="544" y="1384" type="curve" smooth="yes"/>
      <point x="426" y="1384"/>
      <point x="335" y="1282"/>
    </contour>
  </outline>
</glyph>
<glyph name="macroncomb" format="2">
  <unicode hex="0304"/>
  <anchor x="673" y="1063" name="_top"/>
  <anchor x="737" y="1267" name="top"/>
  <outline>
    <contour>
      <point x="1055" y="1193" type="curve"/>
      <point x="1061" y="1217"/>
      <point x="1068" y="1245"/>
      <point x="1068" y="1252" type="curve"/>
      <point x="907" y="1252"/>
      <point x="449" y="1223"/>
      <point x="370" y="1211" type="curve"/>
      <point x="361" y="1202"/>
      <point x="351" y="1175"/>
      <point x="347" y="1161" type="curve"/>
      <point x="544" y="1176"/>
      <point x="864" y="1193"/>
    </contour>
  </outline>
</glyph>
<glyph name="brevecomb" format="2">
  <unicode hex="0306"/>
  <anchor x="563" y="1063" name="_top"/>
  <anchor x="681" y="1504" name="top"/>
  <outline>
    <contour>
      <point x="931" y="1481" type="curve"/>
      <point x="913" y="1486"/>
      <point x="883" y="1494"/>
      <point x="860" y="1494" type="curve"/>
      <point x="843" y="1355"/>
      <point x="771" y="1193"/>
      <point x="609" y="1193" type="curve" smooth="yes"/>
      <point x="489" y="1193"/>
      <point x="425" y="1253"/>
      <point x="425" y="1379" type="curve" smooth="yes"/>
      <point x="425" y="1414"/>
      <point x="429" y="1451"/>
      <point x="433" y="1488" type="curve"/>
      <point x="406" y="1488"/>
      <point x="388" y="1487"/>
      <point x="360" y="1481" type="curve"/>
      <point x="357" y="1451"/>
      <point x="354" y="1417"/>
      <point x="354" y="1389" type="curve" smooth="yes"/>
      <point x="354" y="1232"/>
      <point x="413" y="1123"/>
      <point x="602" y="1123" type="curve" smooth="yes"/>
      <point x="769" y="1123"/>
      <point x="906" y="1277"/>
    </contour>
  </outline>
</glyph>
<glyph name="dotaccentcomb" format="2">
  <unicode hex="0307"/>
  <anchor x="356" y="1063" name="_top"/>
  <anchor x="451" y="1404" name="top"/>
  <outline>
    <contour>
      <point x="417" y="1404" type="curve" smooth="yes"/>
      <point x="373" y="1404"/>
      <point x="332" y="1368"/>
      <point x="332" y="1298" type="curve" smooth="yes"/>
      <point x="332" y="1239"/>
      <point x="380" y="1213"/>
      <point x="429" y="1213" type="curve" smooth="yes"/>
      <point x="478" y="1213"/>
      <point x="508" y="1254"/>
      <point x="508" y="1317" type="curve" smooth="yes"/>
      <point x="508" y="1365"/>
      <point x="468" y="1404"/>
    </contour>
  </outline>
</glyph>
<glyph name="hookabovecomb" format="2">
  <unicode hex="0309"/>
  <anchor x="382.703" y="1063" name="_top"/>
  <anchor x="493.098" y="1475" name="top"/>
  <outline>
    <contour>
      <point x="397" y="1236" type="curve"/>
      <point x="508" y="1236"/>
      <point x="649" y="1258"/>
      <point x="649" y="1380" type="curve" smooth="yes"/>
      <point x="649" y="1454"/>
      <point x="588" y="1477"/>
      <point x="453" y="1477" type="curve" smooth="yes"/>
      <point x="402" y="1477"/>
      <point x="320" y="1467"/>
      <point x="307" y="1465" type="curve"/>
      <point x="304" y="1407" type="line"/>
      <point x="335" y="1412"/>
      <point x="412" y="1418"/>
      <point x="445" y="1418" type="curve" smooth="yes"/>
      <point x="518" y="1418"/>
      <point x="583" y="1418"/>
      <point x="583" y="1369" type="curve" smooth="yes"/>
      <point x="583" y="1298"/>
      <point x="461" y="1292"/>
      <point x="340" y="1292" type="curve"/>
      <point x="335" y="1272"/>
      <point x="311" y="1185"/>
      <point x="301" y="1151" type="curve"/>
      <point x="375" y="1155" type="line"/>
      <point x="382" y="1176"/>
      <point x="392" y="1209"/>
    </contour>
  </outline>
</glyph>
<glyph name="ringcomb" format="2">
  <unicode hex="030A"/>
  <anchor x="553" y="1063" name="_top"/>
  <anchor x="685" y="1602" name="top"/>
  <outline>
    <contour>
      <point x="574" y="1166" type="curve" smooth="yes"/>
      <point x="724" y="1166"/>
      <point x="868" y="1286"/>
      <point x="868" y="1439" type="curve" smooth="yes"/>
      <point x="868" y="1532"/>
      <point x="781" y="1602"/>
      <point x="675" y="1602" type="curve" smooth="yes"/>
      <point x="522" y="1602"/>
      <point x="385" y="1478"/>
      <point x="385" y="1330" type="curve" smooth="yes"/>
      <point x="385" y="1230"/>
      <point x="468" y="1166"/>
    </contour>
    <contour>
      <point x="586" y="1237" type="curve" smooth="yes"/>
      <point x="513" y="1237"/>
      <point x="473" y="1274"/>
      <point x="473" y="1339" type="curve" smooth="yes"/>
      <point x="473" y="1440"/>
      <point x="553" y="1530"/>
      <point x="659" y="1530" type="curve" smooth="yes"/>
      <point x="737" y="1530"/>
      <point x="781" y="1482"/>
      <point x="781" y="1417" type="curve" smooth="yes"/>
      <point x="781" y="1322"/>
      <point x="680" y="1237"/>
    </contour>
  </outline>
</glyph>
<glyph name="hungarumlautcomb" format="2">
  <unicode hex="030B"/>
  <anchor x="728" y="1063" name="_top"/>
  <anchor x="919" y="1563" name="top"/>
  <outline>
    <contour>
      <point x="919" y="1563" type="curve"/>
      <point x="812" y="1505"/>
      <point x="595" y="1325"/>
      <point x="529" y="1257" type="curve"/>
      <point x="587" y="1221" type="line"/>
      <point x="642" y="1271"/>
      <point x="885" y="1457"/>
      <point x="1015" y="1534" type="curve"/>
      <point x="998" y="1555"/>
      <point x="965" y="1561"/>
    </contour>
    <contour>
      <point x="1224" y="1486" type="curve"/>
      <point x="1138" y="1461"/>
      <point x="942" y="1325"/>
      <point x="846" y="1235" type="curve"/>
      <point x="934" y="1220" type="line"/>
      <point x="1046" y="1302"/>
      <point x="1203" y="1392"/>
      <point x="1303" y="1430" type="curve"/>
      <point x="1293" y="1455"/>
      <point x="1251" y="1478"/>
    </contour>
  </outline>
</glyph>
<glyph name="dblgravecomb" format="2">
  <unicode hex="030F"/>
  <anchor x="570.633" y="1063" name="_top"/>
  <anchor x="675.937" y="1456" name="top"/>
  <outline>
    <contour>
      <point x="318" y="1392" type="curve"/>
      <point x="298" y="1382"/>
      <point x="269" y="1353"/>
      <point x="255" y="1333" type="curve"/>
      <point x="373" y="1300"/>
      <point x="600" y="1210"/>
      <point x="675" y="1158" type="curve"/>
      <point x="680" y="1164"/>
      <point x="701" y="1197"/>
      <point x="704" y="1203" type="curve"/>
      <point x="621" y="1297"/>
      <point x="370" y="1381"/>
    </contour>
    <contour>
      <point x="659" y="1456" type="curve"/>
      <point x="639" y="1448"/>
      <point x="606" y="1424"/>
      <point x="591" y="1407" type="curve"/>
      <point x="698" y="1356"/>
      <point x="900" y="1232"/>
      <point x="964" y="1168" type="curve"/>
      <point x="969" y="1173"/>
      <point x="993" y="1202"/>
      <point x="998" y="1210" type="curve"/>
      <point x="935" y="1318"/>
      <point x="699" y="1447"/>
    </contour>
  </outline>
</glyph>
<glyph name="commaturnedabovecomb" format="2">
  <unicode hex="0312"/>
  <anchor x="285" y="1063" name="_top"/>
  <anchor x="379" y="1473" name="top"/>
  <outline>
    <contour>
      <point x="402" y="1473" type="curve"/>
      <point x="327" y="1413"/>
      <point x="234" y="1330"/>
      <point x="234" y="1219" type="curve" smooth="yes"/>
      <point x="234" y="1171"/>
      <point x="270" y="1131"/>
      <point x="335" y="1131" type="curve" smooth="yes"/>
      <point x="423" y="1131"/>
      <point x="443" y="1206"/>
      <point x="443" y="1237" type="curve" smooth="yes"/>
      <point x="443" y="1266"/>
      <point x="428" y="1294"/>
      <point x="380" y="1294" type="curve" smooth="yes"/>
      <point x="319" y="1294"/>
      <point x="293" y="1259"/>
      <point x="283" y="1227" type="curve"/>
      <point x="284" y="1233"/>
      <point x="284" y="1239"/>
      <point x="284" y="1249" type="curve" smooth="yes"/>
      <point x="284" y="1309"/>
      <point x="378" y="1410"/>
      <point x="430" y="1454" type="curve"/>
      <point x="417" y="1462"/>
      <point x="407" y="1469"/>
    </contour>
  </outline>
</glyph>
<glyph name="horncomb" format="2">
  <unicode hex="031B"/>
  <anchor x="240" y="1036" name="_topright"/>
  <anchor x="608" y="1287" name="topright"/>
  <outline>
    <contour>
      <point x="232" y="974" type="line"/>
      <point x="384" y="974"/>
      <point x="518" y="1088"/>
      <point x="584" y="1271" type="curve"/>
      <point x="569" y="1280"/>
      <point x="525" y="1287"/>
      <point x="494" y="1287" type="curve"/>
      <point x="461" y="1164"/>
      <point x="404" y="1036"/>
      <point x="240" y="1036" type="curve"/>
    </contour>
  </outline>
</glyph>
<glyph name="brevebelowcomb" format="2">
  <unicode hex="032E"/>
  <anchor x="282" y="0" name="_bottom"/>
  <anchor x="144" y="-517" name="bottom"/>
  <outline>
    <contour>
      <point x="492" y="-160" type="curve"/>
      <point x="474" y="-155"/>
      <point x="444" y="-147"/>
      <point x="421" y="-147" type="curve"/>
      <point x="404" y="-286"/>
      <point x="332" y="-448"/>
      <point x="170" y="-448" type="curve" smooth="yes"/>
      <point x="51" y="-448"/>
      <point x="-14" y="-390"/>
      <point x="-14" y="-262" type="curve" smooth="yes"/>
      <point x="-14" y="-227"/>
      <point x="-11" y="-191"/>
      <point x="-6" y="-153" type="curve"/>
      <point x="-33" y="-153"/>
      <point x="-51" y="-154"/>
      <point x="-79" y="-160" type="curve"/>
      <point x="-83" y="-193"/>
      <point x="-85" y="-224"/>
      <point x="-85" y="-252" type="curve" smooth="yes"/>
      <point x="-85" y="-409"/>
      <point x="-26" y="-518"/>
      <point x="163" y="-518" type="curve" smooth="yes"/>
      <point x="330" y="-518"/>
      <point x="467" y="-364"/>
    </contour>
  </outline>
</glyph>
<glyph name="strokelongcomb" format="2">
  <unicode hex="0336"/>
  <anchor x="531" y="573" name="_center"/>
  <outline>
    <contour>
      <point x="960" y="565" type="curve"/>
      <point x="967" y="589"/>
      <point x="973" y="617"/>
      <point x="973" y="624" type="curve"/>
      <point x="780" y="624"/>
      <point x="232" y="595"/>
      <point x="138" y="583" type="curve"/>
      <point x="129" y="574"/>
      <point x="119" y="547"/>
      <point x="115" y="533" type="curve"/>
      <point x="350" y="548"/>
      <point x="731" y="565"/>
    </contour>
  </outline>
</glyph>
<glyph name="Ecedillabreve" format="2">
  <advance width="957"/>
  <unicode hex="1E1C"/>
  <anchor x="336.585" y="0.0" name="bottom"/>
  <anchor x="581" y="0" name="ogonek"/>
  <anchor x="746" y="1757" name="top"/>
  <anchor x="223.507" y="1291.0" name="topleft"/>
  <outline>
    <contour>
      <point x="288" y="-462" type="curve" smooth="yes"/>
      <point x="485" y="-462"/>
      <point x="638" y="-400"/>
      <point x="638" y="-227" type="curve" smooth="yes"/>
      <point x="638" y="-134"/>
      <point x="573" y="-87"/>
      <point x="477" y="-87" type="curve" smooth="yes"/>
      <point x="429" y="-87"/>
      <point x="364" y="-106"/>
      <point x="345" y="-119" type="curve"/>
      <point x="386" y="39" type="line"/>
      <point x="314" y="43" type="line"/>
      <point x="247" y="-212" type="line"/>
      <point x="290" y="-194"/>
      <point x="392" y="-159"/>
      <point x="450" y="-159" type="curve" smooth="yes"/>
      <point x="522" y="-159"/>
      <point x="548" y="-189"/>
      <point x="548" y="-242" type="curve" smooth="yes"/>
      <point x="548" y="-362"/>
      <point x="438" y="-392"/>
      <point x="292" y="-392" type="curve" smooth="yes"/>
      <point x="241" y="-392"/>
      <point x="167" y="-374"/>
      <point x="129" y="-364" type="curve"/>
      <point x="102" y="-437" type="line"/>
      <point x="121" y="-444"/>
      <point x="184" y="-462"/>
    </contour>
    <component base="E"/>
    <component base="brevecomb.case" xOffset="37" yOffset="20"/>
  </outline>
</glyph>
<glyph name="emdash" format="2">
  <advance width="1667"/>
  <unicode hex="2014"/>
  <outline>
    <contour>
      <point x="1658" y="730" type="curve"/>
      <point x="1604" y="732"/>
      <point x="1446" y="733"/>
      <point x="1322" y="733" type="curve" smooth="yes"/>
      <point x="1282" y="733"/>
      <point x="209" y="730"/>
      <point x="135" y="728" type="curve"/>
      <point x="128" y="704"/>
      <point x="123" y="677"/>
      <point x="120" y="658" type="curve"/>
      <point x="311" y="661"/>
      <point x="1348" y="674"/>
      <point x="1652" y="674" type="curve"/>
      <point x="1654" y="685"/>
      <point x="1658" y="713"/>
    </contour>
  </outline>
</glyph>
<glyph name="quotedblright" format="2">
  <advance width="981"/>
  <unicode hex="201D"/>
  <outline>
    <contour>
      <point x="382" y="973" type="curve"/>
      <point x="517" y="1056"/>
      <point x="648" y="1171"/>
      <point x="648" y="1311" type="curve" smooth="yes"/>
      <point x="648" y="1386"/>
      <point x="608" y="1417"/>
      <point x="517" y="1417" type="curve" smooth="yes"/>
      <point x="424" y="1417"/>
      <point x="359" y="1362"/>
      <point x="359" y="1271" type="curve" smooth="yes"/>
      <point x="359" y="1220"/>
      <point x="387" y="1178"/>
      <point x="445" y="1178" type="curve" smooth="yes"/>
      <point x="503" y="1178"/>
      <point x="558" y="1211"/>
      <point x="574" y="1256" type="curve"/>
      <point x="555" y="1185"/>
      <point x="477" y="1073"/>
      <point x="356" y="1009" type="curve"/>
      <point x="362" y="997"/>
      <point x="370" y="984"/>
    </contour>
    <contour>
      <point x="822" y="1004" type="curve"/>
      <point x="916" y="1066"/>
      <point x="1040" y="1206"/>
      <point x="1040" y="1309" type="curve" smooth="yes"/>
      <point x="1040" y="1368"/>
      <point x="996" y="1417"/>
      <point x="919" y="1417" type="curve" smooth="yes"/>
      <point x="841" y="1417"/>
      <point x="759" y="1374"/>
      <point x="759" y="1281" type="curve" smooth="yes"/>
      <point x="759" y="1236"/>
      <point x="784" y="1193"/>
      <point x="852" y="1193" type="curve" smooth="yes"/>
      <point x="912" y="1193"/>
      <point x="954" y="1220"/>
      <point x="977" y="1251" type="curve"/>
      <point x="948" y="1169"/>
      <point x="861" y="1076"/>
      <point x="791" y="1033" type="curve"/>
      <point x="799" y="1019"/>
      <point x="814" y="1008"/>
    </contour>
  </outline>
</glyph>
<glyph name="dagger" format="2">
  <advance width="1048"/>
  <unicode hex="2020"/>
  <outline>
    <contour>
      <point x="996" y="807" type="curve"/>
      <point x="1005" y="840"/>
      <point x="1014" y="879"/>
      <point x="1014" y="889" type="curve"/>
      <point x="830" y="889"/>
      <point x="303" y="849"/>
      <point x="211" y="832" type="curve"/>
      <point x="200" y="819"/>
      <point x="187" y="782"/>
      <point x="182" y="762" type="curve"/>
      <point x="409" y="783"/>
      <point x="777" y="807"/>
    </contour>
    <component base="bar" xOffset="284"/>
  </outline>
</glyph>
<glyph name="perthousand" format="2">
  <advance width="1600"/>
  <unicode hex="2030"/>
  <outline>
    <contour>
      <point x="6" y="155" type="curve"/>
      <point x="243" y="308"/>
      <point x="1360" y="1110"/>
      <point x="1563" y="1277" type="curve"/>
      <point x="1557" y="1295"/>
      <point x="1540" y="1315"/>
      <point x="1527" y="1326" type="curve"/>
      <point x="1271" y="1112"/>
      <point x="388" y="486"/>
      <point x="-21" y="199" type="curve"/>
      <point x="-15" y="185"/>
      <point x="-4" y="168"/>
    </contour>
    <contour>
      <point x="626" y="79" type="curve" smooth="yes"/>
      <point x="533" y="79"/>
      <point x="502" y="128"/>
      <point x="502" y="203" type="curve" smooth="yes"/>
      <point x="502" y="326"/>
      <point x="589" y="424"/>
      <point x="707" y="424" type="curve" smooth="yes"/>
      <point x="796" y="424"/>
      <point x="835" y="379"/>
      <point x="835" y="306" type="curve" smooth="yes"/>
      <point x="835" y="181"/>
      <point x="757" y="79"/>
    </contour>
    <contour>
      <point x="626" y="23" type="curve" smooth="yes"/>
      <point x="774" y="23"/>
      <point x="902" y="154"/>
      <point x="902" y="312" type="curve" smooth="yes"/>
      <point x="902" y="415"/>
      <point x="844" y="491"/>
      <point x="711" y="491" type="curve" smooth="yes"/>
      <point x="563" y="491"/>
      <point x="437" y="350"/>
      <point x="437" y="191" type="curve" smooth="yes"/>
      <point x="437" y="81"/>
      <point x="501" y="23"/>
    </contour>
    <contour>
      <point x="511" y="821" type="curve" smooth="yes"/>
      <point x="668" y="821"/>
      <point x="796" y="935"/>
      <point x="796" y="1100" type="curve" smooth="yes"/>
      <point x="796" y="1199"/>
      <point x="735" y="1258"/>
      <point x="622" y="1258" type="curve" smooth="yes"/>
      <point x="461" y="1258"/>
      <point x="334" y="1137"/>
      <point x="334" y="982" type="curve" smooth="yes"/>
      <point x="334" y="887"/>
      <point x="398" y="821"/>
    </contour>
    <contour>
      <point x="527" y="880" type="curve" smooth="yes"/>
      <point x="441" y="880"/>
      <point x="400" y="916"/>
      <point x="400" y="984" type="curve" smooth="yes"/>
      <point x="400" y="1111"/>
      <point x="490" y="1203"/>
      <point x="627" y="1203" type="curve" smooth="yes"/>
      <point x="692" y="1203"/>
      <point x="726" y="1162"/>
      <point x="726" y="1088" type="curve" smooth="yes"/>
      <point x="726" y="965"/>
      <point x="645" y="880"/>
    </contour>
    <contour>
      <point x="1224" y="359" type="curve" smooth="yes"/>
      <point x="1391" y="359"/>
      <point x="1526" y="489"/>
      <point x="1526" y="651" type="curve" smooth="yes"/>
      <point x="1526" y="762"/>
      <point x="1449" y="827"/>
      <point x="1352" y="827" type="curve" smooth="yes"/>
      <point x="1177" y="827"/>
      <point x="1058" y="709"/>
      <point x="1058" y="538" type="curve" smooth="yes"/>
      <point x="1058" y="433"/>
      <point x="1125" y="359"/>
    </contour>
    <contour>
      <point x="1238" y="426" type="curve" smooth="yes"/>
      <point x="1162" y="426"/>
      <point x="1124" y="474"/>
      <point x="1124" y="552" type="curve" smooth="yes"/>
      <point x="1124" y="682"/>
      <point x="1207" y="771"/>
      <point x="1343" y="771" type="curve" smooth="yes"/>
      <point x="1424" y="771"/>
      <point x="1457" y="735"/>
      <point x="1457" y="658" type="curve" smooth="yes"/>
      <point x="1457" y="516"/>
      <point x="1374" y="426"/>
    </contour>
  </outline>
</glyph>
<glyph name="guilsinglright" format="2">
  <advance width="834"/>
  <unicode hex="203A"/>
  <outline>
    <contour>
      <point x="415" y="1077" type="curve"/>
      <point x="483" y="1009"/>
      <point x="630" y="798"/>
      <point x="724" y="655" type="curve"/>
      <point x="443" y="462"/>
      <point x="65" y="198"/>
      <point x="45" y="183" type="curve"/>
      <point x="53" y="167"/>
      <point x="65" y="146"/>
      <point x="77" y="126" type="curve"/>
      <point x="330" y="289"/>
      <point x="569" y="461"/>
      <point x="804" y="649" type="curve"/>
      <point x="722" y="791"/>
      <point x="578" y="1015"/>
      <point x="485" y="1111" type="curve"/>
      <point x="439" y="1090"/>
      <point x="416" y="1078"/>
    </contour>
  </outline>
</glyph>
<glyph name="fraction" format="2">
  <advance width="83"/>
  <unicode hex="2044"/>
  <outline>
    <contour>
      <point x="538" y="1283"/>
      <point x="513" y="1291" type="curve"/>
      <point x="463" y="1206"/>
      <point x="-269" y="165"/>
      <point x="-397" y="15" type="curve"/>
      <point x="-387" y="6"/>
      <point x="-361" y="-10"/>
      <point x="-345" y="-15" type="curve"/>
      <point x="-212" y="146"/>
      <point x="488" y="1139"/>
      <point x="564" y="1258" type="curve"/>
      <point x="553" y="1272"/>
    </contour>
  </outline>
</glyph>
<glyph name="zerosuperior" format="2">
  <advance width="828"/>
  <unicode hex="2070"/>
  <outline>
    <contour>
      <point x="412" y="481" type="curve" smooth="yes"/>
      <point x="649" y="481"/>
      <point x="767" y="790"/>
      <point x="767" y="1081" type="curve" smooth="yes"/>
      <point x="767" y="1195"/>
      <point x="726" y="1285"/>
      <point x="611" y="1285" type="curve" smooth="yes"/>
      <point x="381" y="1285"/>
      <point x="245" y="972"/>
      <point x="245" y="700" type="curve" smooth="yes"/>
      <point x="245" y="577"/>
      <point x="289" y="481"/>
    </contour>
    <contour>
      <point x="420" y="549" type="curve" smooth="yes"/>
      <point x="346" y="549"/>
      <point x="318" y="609"/>
      <point x="318" y="700" type="curve" smooth="yes"/>
      <point x="318" y="916"/>
      <point x="433" y="1220"/>
      <point x="598" y="1220" type="curve" smooth="yes"/>
      <point x="672" y="1220"/>
      <point x="695" y="1151"/>
      <point x="695" y="1064" type="curve" smooth="yes"/>
      <point x="695" y="832"/>
      <point x="595" y="549"/>
    </contour>
  </outline>
</glyph>
<glyph name="fivesuperior" format="2">
  <advance width="897"/>
  <unicode hex="2075"/>
  <outline>
    <contour>
      <point x="181" y="594" type="curve"/>
      <point x="246" y="530"/>
      <point x="345" y="507"/>
      <point x="477" y="507" type="curve" smooth="yes"/>
      <point x="715" y="507"/>
      <point x="900" y="628"/>
      <point x="900" y="850" type="curve" smooth="yes"/>
      <point x="900" y="958"/>
      <point x="841" y="1055"/>
      <point x="698" y="1055" type="curve" smooth="yes"/>
      <point x="550" y="1055"/>
      <point x="443" y="976"/>
      <point x="418" y="934" type="curve"/>
      <point x="425" y="959"/>
      <point x="449" y="1096"/>
      <point x="455" y="1168" type="curve"/>
      <point x="491" y="1176"/>
      <point x="679" y="1192"/>
      <point x="887" y="1205" type="curve"/>
      <point x="889" y="1218"/>
      <point x="892" y="1249"/>
      <point x="892" y="1267" type="curve"/>
      <point x="799" y="1262"/>
      <point x="496" y="1230"/>
      <point x="385" y="1213" type="curve"/>
      <point x="372" y="1071"/>
      <point x="359" y="952"/>
      <point x="333" y="835" type="curve"/>
      <point x="344" y="833"/>
      <point x="357" y="833"/>
      <point x="369" y="833" type="curve" smooth="yes"/>
      <point x="385" y="833"/>
      <point x="402" y="835"/>
      <point x="410" y="836" type="curve"/>
      <point x="424" y="876"/>
      <point x="525" y="991"/>
      <point x="674" y="991" type="curve" smooth="yes"/>
      <point x="779" y="991"/>
      <point x="820" y="927"/>
      <point x="820" y="844" type="curve" smooth="yes"/>
      <point x="820" y="671"/>
      <point x="666" y="574"/>
      <point x="488" y="574" type="curve" smooth="yes"/>
      <point x="323" y="574"/>
      <point x="265" y="630"/>
      <point x="242" y="658" type="curve"/>
      <point x="224" y="646"/>
      <point x="190" y="607"/>
    </contour>
  </outline>
</glyph>
<glyph name="eightsuperior" format="2">
  <advance width="989"/>
  <unicode hex="2078"/>
  <outline>
    <contour>
      <point x="501" y="495" type="curve" smooth="yes"/>
      <point x="703" y="495"/>
      <point x="880" y="592"/>
      <point x="880" y="771" type="curve" smooth="yes"/>
      <point x="880" y="863"/>
      <point x="812" y="915"/>
      <point x="740" y="925" type="curve"/>
      <point x="863" y="959"/>
      <point x="955" y="1040"/>
      <point x="955" y="1161" type="curve" smooth="yes"/>
      <point x="955" y="1264"/>
      <point x="848" y="1319"/>
      <point x="697" y="1319" type="curve" smooth="yes"/>
      <point x="505" y="1319"/>
      <point x="337" y="1237"/>
      <point x="337" y="1058" type="curve" smooth="yes"/>
      <point x="337" y="988"/>
      <point x="371" y="946"/>
      <point x="420" y="925" type="curve"/>
      <point x="301" y="894"/>
      <point x="195" y="810"/>
      <point x="195" y="683" type="curve" smooth="yes"/>
      <point x="195" y="572"/>
      <point x="286" y="495"/>
    </contour>
    <contour>
      <point x="497" y="555" type="curve" smooth="yes"/>
      <point x="383" y="555"/>
      <point x="269" y="577"/>
      <point x="269" y="686" type="curve" smooth="yes"/>
      <point x="269" y="840"/>
      <point x="441" y="896"/>
      <point x="588" y="896" type="curve" smooth="yes"/>
      <point x="727" y="896"/>
      <point x="803" y="863"/>
      <point x="803" y="769" type="curve" smooth="yes"/>
      <point x="803" y="619"/>
      <point x="654" y="555"/>
    </contour>
    <contour>
      <point x="603" y="954" type="curve" smooth="yes"/>
      <point x="488" y="954"/>
      <point x="413" y="974"/>
      <point x="413" y="1061" type="curve" smooth="yes"/>
      <point x="413" y="1190"/>
      <point x="534" y="1259"/>
      <point x="683" y="1259" type="curve" smooth="yes"/>
      <point x="807" y="1259"/>
      <point x="878" y="1224"/>
      <point x="878" y="1147" type="curve" smooth="yes"/>
      <point x="878" y="1018"/>
      <point x="748" y="954"/>
    </contour>
  </outline>
</glyph>
<glyph name="lira" format="2">
  <advance width="1140"/>
  <unicode hex="20A4"/>
  <outline>
    <contour>
      <point x="242" y="676" type="curve" smooth="yes"/>
      <point x="389" y="676"/>
      <point x="733" y="707"/>
      <point x="825" y="721" type="curve"/>
      <point x="828" y="741"/>
      <point x="830" y="779"/>
      <point x="830" y="793" type="curve"/>
      <point x="734" y="783"/>
      <point x="419" y="753"/>
      <point x="232" y="753" type="curve" smooth="yes"/>
      <point x="194" y="753"/>
      <point x="168" y="754"/>
      <point x="145" y="756" type="curve"/>
      <point x="139" y="743"/>
      <point x="125" y="701"/>
      <point x="120" y="682" type="curve"/>
      <point x="142" y="678"/>
      <point x="185" y="676"/>
    </contour>
    <contour>
      <point x="65" y="500" type="curve"/>
      <point x="179" y="493"/>
      <point x="597" y="480"/>
      <point x="740" y="480" type="curve"/>
      <point x="749" y="499"/>
      <point x="762" y="532"/>
      <point x="768" y="551" type="curve"/>
      <point x="672" y="551"/>
      <point x="167" y="569"/>
      <point x="94" y="574" type="curve"/>
      <point x="86" y="561"/>
      <point x="70" y="519"/>
    </contour>
    <component base="sterlira"/>
  </outline>
</glyph>
<glyph name="naira" format="2">
  <advance width="1282"/>
  <unicode hex="20A6"/>
  <anchor x="498.585" y="0.0" name="bottom"/>
  <anchor x="844.507" y="1291.0" name="top"/>
  <outline>
    <contour>
      <point x="207" y="837" type="curve"/>
      <point x="180" y="758" type="line"/>
      <point x="537" y="758"/>
      <point x="895" y="758"/>
      <point x="1252" y="758" type="curve"/>
      <point x="1267" y="830" type="line"/>
      <point x="910" y="830"/>
      <point x="564" y="832"/>
    </contour>
    <contour>
      <point x="137" y="592" type="curve"/>
      <point x="116" y="534" type="line"/>
      <point x="478" y="524"/>
      <point x="900" y="516"/>
      <point x="1202" y="516" type="curve"/>
      <point x="1227" y="584" type="line"/>
      <point x="935" y="584"/>
      <point x="499" y="584"/>
    </contour>
    <component base="N"/>
  </outline>
</glyph>
<glyph name="won" format="2">
  <advance width="1344"/>
  <unicode hex="20A9"/>
  <anchor x="529.585" y="0.0" name="bottom"/>
  <anchor x="875.507" y="1291.0" name="top"/>
  <outline>
    <contour>
      <point x="224" y="765" type="curve"/>
      <point x="197" y="686" type="line"/>
      <point x="413" y="686"/>
      <point x="1061" y="686"/>
      <point x="1269" y="686" type="curve"/>
      <point x="1284" y="758" type="line"/>
      <point x="1076" y="758"/>
      <point x="439" y="761"/>
    </contour>
    <contour>
      <point x="154" y="520" type="curve"/>
      <point x="133" y="462" type="line"/>
      <point x="352" y="456"/>
      <point x="1006" y="444"/>
      <point x="1219" y="444" type="curve"/>
      <point x="1244" y="512" type="line"/>
      <point x="1031" y="512"/>
      <point x="374" y="516"/>
    </contour>
    <component base="W"/>
  </outline>
</glyph>
<glyph name="dong" format="2">
  <advance width="1195"/>
  <unicode hex="20AB"/>
  <anchor x="455.585" y="0.0" name="bottom"/>
  <anchor x="1086" y="1222" name="center"/>
  <anchor x="849.47" y="1470.0" name="top"/>
  <anchor x="1218" y="998" name="topright"/>
  <outline>
    <contour>
      <point x="1339" y="1161" type="curve"/>
      <point x="1345" y="1185"/>
      <point x="1352" y="1213"/>
      <point x="1352" y="1220" type="curve"/>
      <point x="1191" y="1220"/>
      <point x="843" y="1207"/>
      <point x="765" y="1199" type="curve"/>
      <point x="742" y="1149" type="line"/>
      <point x="937" y="1154"/>
      <point x="1224" y="1161"/>
    </contour>
    <contour>
      <point x="843" y="-146" type="curve"/>
      <point x="849" y="-122"/>
      <point x="856" y="-94"/>
      <point x="856" y="-87" type="curve"/>
      <point x="695" y="-87"/>
      <point x="91" y="-100"/>
      <point x="13" y="-108" type="curve"/>
      <point x="4" y="-117"/>
      <point x="-6" y="-144"/>
      <point x="-10" y="-158" type="curve"/>
      <point x="185" y="-153"/>
      <point x="652" y="-146"/>
    </contour>
    <component base="d"/>
  </outline>
</glyph>
<glyph name="euro" format="2">
  <advance width="1243"/>
  <unicode hex="20AC"/>
  <outline>
    <contour>
      <point x="1319" y="1123" type="curve"/>
      <point x="1299" y="1156"/>
      <point x="1215" y="1265"/>
      <point x="987" y="1265" type="curve" smooth="yes"/>
      <point x="602" y="1265"/>
      <point x="299" y="851"/>
      <point x="299" y="442" type="curve" smooth="yes"/>
      <point x="299" y="212"/>
      <point x="404" y="27"/>
      <point x="658" y="27" type="curve" smooth="yes"/>
      <point x="902" y="27"/>
      <point x="1020" y="124"/>
      <point x="1047" y="150" type="curve"/>
      <point x="1047" y="159"/>
      <point x="1042" y="193"/>
      <point x="1030" y="215" type="curve"/>
      <point x="999" y="187"/>
      <point x="897" y="96"/>
      <point x="682" y="96" type="curve" smooth="yes"/>
      <point x="471" y="96"/>
      <point x="386" y="245"/>
      <point x="386" y="447" type="curve" smooth="yes"/>
      <point x="386" y="813"/>
      <point x="632" y="1197"/>
      <point x="981" y="1197" type="curve" smooth="yes"/>
      <point x="1174" y="1197"/>
      <point x="1237" y="1101"/>
      <point x="1258" y="1065" type="curve"/>
      <point x="1282" y="1084"/>
      <point x="1302" y="1101"/>
    </contour>
    <contour>
      <point x="1012" y="840" type="curve"/>
      <point x="866" y="845"/>
      <point x="290" y="850"/>
      <point x="140" y="850" type="curve"/>
      <point x="132" y="821"/>
      <point x="123" y="795"/>
      <point x="115" y="773" type="curve"/>
      <point x="242" y="771"/>
      <point x="858" y="766"/>
      <point x="1000" y="766" type="curve"/>
      <point x="1008" y="796"/>
      <point x="1012" y="818"/>
    </contour>
    <contour>
      <point x="961" y="549" type="curve"/>
      <point x="756" y="529"/>
      <point x="237" y="497"/>
      <point x="54" y="497" type="curve"/>
      <point x="45" y="475"/>
      <point x="38" y="454"/>
      <point x="32" y="431" type="curve"/>
      <point x="167" y="431"/>
      <point x="793" y="456"/>
      <point x="951" y="477" type="curve"/>
      <point x="959" y="508"/>
      <point x="961" y="532"/>
    </contour>
  </outline>
</glyph>
<glyph name="kip" format="2">
  <advance width="1115"/>
  <unicode hex="20AD"/>
  <anchor x="415.585" y="0.0" name="bottom"/>
  <anchor x="761.507" y="1291.0" name="top"/>
  <outline>
    <contour>
      <point x="976" y="659" type="curve"/>
      <point x="982" y="683"/>
      <point x="989" y="711"/>
      <point x="989" y="718" type="curve"/>
      <point x="828" y="718"/>
      <point x="224" y="705"/>
      <point x="146" y="697" type="curve"/>
      <point x="137" y="688"/>
      <point x="127" y="661"/>
      <point x="123" y="647" type="curve"/>
      <point x="318" y="652"/>
      <point x="785" y="659"/>
    </contour>
    <component base="K"/>
  </outline>
</glyph>
<glyph name="guarani" format="2">
  <advance width="1000"/>
  <unicode hex="20B2"/>
  <anchor x="377" y="101" name="bottom"/>
  <anchor x="680" y="1230" name="top"/>
  <outline>
    <contour>
      <point x="779" y="1410" type="curve"/>
      <point x="757" y="1410"/>
      <point x="724" y="1410"/>
      <point x="705" y="1408" type="curve"/>
      <point x="696" y="1374"/>
      <point x="659" y="1251"/>
      <point x="650" y="1222" type="curve"/>
      <point x="725" y="1223" type="line"/>
      <point x="740" y="1263"/>
      <point x="766" y="1358"/>
    </contour>
    <contour>
      <point x="407" y="107" type="curve"/>
      <point x="330" y="112" type="line"/>
      <point x="318" y="78"/>
      <point x="272" y="-53"/>
      <point x="262" y="-82" type="curve"/>
      <point x="284" y="-88"/>
      <point x="314" y="-92"/>
      <point x="335" y="-92" type="curve"/>
      <point x="353" y="-40"/>
      <point x="386" y="51"/>
    </contour>
    <contour>
      <point x="463" y="59" type="curve" smooth="yes"/>
      <point x="762" y="59"/>
      <point x="907" y="239"/>
      <point x="982" y="523" type="curve" smooth="yes"/>
      <point x="995" y="573"/>
      <point x="1006" y="625"/>
      <point x="1014" y="680" type="curve"/>
      <point x="862" y="711"/>
      <point x="620" y="733"/>
      <point x="484" y="742" type="curve"/>
      <point x="478" y="722"/>
      <point x="472" y="689"/>
      <point x="470" y="673" type="curve"/>
      <point x="588" y="666"/>
      <point x="858" y="627"/>
      <point x="919" y="615" type="curve"/>
      <point x="914" y="590"/>
      <point x="906" y="556"/>
      <point x="899" y="530" type="curve" smooth="yes"/>
      <point x="842" y="324"/>
      <point x="741" y="132"/>
      <point x="471" y="132" type="curve" smooth="yes"/>
      <point x="223" y="132"/>
      <point x="122" y="250"/>
      <point x="122" y="468" type="curve" smooth="yes"/>
      <point x="122" y="817"/>
      <point x="329" y="1201"/>
      <point x="683" y="1201" type="curve" smooth="yes"/>
      <point x="825" y="1201"/>
      <point x="911" y="1177"/>
      <point x="971" y="1019" type="curve"/>
      <point x="988" y="1030"/>
      <point x="1020" y="1058"/>
      <point x="1032" y="1072" type="curve"/>
      <point x="1013" y="1145"/>
      <point x="918" y="1271"/>
      <point x="693" y="1271" type="curve" smooth="yes"/>
      <point x="283" y="1271"/>
      <point x="38" y="879"/>
      <point x="38" y="456" type="curve" smooth="yes"/>
      <point x="38" y="206"/>
      <point x="188" y="59"/>
    </contour>
  </outline>
</glyph>
<glyph name="cedi" format="2">
  <advance width="1137"/>
  <unicode hex="20B5"/>
  <anchor x="397" y="0" name="bottom"/>
  <anchor x="743" y="1291" name="top"/>
  <outline>
    <contour>
      <point x="1098" y="1464"/>
      <point x="1085" y="1469" type="curve"/>
      <point x="766" y="930"/>
      <point x="375" y="277"/>
      <point x="105" y="-115" type="curve"/>
      <point x="118" y="-123"/>
      <point x="158" y="-139"/>
      <point x="177" y="-145" type="curve"/>
      <point x="383" y="157"/>
      <point x="787" y="814"/>
      <point x="1163" y="1433" type="curve"/>
      <point x="1155" y="1439"/>
    </contour>
    <component base="C"/>
  </outline>
</glyph>
<glyph name="manat" format="2">
  <advance width="1260"/>
  <unicode hex="20BC"/>
  <outline>
    <contour>
      <point x="35" y="-43" type="curve" smooth="yes"/>
      <point x="60" y="-43"/>
      <point x="87" y="-40"/>
      <point x="99" y="-38" type="curve"/>
      <point x="125" y="122"/>
      <point x="180" y="349"/>
      <point x="222" y="506" type="curve" smooth="yes"/>
      <point x="342" y="955"/>
      <point x="510" y="1140"/>
      <point x="758" y="1140" type="curve" smooth="yes"/>
      <point x="903" y="1140"/>
      <point x="974" y="1052"/>
      <point x="974" y="875" type="curve" smooth="yes"/>
      <point x="974" y="666"/>
      <point x="843" y="233"/>
      <point x="741" y="-9" type="curve"/>
      <point x="772" y="-9"/>
      <point x="813" y="-4"/>
      <point x="844" y="4" type="curve"/>
      <point x="945" y="234"/>
      <point x="1068" y="662"/>
      <point x="1068" y="889" type="curve" smooth="yes"/>
      <point x="1068" y="1100"/>
      <point x="983" y="1226"/>
      <point x="754" y="1226" type="curve" smooth="yes"/>
      <point x="411" y="1226"/>
      <point x="236" y="922"/>
      <point x="119" y="486" type="curve" smooth="yes"/>
      <point x="75" y="321"/>
      <point x="19" y="69"/>
      <point x="-3" y="-39" type="curve"/>
      <point x="6" y="-41"/>
      <point x="20" y="-43"/>
    </contour>
    <contour>
      <point x="470" y="-10" type="curve"/>
      <point x="489" y="38"/>
      <point x="530" y="187"/>
      <point x="579" y="367" type="curve" smooth="yes"/>
      <point x="676" y="723"/>
      <point x="776" y="1136"/>
      <point x="841" y="1424" type="curve"/>
      <point x="818" y="1424"/>
      <point x="795" y="1423"/>
      <point x="782" y="1421" type="curve"/>
      <point x="699" y="1141"/>
      <point x="655" y="991"/>
      <point x="594" y="766" type="curve" smooth="yes"/>
      <point x="504" y="435"/>
      <point x="429" y="142"/>
      <point x="393" y="-6" type="curve"/>
      <point x="405" y="-8"/>
      <point x="458" y="-10"/>
    </contour>
  </outline>
</glyph>
<glyph name="ruble" format="2">
  <advance width="1150"/>
  <unicode hex="20BD"/>
  <outline>
    <contour>
      <point x="229" y="-28" type="curve"/>
      <point x="314" y="282"/>
      <point x="561" y="1098"/>
      <point x="590" y="1193" type="curve"/>
      <point x="699" y="1207"/>
      <point x="783" y="1213"/>
      <point x="849" y="1213" type="curve" smooth="yes"/>
      <point x="993" y="1213"/>
      <point x="1077" y="1159"/>
      <point x="1077" y="1048" type="curve" smooth="yes"/>
      <point x="1077" y="760"/>
      <point x="741" y="669"/>
      <point x="370" y="669" type="curve" smooth="yes"/>
      <point x="334" y="669"/>
      <point x="178" y="671"/>
      <point x="145" y="675" type="curve"/>
      <point x="113" y="599" type="line"/>
      <point x="143" y="597"/>
      <point x="302" y="596"/>
      <point x="331" y="596" type="curve" smooth="yes"/>
      <point x="784" y="596"/>
      <point x="1157" y="693"/>
      <point x="1157" y="1066" type="curve" smooth="yes"/>
      <point x="1157" y="1205"/>
      <point x="1063" y="1284"/>
      <point x="859" y="1284" type="curve" smooth="yes"/>
      <point x="712" y="1284"/>
      <point x="610" y="1265"/>
      <point x="523" y="1248" type="curve"/>
      <point x="334" y="644"/>
      <point x="253" y="370"/>
      <point x="141" y="-26" type="curve"/>
      <point x="160" y="-27"/>
      <point x="201" y="-28"/>
    </contour>
    <contour>
      <point x="34" y="406" type="curve"/>
      <point x="229" y="417"/>
      <point x="527" y="432"/>
      <point x="718" y="432" type="curve"/>
      <point x="725" y="456"/>
      <point x="734" y="494"/>
      <point x="734" y="501" type="curve"/>
      <point x="573" y="501"/>
      <point x="140" y="488"/>
      <point x="62" y="480" type="curve"/>
      <point x="54" y="471"/>
      <point x="41" y="434"/>
    </contour>
  </outline>
</glyph>
<glyph name="numero" format="2">
  <advance width="2000"/>
  <unicode hex="2116"/>
  <anchor x="468.585" y="0.0" name="bottom"/>
  <anchor x="814.507" y="1291.0" name="top"/>
  <outline>
    <contour>
      <point x="1829" y="410" type="curve"/>
      <point x="1780" y="412"/>
      <point x="1675" y="412"/>
      <point x="1548" y="412" type="curve" smooth="yes"/>
      <point x="1415" y="412"/>
      <point x="1274" y="412"/>
      <point x="1192" y="412" type="curve"/>
      <point x="1186" y="390"/>
      <point x="1181" y="365"/>
      <point x="1179" y="348" type="curve"/>
      <point x="1373" y="348"/>
      <point x="1607" y="348"/>
      <point x="1811" y="348" type="curve"/>
      <point x="1817" y="363"/>
      <point x="1825" y="392"/>
    </contour>
    <component base="N" xOffset="-30"/>
    <component base="ordmasculine" xOffset="1111" yOffset="-191"/>
  </outline>
</glyph>
<glyph name="trademark" format="2">
  <advance width="1156"/>
  <unicode hex="2122"/>
  <outline>
    <contour>
      <point x="589" y="799" type="curve"/>
      <point x="650" y="802" type="line"/>
      <point x="654" y="815"/>
      <point x="744" y="1186"/>
      <point x="752" y="1222" type="curve"/>
      <point x="741" y="1217" type="line"/>
      <point x="747" y="1186"/>
      <point x="799" y="858"/>
      <point x="799" y="813" type="curve"/>
      <point x="811" y="810"/>
      <point x="860" y="806"/>
      <point x="880" y="806" type="curve"/>
      <point x="909" y="839"/>
      <point x="1143" y="1169"/>
      <point x="1148" y="1190" type="curve"/>
      <point x="1156" y="1224" type="line"/>
      <point x="1041" y="806" type="line"/>
      <point x="1117" y="802" type="line"/>
      <point x="1167" y="987"/>
      <point x="1212" y="1164"/>
      <point x="1212" y="1263" type="curve"/>
      <point x="1186" y="1272"/>
      <point x="1157" y="1274"/>
      <point x="1133" y="1274" type="curve"/>
      <point x="1096" y="1228"/>
      <point x="890" y="904"/>
      <point x="845" y="845" type="curve"/>
      <point x="856" y="838" type="line"/>
      <point x="844" y="936"/>
      <point x="800" y="1249"/>
      <point x="795" y="1279" type="curve"/>
      <point x="782" y="1279"/>
      <point x="736" y="1272"/>
      <point x="719" y="1268" type="curve"/>
      <point x="704" y="1231"/>
      <point x="683" y="1169"/>
      <point x="644" y="1025" type="curve" smooth="yes"/>
      <point x="613" y="911"/>
      <point x="599" y="854"/>
    </contour>
    <contour>
      <point x="312" y="790" type="curve"/>
      <point x="327" y="788"/>
      <point x="371" y="787"/>
      <point x="388" y="787" type="curve"/>
      <point x="407" y="867"/>
      <point x="468" y="1132"/>
      <point x="490" y="1229" type="curve"/>
      <point x="512" y="1229"/>
      <point x="618" y="1229"/>
      <point x="656" y="1229" type="curve"/>
      <point x="664" y="1243"/>
      <point x="672" y="1262"/>
      <point x="678" y="1282" type="curve"/>
      <point x="611" y="1284"/>
      <point x="506" y="1286"/>
      <point x="405" y="1286" type="curve" smooth="yes"/>
      <point x="352" y="1286"/>
      <point x="301" y="1286"/>
      <point x="256" y="1284" type="curve"/>
      <point x="253" y="1273"/>
      <point x="248" y="1243"/>
      <point x="248" y="1226" type="curve"/>
      <point x="291" y="1226"/>
      <point x="416" y="1227"/>
      <point x="435" y="1228" type="curve"/>
      <point x="403" y="1119"/>
      <point x="337" y="885"/>
    </contour>
  </outline>
</glyph>
<glyph name="notequal" format="2">
  <advance width="1050"/>
  <unicode hex="2260"/>
  <outline>
    <contour>
      <point x="991" y="1331"/>
      <point x="962" y="1338" type="curve"/>
      <point x="855" y="1173"/>
      <point x="373" y="540"/>
      <point x="116" y="261" type="curve"/>
      <point x="129" y="253"/>
      <point x="164" y="237"/>
      <point x="183" y="231" type="curve"/>
      <point x="401" y="484"/>
      <point x="925" y="1150"/>
      <point x="1018" y="1302" type="curve"/>
      <point x="1005" y="1317"/>
    </contour>
    <component base="equal"/>
  </outline>
</glyph>
<glyph name="lozenge" format="2">
  <advance width="1200"/>
  <unicode hex="25CA"/>
  <outline>
    <contour>
      <point x="533" y="-26" type="line"/>
      <point x="713" y="204"/>
      <point x="903" y="425"/>
      <point x="1098" y="635" type="curve"/>
      <point x="1020" y="855"/>
      <point x="956" y="1086"/>
      <point x="903" y="1326" type="curve"/>
      <point x="682" y="1316" type="line"/>
      <point x="492" y="1076"/>
      <point x="308" y="857"/>
      <point x="103" y="637" type="curve"/>
      <point x="208" y="432"/>
      <point x="278" y="208"/>
      <point x="347" y="-17" type="curve"/>
    </contour>
    <contour>
      <point x="405" y="47" type="line"/>
      <point x="353" y="257"/>
      <point x="284" y="448"/>
      <point x="206" y="638" type="curve"/>
      <point x="381" y="832"/>
      <point x="559" y="1036"/>
      <point x="720" y="1250" type="curve"/>
      <point x="845" y="1261" type="line"/>
      <point x="887" y="1045"/>
      <point x="936" y="849"/>
      <point x="1003" y="653" type="curve"/>
      <point x="829" y="462"/>
      <point x="650" y="250"/>
      <point x="490" y="39" type="curve"/>
    </contour>
  </outline>
</glyph>
<glyph name="B_B" format="2">
  <advance width="2240"/>
  <anchor x="1026" y="0" name="caret_1"/>
  <anchor x="444.585" y="0.0" name="bottom"/>
  <anchor x="790.507" y="1291.0" name="top"/>
  <outline>
    <contour>
      <point x="1436" y="-18" type="curve" smooth="yes"/>
      <point x="1781" y="-18"/>
      <point x="2077" y="123"/>
      <point x="2077" y="447" type="curve" smooth="yes"/>
      <point x="2077" y="566"/>
      <point x="2007" y="631"/>
      <point x="1912" y="642" type="curve"/>
      <point x="2055" y="675"/>
      <point x="2183" y="860"/>
      <point x="2183" y="1018" type="curve" smooth="yes"/>
      <point x="2183" y="1190"/>
      <point x="2051" y="1246"/>
      <point x="1822" y="1246" type="curve" smooth="yes"/>
      <point x="1738" y="1246"/>
      <point x="1618" y="1241"/>
      <point x="1578" y="1239" type="curve"/>
      <point x="1534" y="1119"/>
      <point x="1225" y="228"/>
      <point x="1157" y="21" type="curve"/>
      <point x="1239" y="-5"/>
      <point x="1344" y="-18"/>
    </contour>
    <contour>
      <point x="1480" y="60" type="curve" smooth="yes"/>
      <point x="1388" y="60"/>
      <point x="1294" y="72"/>
      <point x="1270" y="76" type="curve"/>
      <point x="1432" y="567" type="line"/>
      <point x="1472" y="572"/>
      <point x="1622" y="590"/>
      <point x="1776" y="590" type="curve" smooth="yes"/>
      <point x="1922" y="590"/>
      <point x="1988" y="538"/>
      <point x="1988" y="433" type="curve" smooth="yes"/>
      <point x="1988" y="180"/>
      <point x="1779" y="60"/>
    </contour>
    <contour>
      <point x="1459" y="646" type="curve"/>
      <point x="1628" y="1167" type="line"/>
      <point x="1670" y="1167"/>
      <point x="1756" y="1167"/>
      <point x="1847" y="1167" type="curve" smooth="yes"/>
      <point x="2009" y="1167"/>
      <point x="2103" y="1123"/>
      <point x="2103" y="992" type="curve" smooth="yes"/>
      <point x="2103" y="869"/>
      <point x="2017" y="758"/>
      <point x="1896" y="701" type="curve" smooth="yes"/>
      <point x="1812" y="661"/>
      <point x="1612" y="646"/>
    </contour>
    <component base="B"/>
  </outline>
</glyph>
<glyph name="C_C" format="2">
  <advance width="2218"/>
  <anchor x="1108" y="0" name="caret_1"/>
  <anchor x="1478" y="0" name="bottom"/>
  <anchor x="1824" y="1291" name="top"/>
  <outline>
    <contour>
      <point x="1017" y="190" type="curve"/>
      <point x="1003" y="204"/>
      <point x="961" y="227"/>
      <point x="940" y="238" type="curve"/>
      <point x="828" y="148"/>
      <point x="676" y="88"/>
      <point x="532" y="88" type="curve" smooth="yes"/>
      <point x="294" y="88"/>
      <point x="195" y="208"/>
      <point x="195" y="422" type="curve" smooth="yes"/>
      <point x="195" y="801"/>
      <point x="436" y="1157"/>
      <point x="825" y="1157" type="curve" smooth="yes"/>
      <point x="1021" y="1157"/>
      <point x="1097" y="1076"/>
      <point x="1134" y="1027" type="curve"/>
      <point x="1160" y="1049"/>
      <point x="1187" y="1084"/>
      <point x="1201" y="1103" type="curve"/>
      <point x="1133" y="1196"/>
      <point x="983" y="1249"/>
      <point x="849" y="1249" type="curve" smooth="yes"/>
      <point x="418" y="1249"/>
      <point x="99" y="869"/>
      <point x="99" y="421" type="curve" smooth="yes"/>
      <point x="99" y="166"/>
      <point x="229" y="0"/>
      <point x="518" y="0" type="curve" smooth="yes"/>
      <point x="706" y="0"/>
      <point x="876" y="72"/>
    </contour>
    <component base="C" xOffset="1081"/>
  </outline>
</glyph>
<glyph name="D_D" format="2">
  <advance width="2231"/>
  <anchor x="1042" y="0" name="caret_1"/>
  <anchor x="456.585" y="0.0" name="bottom"/>
  <anchor x="415" y="646" name="center"/>
  <anchor x="716" y="1291" name="top"/>
  <outline>
    <contour>
      <point x="1261" y="-65" type="curve"/>
      <point x="1844" y="-45"/>
      <point x="2124" y="332"/>
      <point x="2124" y="961" type="curve" smooth="yes"/>
      <point x="2124" y="1166"/>
      <point x="2037" y="1364"/>
      <point x="1796" y="1364" type="curve" smooth="yes"/>
      <point x="1735" y="1364"/>
      <point x="1569" y="1349"/>
      <point x="1529" y="1339" type="curve"/>
      <point x="1522" y="1307"/>
      <point x="1300" y="190"/>
    </contour>
    <contour>
      <point x="1593" y="1271" type="curve"/>
      <point x="1630" y="1276"/>
      <point x="1761" y="1287"/>
      <point x="1800" y="1287" type="curve" smooth="yes"/>
      <point x="1979" y="1287"/>
      <point x="2040" y="1101"/>
      <point x="2040" y="937" type="curve" smooth="yes"/>
      <point x="2040" y="434"/>
      <point x="1830" y="69"/>
      <point x="1367" y="27" type="curve"/>
      <point x="1432" y="424"/>
      <point x="1510" y="874"/>
    </contour>
    <component base="D"/>
  </outline>
</glyph>
